<svg xmlns="http://www.w3.org/2000/svg" width="265.167" height="45" viewBox="0 -66.708 265.167 45" enable-background="new 0 -66.708 265.167 45"><g fill="#7AC943"><path d="M70.789 130.988l2.73-3.271c1.89 1.56 3.87 2.55 6.27 2.55 1.89 0 3.03-.75 3.03-1.98v-.059c0-1.17-.72-1.771-4.23-2.67-4.229-1.082-6.959-2.252-6.959-6.42v-.062c0-3.811 3.06-6.328 7.35-6.328 3.06 0 5.67.96 7.8 2.67l-2.4 3.479c-1.86-1.289-3.69-2.069-5.46-2.069s-2.7.812-2.7 1.83v.062c0 1.381.9 1.83 4.53 2.762 4.26 1.108 6.66 2.639 6.66 6.299v.062c0 4.171-3.18 6.511-7.709 6.511-3.183-.006-6.392-1.116-8.912-3.366zM89.449 117.969h4.56v2.311c1.11-1.5 2.64-2.608 5.01-2.608 3.75 0 7.32 2.938 7.32 8.312v.06c0 5.37-3.51 8.312-7.32 8.312-2.43 0-3.93-1.108-5.01-2.399v6.899h-4.56v-20.887zm12.328 8.068v-.059c0-2.672-1.8-4.44-3.93-4.44s-3.9 1.771-3.9 4.44v.059c0 2.672 1.77 4.441 3.9 4.441 2.131.001 3.93-1.74 3.93-4.441zM107.417 126.098v-.062c0-4.589 3.27-8.367 7.95-8.367 5.37 0 7.83 4.17 7.83 8.729 0 .358-.03.778-.06 1.199h-11.19c.45 2.069 1.89 3.147 3.93 3.147 1.53 0 2.64-.479 3.9-1.647l2.61 2.311c-1.5 1.859-3.66 3-6.57 3-4.83 0-8.4-3.39-8.4-8.31zm11.34-1.349c-.27-2.04-1.47-3.422-3.39-3.422-1.89 0-3.12 1.353-3.479 3.422h6.869zM124.308 126.098v-.062c0-4.589 3.51-8.367 8.43-8.367 3.03 0 4.92 1.021 6.42 2.698l-2.789 3c-1.021-1.08-2.041-1.771-3.661-1.771-2.28 0-3.9 2.012-3.9 4.381v.06c0 2.463 1.59 4.44 4.08 4.44 1.529 0 2.58-.66 3.689-1.711l2.67 2.699c-1.561 1.711-3.36 2.939-6.571 2.939-4.828.004-8.368-3.716-8.368-8.306zM140.808 112.148h4.8v4.05h-4.8v-4.05zm.12 5.821h4.56v16.078h-4.56v-16.078zM147.316 129.428v-.062c0-3.511 2.67-5.13 6.479-5.13 1.621 0 2.791.271 3.933.66v-.271c0-1.892-1.17-2.938-3.451-2.938-1.737 0-2.969.33-4.438.869l-1.139-3.479c1.77-.778 3.51-1.29 6.239-1.29 2.487 0 4.291.66 5.431 1.802 1.2 1.198 1.739 2.97 1.739 5.13v9.329h-4.409v-1.737c-1.109 1.229-2.64 2.039-4.859 2.039-3.035-.002-5.525-1.743-5.525-4.922zm10.471-1.05v-.812c-.781-.358-1.801-.6-2.91-.6-1.951 0-3.149.778-3.149 2.219v.062c0 1.229 1.021 1.947 2.489 1.947 2.13.003 3.57-1.167 3.57-2.816zM164.746 112.148h4.562v21.897h-4.562v-21.897z"/></g><g fill="#3FA9F5"><path d="M169.576 112.167h16.65v4.282h-11.826v4.439h10.408v4.284h-10.408v4.599h11.982v4.283h-16.81l.004-21.887zM186.794 117.296h5.078l3.782 11.228 3.816-11.228h4.981l-6.654 16.888h-4.352l-6.651-16.888zM203.888 125.771v-.062c0-4.784 3.438-8.727 8.357-8.727 5.645 0 8.229 4.347 8.229 9.104 0 .375-.031.812-.062 1.25h-11.762c.473 2.156 1.984 3.283 4.131 3.283 1.609 0 2.775-.501 4.1-1.721l2.744 2.408c-1.576 1.938-3.848 3.127-6.906 3.127-5.077.001-8.831-3.535-8.831-8.662zm11.922-1.41c-.285-2.125-1.545-3.562-3.562-3.562-1.988 0-3.281 1.404-3.658 3.562h7.22zM222.464 117.296h4.791v2.376c1.104-1.406 2.524-2.689 4.953-2.689 3.627 0 5.737 2.377 5.737 6.226v10.853h-4.793v-9.351c0-2.252-1.071-3.409-2.901-3.409-1.828 0-2.996 1.157-2.996 3.409v9.351h-4.791v-16.766zM241.322 129.305v-7.943h-2.018v-4.062h2.018v-4.287h4.795v4.285h3.973v4.062h-3.973v7.162c0 1.094.473 1.625 1.543 1.625.883 0 1.672-.217 2.365-.592v3.812c-1.008.596-2.174.974-3.783.974-2.932 0-4.92-1.159-4.92-5.036zM250.722 131.838l2.049-3.127c1.83 1.312 3.754 2.001 5.33 2.001 1.389 0 2.02-.5 2.02-1.25v-.063c0-1.032-1.641-1.377-3.5-1.938-2.367-.688-5.047-1.783-5.047-5.036v-.062c0-3.409 2.773-5.314 6.182-5.314 2.146 0 4.479.719 6.31 1.938l-1.828 3.285c-1.672-.97-3.344-1.562-4.571-1.562-1.168 0-1.769.5-1.769 1.154v.062c0 .938 1.606 1.376 3.438 2.001 2.362.782 5.106 1.908 5.106 4.972v.063c0 3.722-2.81 5.408-6.465 5.408-2.368 0-5.017-.78-7.255-2.532z"/></g><g fill="#0071BC"><path d="M54.294 96.82c2.393 4.615 3.075 10.965 1.512 16.176-1.573 6.158-6.739 12.379-12.78 14.916-6.781 3.32-16.419 2.49-22.474-1.846-8.412-5.76-11.851-15.691-9.312-25.489 1.547-5.827 6.188-11.705 11.854-14.406 3.191-1.571 6.667-2.415 10.47-2.485 8.671.011 16.951 5.108 20.73 13.134zm-20.279-12.006c.142.906.105 2.149.034 3.174 0-.104.05-.195.107-.277.163-.092.304.044.376.163.015.161.076.438-.063.526.14.024.209-.077.335-.077 2.631.192 5.078.966 7.255 2.204v-.055c.449-.219 1.023-.506 1.489-.111.551-.207.659.473 1.107.55.536.327 1.146.922 1.212 1.555.11.208.428.354.47.573.371-.777 1.103-1.33 1.746-2.01l.392-.163c-3.479-3.312-7.61-5.144-12.21-5.773-.728-.128-1.538-.059-2.25-.279zm-1.28.118c-4.628.184-8.731 1.758-12.383 4.383-.698.479-1.32 1.215-2.031 1.625h.102c.91.674 1.77 1.625 2.537 2.463l.057-.17c3.362-3.059 7.273-4.74 11.764-4.948l-.11-.272-.031-2.759.095-.322zm3.947 1.735l-1.653.712c-.141-.059-.405-.125-.494.061-.073.053 0 .139.023.193.608.779 1.662.344 2.419.192.552.233 1.079-.043 1.494-.386v-.084c-.39-.546-1.126-.63-1.789-.688zm-2.69 2.842l.119.218c-.023 1.069.045 2.209-.063 3.211.447-.15.894.033 1.331.047 2.256.367 4.381 1.095 6.193 2.479-.221-.231-.485-.495-.536-.827.041-.048.083-.061.143-.048.017-.354-.362-.536-.416-.858.054-.065.138-.135.254-.102.39.368.721.77 1.012 1.186.248-.103.46.057.639.19.335.197.13.628.377.854.047.678.88 1.061.837 1.738.015.164.208.029.281.11l.683.849c-.125.162-.023.36.114.475.309.137.482-.254.796-.197.444.254-.07.546-.028.829.174.009.39-.136.529.035.059.259-.206.417-.305.575 0 .25.198.194.382.25.209-.008.341.246.279.414.572.599-.172 1.248.104 1.877.18.414-.041.816-.296 1.123.01.508-.447.826-.634 1.248l-.589.111c-.309.311.268.692-.039.887l1.281.023-.135-.137c-.189-.508-.143-1.187.175-1.631.197-.42.237-.914.603-1.266.079-.023.234-.175.295 0 .028.389-.006.836-.192 1.186.374.529.324 1.22.355 1.873 1.15-.069 2.262-.094 3.372-.08l-.101-.221c-.172-2.132-.612-4.143-1.493-5.957-.237.01-.413.209-.682.139-.096-.036-.153-.129-.146-.238-.456-.436-.744-1.009-1.27-1.395-.586.053-.853-.625-1.377-.688-.47-.198-.149-.96-.828-.755-.336-.141-.657-.387-.722-.77 0-.601-.117-1.246-.651-1.635-.416-.146-.6.401-1.017.307-.225-.113-.117-.414-.185-.611-.083-.168-.28-.292-.243-.521.54-.718-.658-.709-.393-1.406-.068-.508-.584-.702-.845-1.101-1.781-.811-3.571-1.362-5.583-1.603-.489-.062-.949.042-1.385-.187zm10.419.025c-.239.229-.449-.208-.662.056-.013.124.01.238.08.33.481.174.536.874 1.159.712.182-.208-.113-.425-.054-.69-.086-.24-.288-.338-.523-.408zm-20.65 3.09c-.711.498-1.361 1.14-2.101 1.582.847.54 1.551 1.438 2.322 2.147l.077.219c1.963-1.875 4.338-2.965 6.906-3.495.609-.062 1.217-.267 1.819-.14-.048-1.09-.141-2.231-.025-3.311-3.344.192-6.324 1.205-8.998 2.998zm25.563-1.043c-.627.846-1.493 1.642-2.294 2.463l-.39.076c.247.056.307.345.468.519.85.446 1.07 1.348 1.803 1.852.413.861 1.363 1.531 1.397 2.525 1.006 2.203 1.691 4.543 1.757 7.142l-.103.138c.113 0 .209-.048.281-.102l3.318-.058c-.224-.321-.133-.79-.188-1.186-.439-5.126-2.622-9.509-6.049-13.369zm-31.633.078c-3.283 3.646-5.303 7.809-5.895 12.559-.125.695-.055 1.406-.187 2.109 1.159-.095 2.408-.095 3.556 0l-.081-.446c.222-3.669 1.393-6.939 3.453-9.859.52-.584.898-1.321 1.541-1.76-.743-.703-1.526-1.521-2.311-2.289l-.076-.314zm15.123 2.407l-.196.107c-2.922.211-5.455 1.428-7.677 3.258.882.613 1.664 1.592 2.45 2.289.063-.084.121-.16.177-.254 1.087-.781 2.215-1.492 3.512-1.822.576-.047 1.131-.326 1.732-.188-.126-1.079-.126-2.276.002-3.39zm1.201.019l.122.25-.024 3.12.312-.057c1.903.263 3.643.877 5.154 2.105l.082.236c.518-.717 1.301-1.342 1.911-2.033l.569-.333-.277-.116c-1.257-1.055-2.638-1.863-4.138-2.392-1.164-.41-2.439-.581-3.711-.78zm-13.193.864l-.025.216-1.238 1.581c-2.028 2.796-3.005 6.029-3.292 9.548l3.15-.058.303.115c-.126-.082-.091-.22-.14-.334.255-3.275 1.403-6.199 3.674-8.639-.874-.761-1.685-1.564-2.432-2.429zm22.007 3.197l-.055.141c-1.059 1.095-2.22 2.238-3.229 3.369.068.135.183.259.312.332.051-.278.195-.516.218-.803.277-.381.688-.139 1.045-.06.552-.127 1.064.125 1.631.118.413.203.453.729.837.941.095.153.021.32-.116.433.116.864.525-.224.962-.019.185.071.413.043.551.236.07.357.505.289.529.633-.039.176-.221.223-.328.313.096.344-.362.565-.201.933.666.125.686-.646 1.002-.994-.175-.597-.301-1.205-.646-1.732-.38-.084-.603-.523-.993-.609-.73-.289.121-.746.028-1.184-.387-.737-1.006-1.389-1.547-2.048zm-18.715.12c-1.584 1.901-2.665 3.994-3.097 6.373-.127.553-.057 1.188-.273 1.713.404-.185.991-.115 1.439-.058-.261-.138-.043-.471-.194-.653-.035-.291-.082-.644.194-.83-.034-.474.473-.713.519-1.142.129-.481.679-.16.94-.414.176-.089.024-.248.024-.376.226-.306.585-.3.858-.47.193-.302.449-.626.772-.806.697.021.713-.941 1.361-.965-.894-.68-1.748-1.595-2.543-2.372zm9.935.377c.224.654.028 1.623.165 2.381l.838.274c.237-.399.766-.481.998-.856.145-.127.32 0 .439.14.034.308-.053.618-.143.917-.306.619-1.043.705-1.458 1.148.266.155.416-.127.635-.184.32.033.57.311.766.52.208.09.403-.034.586-.105.128-.955 1.321-.818 1.677-1.717l-.218.087c-.093-.128-.32-.074-.31-.282.195-.183.448-.473.692-.549-1.037-.645-2.099-1.198-3.271-1.497-.465-.108-.949-.115-1.396-.277zm-6.186 2.406h.257c.276.271.724.219.929.579.103.208-.19.187-.18.362.056.043.136.053.18.142.22.081.174-.13.256-.224.282-.29.331.279.609.279.203-.131.478-.145.616.082.183-.164.574-.008.63-.314.354-.378.158-.962.688-1.207.185.107-.01.277.058.441.354.151.76-.301 1.039.059-.258-.755-.188-1.682-.163-2.51-1.852.235-3.559.866-4.919 2.311zm5.578 1.909c-.184-.209-.582-.084-.823 0 .231.229.138.642.279.931-.346.574-.917.701-1.459.862-.153.181-.121.586-.474.549-.114.252-.506.396-.352.773-.185.39-.092.896-.2 1.321-.684.429-.489-.562-.833-.77l-.116.195c-.14.033-.227-.049-.323-.141-.104-.035-.271-.07-.364.024-.15.255-.378.46-.318.803-.072.208-.414.142-.372.357.38-.013.794-.083 1.16-.16.264.069.481-.127.754-.138.09.045.203.138.165.277h.086c.183-.14.27-.346.183-.554.026-.239.293-.239.447-.306.155.064.062.213.083.326.518.195-.124.576-.194.852-.135.219 0 .714-.436.646-.086-.025-.133-.104-.118-.201h-.052c-.016.188.124.44.307.522.321-.267.336-.717.792-.776.244-.254-.103-.646.252-.85.603-.01 1.244-.264 1.715.217-.034.209-.119.303.058.471-.119.268-.199.554-.413.775.055.151.008.336-.115.438-.164.703-.966.373-1.44.613.73.549 1.599.756 2.54.689.49-.025.278-.635.537-.908.164-.806.893-.255 1.344-.474.175-.341.341-.679.386-1.068-.283-.187-.398-.53-.309-.86-.195-.26-.169-.75-.595-.793-.068-.095-.011-.207.044-.277-.01-.252.244-.333.31-.533-.26-.17-.197-.546-.17-.768-.447.125-.494-.452-.822-.584-.086-.271-.377-.312-.611-.364-.553.271-.64-.413-1.055-.573-.043-.125-.133-.311 0-.413.205-.175.483-.028.725-.034l-.203-.096zm-9.995 2.836c-.93.304.154 1.007-.079 1.583-.128.332-.466.021-.711.164l-.09.602c-.137.362-.587.098-.793.34-.148.231.018.475.136.656-.321.731.721.963.715 1.629.321.416-.047 1.019.411 1.387.101.746-.099 1.76.551 2.341l.115.714c.138.498-.588.371-.494.803.138-.062.172.117.18.165v-.022c.886-1.028 1.908-2.109 2.962-3.018l-.435-.438c-.825-1.219-1.47-2.518-1.778-3.95l-.333-.168c-.011.371-.182.66-.161 1.026l-.114.137c-.24-.014-.394-.207-.593-.336-.051-.124-.178-.33.022-.438.109-.006.19.025.273.084.101-.127.057-.311.116-.474.034-.279-.21-.529-.037-.767.221-.032.381.235.475.381.217.072.389-.108.566-.192 0-.188.28-.457-.019-.575.161-.443.047-.92-.026-1.357-.123-.382-.544-.311-.859-.277zm21.541.395c-.093.043-.214.009-.33.021.096-.045.223-.021.33-.021zm-.712 1.125l.355.357c.356.241.114.76.499.969.445.232.602.754.803 1.141.07-.105.07-.235.103-.336.155-.631.133-1.344.33-1.969-.692.036-1.485.105-2.09-.162zm7.875.163l-.209-.136.124.31c-.192 3.828-1.465 7.213-3.646 10.218-.427.501-.827 1.123-1.362 1.478.876.694 1.841 1.728 2.569 2.521l.091-.171c3.519-4.01 5.519-8.662 5.734-14.043l.14-.276-.174.078-3.267.021zm-4.623-.079c.073.705-.118 1.381-.165 2.068l.388.413c.102.162.069.402-.081.53-.17.102-.374.09-.536-.035-.482 1.542-1.05 3.057-2.007 4.395-.385.482-.75 1.152-1.247 1.406l1.05.915c.054-.057.02-.149.029-.229 0-.137.071-.299.24-.277.507-.008.519.527.81.807-.057.439.316.782.19 1.188 2.909-3.067 4.347-6.813 4.615-10.966l.158-.184c-1.029.102-2.121.032-3.187.041l-.257-.072zm-26.84.034l.169.276c.021.759.328 1.483.163 2.253.132-.217.166-.516.448-.65.031-.207-.283-.264-.242-.472.219-.433.005-1.118.572-1.303-.4.071-.766.152-1.11-.104zm-5.54.045l-.313.116-3.196-.024c.184 3.682 1.162 7.029 2.814 10.104.814 1.516 2.013 2.883 3.064 4.303l2.285-2.375.276-.113c-.394-.274-.738-.725-1.071-1.102-.377-.105-.765-.373-.957-.734-.123-.133-.016-.366-.143-.459l-.138.177c-.4.198-.549-.224-.826-.388-.365-.194-.191-.877-.672-.75-.186-.008-.246-.222-.358-.33-.448.045-.56-.452-.803-.693-.045.102 0 .236-.138.307-.458.107-.622-.455-.925-.687-.089.032-.144.124-.258.103-.276-.242-.458-.584-.472-.967-.376-.425-.209-1.104-.135-1.623.067-.14.265-.214.226-.387.104-.243.358-.264.599-.276.096.044.183.138.23.218.148-.096.482.016.354-.319.195-.171.484-.229.746-.274.186.23.274.494.521.713l-.163-.256c-.279-1.13-.498-2.279-.548-3.496.01-.07-.149-.1-.064-.17l.027.032c.011-.259-.01-.475.038-.65zm4.493 0l-.253.116c-1.065-.024-2.183.065-3.202-.084l.14.197.25 2.114c.107.818.466 1.601.442 2.408.131-.179.048-.521.358-.555-.122-.254.24-.468.037-.693.101-.556.167-1.117.656-1.519.583-.024.626-.795 1.214-.83.297-.014.485.39.606.532-.363-.44-.342-1.183-.248-1.686zm5.916 1.419c.327.594.497 1.271.83 1.869.207.533.675.942.875 1.463.22-.416.657-.75.959-1.127.025-.172-.009-.326-.098-.455-.104-.235-.015-.578-.194-.789-.297.103.101.406-.023.574-.132.084-.265-.021-.274-.138-.268-.042-.47-.272-.554-.511.219-.141-.053-.195-.116-.311-.112-.061-.121-.048-.217.057-.054 0-.124.013-.177-.024-.004-.656-.732-.262-1.011-.608zm3.607.906c-.068.283-.26.537-.467.744l.028.024c.282-.195.471-.551.829-.574l-.39-.194zm9.09.938c.013.178.034.408.182.56.454-.071.254.548.674.494.231-.071.013-.265.085-.417-.07-.343-.405-.376-.644-.584-.021-.076.031-.128.062-.184-.177-.093-.257.004-.359.131zm6.518.028c-.335-.027-.735.17-1.022-.058-.102-.097-.175.042-.16.136-.116.178-.234.397-.504.313-.208-.093-.208-.313-.282-.476.015.125-.028.243-.051.36-.241.255-.321.497-.498.772-.239.263-.625.17-.881.386-.045.556-.651.44-1 .608-.02.072.053.086.092.141.16.044.377.044.498-.112.476.125.374-.481.65-.688.242-.035.473-.238.725-.084.25.311.307.763.27 1.166-.27.273-.128.72-.332 1.041.043.381-.415.559-.352.936-.147.169-.405.199-.638.199-.902-.35-1.851-.572-2.873-.66-.09.035-.148.113-.138.216.413.224.928.236 1.36.418.394.106.659.591 1.153.44.406-.232 1.102.136 1.371-.307-.042-.427.329-.732.507-1.099l.135-.034c.234.236.221.592.327.859.33-.35.575-.723.868-1.081.755-1.109 1.404-2.287 1.675-3.556-.304.009-.614.069-.9.164zm-14.494 0c-.507.808-1.444 1.539-2.135 2.287 1.23 1.016 2.61 1.648 4.141 1.908.079-.307-.049-.697.117-.961.112-.25.426-.24.656-.2.139-.009.216-.179.139-.297-.335-.065-.189-.44-.297-.644.009-.121.2-.094.159-.243-.23-.183.111-.388-.084-.586.084-.056.137-.185.256-.185-.729.383-1.502-.078-2.147-.367-.299-.168-.738-.337-.805-.712zm6.678 2.011c-.038.092-.156.25 0 .306.278-.286.862-.276.887-.692-.404-.05-.609.169-.887.386zm1.298.867c-.358 0-.538.274-.808.492-.321.187-.479-.346-.744-.217.009.059.071.081.113.1.069.086.095.25 0 .332-.388.355-.573-.168-.937-.133v.133c.011.084-.023.211-.14.168-.229-.381-.701-.246-.932-.576-.144-.084-.284.021-.381.113-.096.168-.467-.026-.375.273-.285.104-.314.416-.527.598-.354-.058-.515.346-.85.336.039.072 0 .18.11.197.205.092.412.112.658.079.353-.552.926-.097 1.411-.302.301.056.09.381.312.5.472-.153.825.4 1.206.051-.024-.542.585-.495.92-.639.515-.307 1.103-.719 1.042-1.403l-.078-.102zm-11.094.32c-.684.829-1.489 1.693-2.296 2.345.356.024.551.416.858.586 1.72 1.439 3.866 2.131 5.875 2.619l-.55-.244c-.411-.476-1.001-1.025-1.025-1.682.413-.142.371-.6.509-.91.341-.371.755-.566 1.204-.67-1.154.485-2.179-.378-3.142-.828-.495-.366-1.135-.661-1.433-1.216zm15.971 3.211l-.084-.223c-.1.276-.307.446-.516.66.015.18-.05.456.16.581.465.154 1.069.449 1.173.984-.188.508-1.158.978-.551 1.523.19.275-.286.378-.203.604l.17-.217c.682-.541 1.434-1.044 2.04-1.716h.083c-.141-.044-.309.094-.47.024-.328-.149-.383-.44-.383-.771l-1.419-1.449zm-18.497.441l-.046-.086.046.142v-.056zm.366.493c-.152-.098-.247-.188-.281-.36l.281.36zm.084.087c.065.278.433.448.333.794-.195.307-.602.316-.92.307-.654-.101-1.138.391-1.755.463-.564.176-.761-.519-1.273-.463 3.187 2.803 6.84 4.545 11.127 4.774l.323.224-.133-.395v-3.034l-.283.116c-2.798-.14-5.244-1.162-7.419-2.786zm21.255 2.156l-.057-.276c-.313.633-1.028 1.03-1.568 1.517-.751.752-1.974.913-2.354 1.988-.401.37-.54.943-1.104 1.159-.203.546-.789.509-1.121.911-.969.865-1.592-.549-2.462-.723l-1.758.312c-.611 0-1.222.22-1.802.022.078 1.176.078 2.438 0 3.615l.216-.139c5.556-.247 10.336-2.348 14.442-6.074l-2.432-2.312zm-25.539-.036l-.036.136-2.364 2.38c3.589 3.105 7.643 5.111 12.264 5.745.734.127 1.571.06 2.281.274l-.163-.274v-3.119l.114-.174-.359.094c-4.484-.314-8.452-1.903-11.737-5.062zm13.138.802l.176.254c0 .949.117 1.911 0 2.849.854-.295 1.844-.246 2.761-.4-.184-.068-.366-.111-.504-.295-.538-.035-.793-.598-.963-1.027-.078-.305.132-.561.253-.833-.229-.467-.94-.124-1.365-.295-.114-.094-.195-.228-.358-.253zM55.096 88.047c1.699 1.512 2.454 3.464 2.946 5.491l.279.639c-2.459-1.758-4.677-4.127-6.235-6.622l-1.911-1.933c1.673.708 3.488 1.138 4.921 2.425zM12.318 91.05c-1.123 1.394-2.558 2.315-3.832 3.507.684-1.428.712-3.123 1.69-4.439 1.386-2.426 3.968-3.277 6.259-4.172-1.684 1.481-2.858 3.355-4.117 5.104zM61.086 93.596c.541 2.408-.244 4.771.254 7.211l-.025.023c-1.319-2.592-4.106-3.809-6.038-5.881-1.11-1.231-1.594-2.729-1.867-4.312 1.097 2.656 4.072 3.248 5.775 5.477.567.516.752 1.23 1.123 1.818l.057-.057c-.979-2.088-1.309-4.45-1.991-6.684-.343-.965-1.022-1.92-1.927-2.535 2.229.464 4.17 2.797 4.639 4.94zM10.228 89.072c-2.281 1.562-2.115 4.369-2.854 6.711-.231.859-.629 1.65-.825 2.539l.057.043c.386-1.004 1.043-1.944 1.88-2.762 1.618-1.492 4.017-2.424 4.807-4.637-.036 3.077-2.605 5.489-5.053 7.215-1.016.881-1.997 1.895-2.542 3.033-.061-.766.113-1.552.056-2.38-.262-2.675-.457-5.741 1.44-7.728.82-1.02 1.868-1.735 3.034-2.034zM62.524 94.12c2.028 2.762 2.476 7.155.996 10.325-.552 1.343-.941 2.773-1.16 4.256-.101-.258-.127-.6-.214-.885-.805-3.096-3.749-5.308-4.947-8.23-.381-.952-.699-1.947-.893-2.977 1.289 2.379 4.462 3.613 5.337 6.232.349.668.329 1.496.543 2.21.048 0 .096-.034.096-.081-.386-2.701-.267-5.533.098-8.207-.02-1.447-.161-2.851-.961-3.963.518.294.746.874 1.105 1.32zM5.363 93.255c-1.742 2.663-.292 6.006-.375 9.038l-.232 3.094c.038.023.038.11.122.077.096-.341.121-.711.194-1.065.409-2.504 2.569-4.269 4.472-5.994.402-.446.762-.909.962-1.438-.145 1.246-.538 2.493-1.055 3.646-1.465 2.875-4.197 5.24-4.695 8.527-.237-3.16-2.39-5.513-2.172-8.861-.071-2.719 1.06-4.938 2.644-6.961.046-.027.082-.074.135-.063zM64.427 112.032c-1.211 1.72-2.662 3.313-3.79 5.059.13-1.377.3-3.082-.25-4.393-.932-2.818-1.743-5.683-2.012-8.777l.031-1.183c.704 3.158 3.812 5.332 3.621 8.882.071.86-.195 1.588-.353 2.342l.053.058.137-.164c.462-1.731.696-3.567 1.401-5.188 1.025-2.336 2.301-4.692 1.768-7.513 1.559 3.331 1.093 7.773-.606 10.877zM4.48 110.93c.333 1.162.417 2.414.882 3.506.047.023.085-.02.117-.055-1.185-3.312.515-6.39 2.225-8.972.428-.7.667-1.487.875-2.292.178 1.498-.194 3.217-.414 4.775-.422 1.979-1.046 3.86-1.583 5.777-.358 1.195-.264 2.557-.084 3.803l-.171-.136c-1.251-2.312-3.735-4.114-4.472-6.649-.611-2.012-1.009-4.352-.597-6.545.19-.849.35-1.721.715-2.51-.705 3.591 1.718 6.182 2.507 9.298zM59.674 117.471c-.079 1.557-.582 2.94-1.396 4.178h.128c1.108-1.446 1.971-2.985 3.267-4.371 1.993-1.93 4.038-3.905 4.3-6.592.683 4.472-1.837 8.4-5.548 10.933-1.531.999-3.081 1.931-4.562 3.073v-.139c2.26-3.753 1.158-8.894 2.543-13.011l.522-1.382c-.283 2.563.824 4.735.746 7.311zM10.274 122.562c.242.848.737 1.608 1.053 2.428-3.42-2.336-8.097-4.559-9.61-8.836-.642-1.479-.712-3.307-.572-4.995.271 3.804 4.368 5.821 6.269 8.974.444.643.844 1.357 1.44 1.901-.098-.408-.471-.757-.613-1.171-.67-1.325-.915-2.895-.749-4.502.179-1.939 1.004-3.75.697-5.795 1.667 3.605 1.159 8.096 2.085 11.996zM54.57 125.4c-.585 1.025-1.425 2.012-2.341 2.82.301-.018.56-.279.83-.451 2.464-2.463 5.688-3.148 8.361-5.153 1.068-.851 2.046-1.968 2.516-3.179-.504 4.092-4.573 7.922-8.4 9.142-1.977.528-4.097.702-6.012 1.356 3.253-2.799 3.073-7.125 5.243-10.418.687-.925 1.262-1.899 2.075-2.791-1.329 2.658-.758 6.098-2.272 8.674zM13.492 121.95c1.14 2.829 1.582 6.024 4.244 8.166-2.879-.939-6.256-.677-8.782-2.448-2.775-1.704-5.239-4.593-5.769-7.764 1.913 4.326 6.703 4.677 9.911 7.312.586.517 1.205.968 1.872 1.274l.034-.035c-.731-.667-1.586-1.426-2.096-2.288-1.88-2.606-1.233-6.265-2.634-9.076 1.277 1.533 2.451 3.125 3.22 4.859zM47.614 130.37c-.713.465-1.596.545-2.32.892 1.033.018 1.977-.347 3.006-.451 3.799-.604 8.147.017 10.801-3.215-.986 2.252-3.461 4.133-5.715 4.926-3.879 1.463-7.779-.326-11.496-.922l-.711-.098v-.027c1.767-.396 3.499-.928 4.906-2.205 2.093-2.002 3.937-4.062 6.258-5.641-1.719 2.196-1.901 5.331-4.729 6.741zM20.999 129.324c1.474 1.285 3.241 1.889 5.109 2.27-.444.159-1.038.109-1.521.236-3.346.824-7.072 2.173-10.63.967-2.315-.727-4.691-2.559-5.843-4.832 3.047 3.487 8.046 2.326 12.135 3.233.574.075 1.11.31 1.718.218-.479-.307-1.169-.271-1.695-.555-3.197-1.127-3.674-4.594-5.405-6.928 2.227 1.473 4.086 3.471 6.132 5.391zM45.989 134.039c2.487.917 5.701.667 7.835-.852-1.095 1.373-2.592 2.349-4.149 2.897-3.453 1.291-7.054-.054-9.738-2.104-1.094-.686-2.062-1.688-3.478-1.597-.503-.015-.993.013-1.431.134 2.614 1.226 5.045 2.903 7.275 5.057-.379.425-.867.826-1.32 1.193-2.141-2.317-4.524-4.535-7.182-5.834-.517.072-1.01.375-1.484.635-2.153 1.365-4.301 3.127-5.907 5.277l-1.388-1.133c2.213-2.234 4.644-3.971 7.319-5.215-2.621-.83-4.334 1.369-6.321 2.48-2.329 1.625-5.668 2.389-8.463 1.268-1.521-.572-2.977-1.415-4.064-2.785 2.204 1.52 5.496 1.68 8.004.691 3.367-1.465 6.869-3.312 10.93-2.432.63.018 1.248.646 1.847.106 3.015-.777 6.436-.236 9.038 1.14l2.677 1.074z"/></g><g fill="#0071BC"><path d="M36.222 6.288c1.58 3.047 2.03 7.24.999 10.681-1.039 4.068-4.45 8.176-8.439 9.849-4.478 2.194-10.843 1.646-14.84-1.218-5.556-3.803-7.826-10.362-6.15-16.831 1.022-3.848 4.087-7.729 7.828-9.513 2.107-1.037 4.402-1.595 6.913-1.641 5.725.007 11.192 3.373 13.689 8.673zm-13.392-7.929c.093.598.07 1.419.023 2.096 0-.068.033-.129.071-.184.107-.061.202.029.25.108.009.106.05.29-.042.348.092.015.138-.051.222-.051 1.737.126 3.353.638 4.791 1.456v-.038c.296-.143.675-.332.983-.072.364-.137.435.312.73.363.354.215.756.608.801 1.027.072.137.282.232.311.378.245-.513.729-.878 1.153-1.326l.259-.108c-2.297-2.187-5.025-3.396-8.062-3.812-.486-.086-1.02-.04-1.49-.185zm-.846.078c-3.056.12-5.766 1.16-8.178 2.895-.46.315-.871.802-1.34 1.072h.067c.601.445 1.168 1.074 1.675 1.626l.039-.113c2.219-2.02 4.802-3.129 7.768-3.267l-.073-.18-.021-1.821.063-.212zm2.607 1.145l-1.092.47c-.093-.038-.267-.082-.326.041-.048.035 0 .091.016.128.401.514 1.097.227 1.597.126.364.154.712-.028.985-.255v-.054c-.256-.362-.742-.417-1.18-.456zm-1.776 1.876l.079.145c-.016.707.029 1.459-.042 2.12.295-.1.589.021.878.031 1.49.243 2.893.723 4.088 1.638-.145-.153-.32-.327-.353-.545.026-.032.055-.041.094-.032.011-.234-.24-.354-.274-.567.035-.043.091-.09.167-.066.257.242.477.507.668.783.165-.069.306.035.424.124.221.13.085.415.248.563.032.448.582.7.552 1.148.01.108.138.021.186.073l.451.561c-.083.106-.016.238.075.313.204.091.318-.167.525-.13.293.168-.046.361-.018.547.115.006.257-.089.349.023.04.171-.136.275-.202.38 0 .165.131.129.253.165.138-.005.225.162.184.273.379.396-.114.824.069 1.24.118.273-.026.539-.195.741.006.336-.295.546-.418.825l-.389.074c-.205.205.177.457-.025.585l.845.016-.09-.091c-.125-.336-.094-.783.116-1.078.13-.276.157-.604.398-.836.052-.015.154-.115.194 0 .019.257-.003.552-.126.783.246.349.213.806.234 1.236.759-.046 1.493-.062 2.227-.053l-.067-.146c-.114-1.407-.405-2.734-.985-3.933-.158.007-.272.137-.451.091-.063-.024-.102-.083-.096-.157-.301-.288-.491-.666-.839-.921-.387.035-.563-.413-.91-.455-.311-.131-.099-.633-.547-.499-.222-.092-.433-.255-.477-.507 0-.396-.077-.822-.43-1.08-.274-.098-.396.265-.671.202-.148-.074-.077-.273-.123-.403-.052-.109-.183-.192-.158-.342.356-.474-.435-.47-.259-.928-.045-.336-.386-.464-.558-.728-1.177-.536-2.36-.899-3.688-1.059-.321-.04-.626.029-.913-.124zm6.88.018c-.159.152-.297-.137-.438.038-.007.082.007.156.053.217.318.115.354.578.766.471.121-.137-.074-.282-.036-.456-.057-.159-.19-.225-.345-.27zm-13.636 2.04c-.471.33-.899.753-1.388 1.044.559.357 1.024.95 1.533 1.417l.05.145c1.297-1.237 2.866-1.958 4.561-2.307.402-.042.804-.176 1.202-.092-.033-.719-.095-1.473-.017-2.184-2.207.124-4.176.793-5.941 1.977zm16.881-.689c-.415.559-.986 1.084-1.515 1.627l-.257.05c.163.037.203.228.31.341.561.295.707.891 1.191 1.223.272.569.901 1.011.924 1.668.664 1.455 1.117 2.999 1.159 4.716l-.069.092c.075 0 .138-.032.185-.068l2.191-.038c-.148-.212-.089-.522-.125-.783-.29-3.385-1.732-6.278-3.994-8.828zm-20.889.051c-2.168 2.408-3.502 5.157-3.893 8.293-.082.46-.036.929-.123 1.393.765-.062 1.591-.062 2.348 0l-.054-.294c.146-2.423.92-4.582 2.281-6.512.343-.386.593-.873 1.017-1.162-.491-.465-1.007-1.005-1.525-1.512l-.051-.206zm9.985 1.591l-.128.071c-1.93.139-3.602.943-5.069 2.152.582.405 1.099 1.05 1.618 1.51.043-.054.08-.106.118-.167.717-.516 1.462-.984 2.318-1.204.38-.031.748-.217 1.143-.123-.083-.714-.083-1.505 0-2.239zm.794.012l.081.165-.017 2.061.206-.038c1.257.173 2.406.58 3.404 1.39l.054.156c.342-.474.86-.885 1.261-1.342l.376-.22-.183-.076c-.831-.697-1.743-1.231-2.733-1.58-.767-.272-1.61-.385-2.449-.516zm-8.712.57l-.017.142-.818 1.044c-1.338 1.846-1.984 3.983-2.173 6.304l2.079-.037.201.075c-.083-.053-.06-.144-.092-.221.168-2.163.927-4.093 2.426-5.704-.578-.502-1.112-1.031-1.606-1.603zm14.533 2.112l-.038.093c-.699.723-1.466 1.479-2.132 2.225.046.088.121.171.206.219.034-.183.128-.341.144-.53.184-.251.455-.091.69-.04.364-.084.703.083 1.077.078.272.134.299.481.553.622.063.102.013.212-.077.285.077.571.347-.147.636-.012.123.047.272.029.364.156.046.237.333.191.349.418-.025.115-.146.146-.217.206.063.228-.239.374-.133.616.439.083.453-.428.662-.656-.116-.394-.199-.795-.428-1.144-.25-.055-.397-.346-.655-.403-.481-.191.08-.494.018-.782-.253-.486-.663-.916-1.019-1.351zm-12.359.079c-1.047 1.255-1.76 2.638-2.045 4.209-.084.364-.039.784-.181 1.129.267-.121.654-.075.95-.038-.171-.091-.028-.311-.128-.432-.023-.192-.054-.425.128-.548-.023-.312.313-.471.342-.753.086-.318.449-.106.622-.273.116-.059.016-.163.016-.25.15-.202.386-.198.567-.31.128-.199.296-.414.51-.533.46.014.471-.622.899-.638-.591-.446-1.156-1.051-1.68-1.563zm6.561.248c.147.433.018 1.072.109 1.573l.553.182c.157-.264.506-.319.66-.566.096-.083.211 0 .29.092.022.204-.035.408-.095.606-.201.409-.688.466-.961.759.175.103.273-.084.419-.122.211.022.376.206.505.343.137.06.267-.022.387-.069.085-.63.872-.54 1.107-1.133l-.143.055c-.062-.085-.211-.048-.205-.186.129-.122.296-.313.456-.363-.684-.425-1.386-.791-2.16-.988-.308-.07-.627-.075-.922-.183zm-4.086 1.59h.171c.183.179.478.145.613.381.068.137-.125.123-.118.24.038.028.09.035.118.093.146.053.115-.085.17-.147.186-.192.217.185.402.185.134-.085.316-.095.407.055.121-.109.378-.006.416-.208.234-.249.104-.635.455-.796.121.071-.008.183.037.292.234.1.502-.199.687.038-.17-.499-.125-1.11-.108-1.657-1.224.152-2.352.569-3.25 1.524zm3.684 1.261c-.122-.138-.384-.056-.543 0 .153.151.091.423.184.614-.229.379-.605.462-.963.57-.101.119-.08.387-.314.363-.075.166-.334.261-.232.509-.123.259-.062.592-.132.873-.452.284-.323-.372-.55-.507l-.077.129c-.092.023-.149-.032-.213-.092-.068-.023-.18-.046-.241.017-.099.168-.25.304-.209.53-.048.137-.273.093-.246.236.25-.008.525-.054.766-.105.174.046.318-.084.499-.091.059.029.133.091.108.183h.057c.12-.092.178-.229.12-.366.018-.158.194-.158.295-.203.103.042.042.141.055.215.342.129-.082.381-.128.562-.09.144 0 .471-.287.425-.058-.016-.089-.067-.078-.133h-.033c-.011.125.081.292.203.346.211-.176.222-.474.523-.513.162-.167-.068-.425.166-.561.398-.007.821-.174 1.132.143-.023.139-.079.2.038.311-.077.177-.131.365-.272.513.037.099.006.222-.075.288-.111.463-.64.245-.954.403.482.363 1.055.5 1.677.456.324-.016.184-.419.354-.6.108-.531.589-.168.888-.313.115-.224.226-.448.255-.706-.187-.122-.262-.351-.203-.569-.129-.171-.112-.495-.394-.523-.045-.062-.006-.137.03-.183-.007-.167.161-.22.206-.352-.172-.113-.13-.361-.113-.508-.295.083-.326-.298-.542-.385-.058-.18-.25-.206-.404-.241-.364.18-.423-.272-.696-.378-.029-.083-.089-.205 0-.273.135-.115.319-.019.479-.023l-.136-.061zm-6.6 1.871c-.614.2.101.665-.051 1.045-.085.219-.309.016-.47.108l-.06.397c-.091.239-.387.065-.524.225-.098.153.012.314.09.434-.212.482.477.636.472 1.075.211.274-.03.672.271.916.067.492-.066 1.161.364 1.545l.075.473c.092.329-.388.244-.326.529.091-.043.114.078.118.109v-.016c.585-.68 1.26-1.393 1.956-1.993l-.286-.289c-.545-.805-.972-1.663-1.175-2.607l-.219-.112c-.007.245-.12.437-.106.678l-.076.091c-.158-.009-.26-.137-.392-.222-.032-.082-.117-.218.016-.289.072-.003.125.018.181.056.067-.083.039-.206.076-.313.022-.184-.139-.349-.024-.505.145-.022.251.155.313.251.144.048.257-.071.374-.127 0-.124.184-.302-.012-.379.105-.293.03-.608-.019-.897-.081-.25-.358-.205-.566-.183zm14.224.262c-.061.028-.141.005-.219.014.065-.03.148-.014.219-.014zm-.47.743l.235.237c.235.16.076.501.329.639.294.154.397.497.531.754.046-.069.046-.156.067-.223.103-.416.088-.887.218-1.299-.457.022-.981.068-1.38-.108zm5.2.107l-.138-.09.082.205c-.126 2.528-.968 4.764-2.408 6.746-.283.331-.547.741-.899.976.579.46 1.215 1.142 1.697 1.665l.06-.113c2.324-2.647 3.644-5.719 3.787-9.274l.092-.183-.115.051-2.158.017zm-3.052-.052c.047.465-.078.912-.11 1.366l.256.273c.068.107.046.266-.053.35-.113.067-.246.06-.354-.023-.319 1.02-.693 2.02-1.326 2.902-.254.318-.496.762-.823.929l.694.605c.036-.037.013-.1.02-.152 0-.09.047-.198.159-.185.336-.004.342.35.535.533-.039.29.208.517.125.785 1.921-2.026 2.87-4.5 3.047-7.242l.104-.121c-.68.066-1.401.021-2.104.027l-.17-.047zm-17.725.022l.112.183c.016.501.217.98.107 1.487.087-.143.11-.341.296-.43.021-.137-.187-.174-.16-.311.144-.286.003-.739.377-.86-.262.047-.504.101-.732-.069zm-3.657.03l-.208.078-2.111-.016c.122 2.43.767 4.641 1.858 6.67.539 1.002 1.33 1.904 2.023 2.842l1.509-1.568.183-.074c-.259-.182-.488-.479-.707-.727-.249-.069-.505-.247-.632-.486-.081-.087-.011-.242-.094-.302l-.091.116c-.265.129-.363-.148-.546-.257-.241-.127-.126-.577-.444-.494-.123-.007-.162-.146-.236-.218-.297.029-.37-.3-.531-.457-.029.065 0 .155-.091.201-.302.072-.41-.3-.61-.452-.059.022-.095.082-.171.066-.183-.16-.302-.385-.31-.638-.25-.28-.139-.729-.09-1.07.045-.092.174-.142.148-.256.069-.161.236-.174.395-.183.063.028.122.091.152.143.099-.063.319.011.234-.21.129-.113.319-.151.494-.182.122.152.182.326.343.47l-.108-.168c-.184-.746-.328-1.504-.361-2.308.006-.047-.099-.066-.043-.112l.018.022c.01-.172-.006-.315.027-.43zm2.967 0l-.167.078c-.703-.016-1.442.042-2.114-.056l.092.13.165 1.396c.071.54.307 1.057.292 1.589.086-.117.031-.343.236-.366-.081-.167.159-.309.024-.457.068-.368.111-.738.434-1.003.385-.016.413-.525.801-.548.196-.008.321.257.401.352-.24-.293-.227-.783-.164-1.115zm3.905.937c.216.391.329.84.548 1.235.137.353.446.623.578.966.146-.273.434-.496.633-.745.018-.114-.005-.215-.064-.299-.069-.157-.01-.383-.128-.521-.196.067.067.268-.015.378-.088.056-.175-.013-.182-.091-.177-.027-.311-.18-.365-.337.145-.092-.035-.129-.077-.206-.074-.041-.08-.032-.143.037-.035 0-.082.009-.116-.015-.004-.434-.484-.173-.669-.402zm2.383.598c-.046.186-.172.354-.309.491l.019.015c.186-.129.311-.363.547-.379l-.257-.127zm6.003.62c.007.117.021.27.119.37.299-.047.168.361.446.326.152-.047.008-.174.055-.276-.046-.226-.268-.248-.425-.386-.015-.05.021-.085.041-.122-.116-.061-.17.005-.236.088zm4.304.017c-.222-.018-.486.114-.675-.037-.068-.063-.115.027-.105.088-.077.118-.155.264-.333.208-.138-.062-.138-.208-.186-.313.01.083-.02.16-.034.237-.16.169-.212.329-.329.511-.158.172-.413.111-.581.253-.031.367-.431.292-.661.403-.014.047.035.057.061.092.105.03.25.03.329-.075.314.083.247-.317.428-.454.16-.024.313-.157.479-.055.166.206.204.503.179.77-.179.182-.084.475-.219.688.028.25-.273.369-.231.618-.098.11-.267.13-.421.13-.595-.229-1.222-.378-1.897-.435-.059.022-.097.076-.091.142.272.146.613.156.898.276.261.07.436.389.762.29.269-.152.728.09.905-.202-.027-.283.218-.483.336-.725l.089-.023c.154.157.145.391.215.568.218-.229.38-.476.574-.713.499-.732.927-1.51 1.107-2.347-.206.005-.411.044-.599.105zm-9.571 0c-.335.534-.954 1.018-1.41 1.51.813.671 1.723 1.089 2.735 1.26.052-.201-.033-.46.076-.634.074-.166.282-.159.433-.132.091-.006.143-.119.091-.196-.22-.043-.125-.291-.196-.425.006-.082.132-.063.104-.16-.151-.122.074-.256-.056-.388.056-.036.091-.121.168-.121-.481.253-.992-.052-1.417-.243-.194-.11-.484-.224-.528-.471zm4.409 1.329c-.025.061-.103.167 0 .202.184-.188.57-.182.586-.455-.268-.034-.402.11-.586.253zm.858.574c-.236 0-.355.182-.534.325-.213.123-.316-.229-.492-.143.005.038.047.053.076.067.046.056.062.164 0 .218-.256.234-.378-.111-.619-.088v.088c.008.056-.015.139-.092.111-.151-.252-.463-.163-.615-.381-.095-.056-.187.014-.251.076-.064.111-.307-.019-.249.181-.188.067-.207.274-.348.394-.233-.038-.34.229-.562.223.026.047 0 .118.074.13.135.061.271.074.434.052.233-.363.612-.063.932-.199.199.038.059.253.206.33.312-.1.546.266.796.034-.017-.357.387-.326.608-.422.34-.201.729-.474.688-.927l-.052-.069zm-7.326.211c-.452.547-.983 1.118-1.516 1.549.235.016.364.273.567.387 1.135.95 2.552 1.406 3.879 1.729l-.363-.161c-.272-.313-.661-.677-.676-1.109.272-.093.245-.396.335-.602.225-.246.499-.374.795-.442-.761.319-1.438-.25-2.075-.547-.328-.242-.75-.439-.946-.804zm10.546 2.12l-.054-.147c-.066.183-.203.295-.341.437.009.118-.033.301.106.384.307.102.707.296.774.649-.124.334-.765.646-.364 1.006.126.183-.188.249-.134.399l.113-.144c.45-.357.947-.688 1.347-1.133h.054c-.093-.028-.204.062-.31.017-.217-.1-.252-.291-.252-.51l-.939-.958zm-12.215.291l-.03-.058.03.094v-.036zm.242.326c-.101-.065-.162-.124-.185-.239l.185.239zm.055.057c.043.184.286.297.22.523-.129.203-.397.209-.607.203-.431-.067-.751.256-1.158.306-.374.114-.502-.343-.841-.306 2.104 1.85 4.517 3.002 7.347 3.152l.213.147-.088-.26v-2.004l-.187.077c-1.848-.092-3.462-.765-4.899-1.838zm14.037 1.423l-.038-.183c-.207.418-.679.682-1.036 1.002-.496.497-1.303.603-1.553 1.312-.266.245-.357.624-.729.766-.135.36-.521.336-.74.604-.64.571-1.052-.363-1.626-.478l-1.162.205c-.403 0-.806.145-1.19.015.051.776.051 1.608 0 2.387l.142-.09c3.668-.164 6.826-1.552 9.536-4.013l-1.604-1.527zm-16.865-.023l-.023.09-1.561 1.572c2.371 2.051 5.047 3.374 8.099 3.793.484.085 1.037.039 1.506.182l-.108-.182v-2.06l.075-.114-.238.062c-2.961-.208-5.582-1.258-7.75-3.343zm8.675.529l.116.168c0 .627.076 1.262 0 1.881.564-.194 1.218-.162 1.823-.266-.121-.046-.242-.073-.332-.193-.355-.023-.524-.396-.637-.68-.052-.2.087-.369.167-.549-.151-.309-.62-.082-.902-.194-.073-.06-.127-.151-.235-.167zM36.751.494c1.122.999 1.62 2.287 1.944 3.626l.185.422c-1.625-1.162-3.089-2.726-4.118-4.373l-1.261-1.277c1.105.467 2.304.753 3.25 1.602zM8.502 2.477c-.742.919-1.689 1.528-2.53 2.315.452-.942.471-2.061 1.117-2.932.916-1.601 2.621-2.165 4.133-2.755-1.113.979-1.889 2.217-2.72 3.372zM40.707 4.157c.357 1.59-.161 3.151.167 4.762l-.017.016c-.872-1.712-2.711-2.515-3.987-3.884-.733-.812-1.053-1.801-1.233-2.848.724 1.754 2.688 2.145 3.813 3.616.375.341.496.812.741 1.201l.039-.037c-.646-1.38-.864-2.939-1.315-4.414-.227-.638-.675-1.268-1.273-1.675 1.474.309 2.754 1.849 3.065 3.263zM7.122 1.17c-1.505 1.033-1.397 2.886-1.885 4.432-.152.568-.415 1.09-.545 1.677l.038.028c.254-.662.689-1.284 1.241-1.824 1.07-.984 2.654-1.6 3.176-3.061-.024 2.032-1.721 3.624-3.338 4.766-.67.581-1.317 1.25-1.678 2.002-.04-.505.075-1.025.037-1.572-.172-1.766-.301-3.792.951-5.104.542-.674 1.233-1.146 2.003-1.344zM41.655 4.504c1.34 1.824 1.636 4.726.658 6.818-.364.887-.621 1.832-.766 2.81-.066-.169-.084-.395-.141-.584-.532-2.044-2.475-3.506-3.266-5.436-.251-.628-.461-1.286-.59-1.965.852 1.572 2.947 2.387 3.524 4.115.231.441.216.988.359 1.461.032 0 .063-.023.063-.054-.255-1.783-.176-3.654.064-5.42-.013-.956-.106-1.882-.635-2.617.343.194.493.578.73.872zM3.909 3.933c-1.149 1.759-.192 3.966-.248 5.969l-.153 2.041c.025.017.025.074.081.051.063-.225.08-.469.128-.704.27-1.653 1.696-2.819 2.953-3.959.266-.294.503-.6.635-.95-.095.824-.355 1.647-.696 2.41-.968 1.898-2.771 3.459-3.101 5.631-.157-2.088-1.578-3.642-1.435-5.852-.047-1.795.7-3.261 1.746-4.596.033-.018.055-.049.09-.041zM42.913 16.332c-.8 1.137-1.758 2.188-2.502 3.34.084-.908.197-2.034-.166-2.9-.614-1.861-1.15-3.753-1.328-5.795l.02-.781c.464 2.085 2.518 3.521 2.391 5.865.047.569-.129 1.047-.233 1.547l.035.036.091-.108c.306-1.143.459-2.355.926-3.426.677-1.542 1.52-3.099 1.167-4.961 1.028 2.2.721 5.134-.401 7.183zM3.327 15.604c.22.768.274 1.595.582 2.315.032.015.057-.013.078-.036-.782-2.187.34-4.219 1.47-5.925.282-.461.44-.982.578-1.513.117.989-.128 2.125-.273 3.152-.279 1.308-.691 2.55-1.046 3.816-.236.79-.175 1.687-.056 2.511l-.113-.09c-.826-1.526-2.466-2.717-2.953-4.391-.404-1.326-.666-2.872-.394-4.321.126-.56.231-1.137.472-1.657-.467 2.37 1.134 4.083 1.655 6.139zM39.774 19.923c-.051 1.028-.385 1.941-.922 2.757h.084c.731-.954 1.301-1.97 2.158-2.887 1.316-1.273 2.667-2.577 2.838-4.352.451 2.952-1.213 5.548-3.663 7.219-1.011.66-2.035 1.275-3.013 2.03v-.09c1.493-2.479.765-5.873 1.679-8.592l.344-.913c-.185 1.693.547 3.127.495 4.828zM7.152 23.285c.16.561.487 1.062.696 1.603-2.259-1.542-5.347-3.011-6.347-5.835-.424-.978-.47-2.183-.378-3.298.179 2.511 2.884 3.844 4.14 5.925.293.424.557.896.952 1.254-.065-.269-.311-.5-.406-.771-.441-.875-.604-1.911-.494-2.974.118-1.281.663-2.476.459-3.826 1.103 2.382.768 5.347 1.378 7.922zM36.403 25.16c-.386.677-.941 1.327-1.547 1.861.199-.011.37-.184.548-.298 1.626-1.626 3.756-2.078 5.521-3.403.706-.562 1.353-1.3 1.662-2.098-.332 2.701-3.02 5.229-5.547 6.035-1.305.35-2.705.464-3.97.896 2.148-1.846 2.03-4.705 3.463-6.879.454-.611.833-1.255 1.37-1.842-.878 1.756-.499 4.026-1.5 5.728zM9.277 22.882c.752 1.868 1.045 3.979 2.802 5.393-1.901-.62-4.131-.446-5.798-1.617-1.832-1.123-3.46-3.033-3.809-5.127 1.263 2.856 4.425 3.088 6.544 4.828.387.342.796.639 1.236.843l.023-.022c-.482-.441-1.048-.941-1.384-1.513-1.242-1.722-.815-4.136-1.74-5.992.844 1.011 1.618 2.061 2.126 3.207zM31.81 28.441c-.471.308-1.054.36-1.533.589.683.012 1.306-.228 1.985-.298 2.508-.396 5.379.012 7.133-2.123-.651 1.488-2.285 2.73-3.774 3.253-2.561.966-5.137-.214-7.59-.609l-.47-.063v-.019c1.167-.262 2.31-.614 3.239-1.457 1.383-1.321 2.599-2.68 4.132-3.723-1.134 1.448-1.255 3.519-3.122 4.45zM14.234 27.751c.974.849 2.14 1.248 3.374 1.499-.293.104-.685.071-1.004.157-2.209.544-4.67 1.435-7.019.637-1.529-.479-3.098-1.689-3.859-3.189 2.013 2.302 5.314 1.534 8.013 2.134.379.051.733.205 1.135.144-.316-.202-.772-.18-1.119-.365-2.111-.745-2.426-3.034-3.57-4.575 1.472.97 2.699 2.289 4.049 3.558zM30.737 30.864c1.642.604 3.765.44 5.174-.562-.723.906-1.712 1.55-2.74 1.914-2.28.853-4.658-.035-6.43-1.389-.723-.453-1.363-1.116-2.297-1.056-.332-.01-.656.009-.945.088 1.726.81 3.331 1.918 4.804 3.339-.25.28-.573.547-.872.789-1.413-1.53-2.987-2.994-4.742-3.853-.341.049-.667.249-.98.419-1.422.903-2.841 2.066-3.9 3.486l-.917-.748c1.461-1.476 3.066-2.622 4.833-3.443-1.73-.548-2.862.904-4.173 1.639-1.538 1.072-3.743 1.576-5.589.837-1.004-.379-1.965-.935-2.684-1.839 1.456 1.003 3.629 1.108 5.287.457 2.223-.968 4.535-2.188 7.218-1.605.416.011.824.425 1.22.069 1.991-.513 4.25-.156 5.968.753l1.765.705z"/></g><g fill="#0071BC"><path d="M79.647 110.145c-5.337 0-8.602-2.981-8.602-8.83v-11.355h4.372v11.242c0 3.235 1.618 4.911 4.287 4.911s4.286-1.618 4.286-4.77v-11.383h4.372v11.213c0 6.018-3.379 8.972-8.715 8.972zM100.573 109.832v-8.488c0-2.044-.965-3.095-2.61-3.095-1.647 0-2.697 1.051-2.697 3.095v8.488h-4.316v-15.216h4.315v2.157c.994-1.277 2.271-2.441 4.457-2.441 3.264 0 5.166 2.158 5.166 5.648v9.852h-4.315zM107.304 92.941v-3.834h4.542v3.834h-4.542zm.115 16.891v-15.216h4.314v15.216h-4.314zM119.514 110.087c-2.64 0-4.429-1.051-4.429-4.571v-7.209h-1.817v-3.69h1.817v-3.89h4.314v3.89h3.577v3.69h-3.577v6.5c0 .993.427 1.477 1.392 1.477.795 0 1.505-.199 2.129-.54v3.463c-.909.54-1.959.88-3.406.88zM138.449 103.729h-10.588c.425 1.959 1.789 2.98 3.719 2.98 1.447 0 2.498-.454 3.69-1.561l2.47 2.185c-1.42 1.76-3.463 2.839-6.217 2.839-4.571 0-7.949-3.208-7.949-7.863v-.058c0-4.343 3.094-7.92 7.522-7.92 5.082 0 7.409 3.946 7.409 8.261v.057c.002.426-.027.682-.056 1.08zm-7.352-5.934c-1.789 0-2.952 1.277-3.292 3.236h6.5c-.255-1.929-1.391-3.236-3.208-3.236zM151.287 109.832v-2.186c-1.052 1.418-2.5 2.47-4.742 2.47-3.549 0-6.926-2.783-6.926-7.864v-.057c0-5.082 3.32-7.863 6.926-7.863 2.299 0 3.72 1.05 4.742 2.271v-7.496h4.312v20.724l-4.312.001zm.054-7.637c0-2.526-1.676-4.201-3.689-4.201-2.016 0-3.72 1.646-3.72 4.201v.057c0 2.527 1.704 4.202 3.72 4.202s3.689-1.675 3.689-4.202v-.057zM179.537 109.832l-9.625-12.632v12.632h-4.312v-19.872h4.029l9.312 12.235v-12.235h4.315v19.872h-3.719zM195.07 109.832v-1.646c-1.051 1.164-2.499 1.932-4.599 1.932-2.867 0-5.224-1.646-5.224-4.656v-.057c0-3.321 2.525-4.854 6.131-4.854 1.533 0 2.641.255 3.72.625v-.256c0-1.788-1.106-2.782-3.267-2.782-1.646 0-2.81.312-4.199.823l-1.079-3.293c1.675-.737 3.321-1.222 5.903-1.222 4.713 0 6.785 2.443 6.785 6.559v8.828h-4.171zm.085-6.132c-.737-.341-1.702-.568-2.754-.568-1.845 0-2.979.738-2.979 2.101v.058c0 1.164.966 1.845 2.354 1.845 2.017 0 3.379-1.107 3.379-2.668v-.768zM206.542 110.087c-2.642 0-4.43-1.051-4.43-4.571v-7.209h-1.816v-3.69h1.816v-3.89h4.315v3.89h3.577v3.69h-3.577v6.5c0 .993.425 1.477 1.391 1.477.796 0 1.505-.199 2.13-.54v3.463c-.907.54-1.959.88-3.406.88zM211.852 92.941v-3.834h4.542v3.834h-4.542zm.112 16.891v-15.216h4.315v15.216h-4.315zM226.387 110.172c-4.712 0-8.204-3.492-8.204-7.863v-.058c0-4.372 3.521-7.92 8.261-7.92 4.714 0 8.204 3.492 8.204 7.862v.058c0 4.373-3.52 7.921-8.261 7.921zm4.004-7.92c0-2.243-1.618-4.201-4.004-4.201-2.47 0-3.945 1.902-3.945 4.145v.058c0 2.243 1.618 4.202 4.002 4.202 2.472 0 3.947-1.902 3.947-4.145v-.059zM245.98 109.832v-8.488c0-2.044-.965-3.095-2.611-3.095-1.646 0-2.697 1.051-2.697 3.095v8.488h-4.313v-15.216h4.313v2.157c.994-1.277 2.271-2.441 4.457-2.441 3.266 0 5.166 2.158 5.166 5.648v9.852h-4.315zM257.962 110.116c-2.129 0-4.514-.71-6.528-2.3l1.845-2.838c1.646 1.191 3.379 1.816 4.797 1.816 1.25 0 1.817-.454 1.817-1.135v-.057c0-.938-1.476-1.25-3.149-1.761-2.131-.625-4.543-1.618-4.543-4.569v-.058c0-3.094 2.498-4.825 5.563-4.825 1.931 0 4.03.652 5.678 1.76l-1.647 2.979c-1.504-.88-3.008-1.419-4.114-1.419-1.052 0-1.591.454-1.591 1.051v.057c0 .853 1.449 1.25 3.095 1.818 2.13.709 4.599 1.73 4.599 4.514v.057c-.001 3.377-2.529 4.91-5.822 4.91z"/></g><g fill="#0071BC"><path d="M49.205 27.084l2.289-2.742c1.585 1.307 3.245 2.137 5.258 2.137 1.585 0 2.541-.628 2.541-1.66v-.05c0-.981-.604-1.485-3.547-2.239-3.546-.905-5.836-1.888-5.836-5.382v-.053c0-3.194 2.566-5.307 6.164-5.307 2.566 0 4.755.805 6.541 2.239l-2.013 2.917c-1.56-1.082-3.094-1.736-4.579-1.736-1.484 0-2.264.681-2.264 1.535v.052c0 1.158.755 1.534 3.799 2.315 3.572.931 5.585 2.213 5.585 5.281v.053c0 3.496-2.667 5.459-6.464 5.459-2.67-.003-5.361-.932-7.474-2.819zM64.853 16.166h3.824v1.937c.931-1.258 2.214-2.188 4.201-2.188 3.145 0 6.138 2.464 6.138 6.969v.05c0 4.504-2.943 6.971-6.138 6.971-2.038 0-3.296-.932-4.201-2.014v5.787h-3.824v-17.512zm10.339 6.766v-.049c0-2.24-1.51-3.723-3.295-3.723-1.787 0-3.271 1.484-3.271 3.723v.049c0 2.241 1.484 3.725 3.271 3.725 1.785-.001 3.295-1.46 3.295-3.725zM79.921 22.982v-.052c0-3.848 2.742-7.017 6.667-7.017 4.503 0 6.566 3.497 6.566 7.321 0 .301-.025.652-.05 1.004h-9.384c.377 1.736 1.584 2.642 3.296 2.642 1.283 0 2.213-.402 3.27-1.384l2.189 1.938c-1.258 1.56-3.069 2.517-5.51 2.517-4.05 0-7.044-2.844-7.044-6.969zm9.51-1.13c-.227-1.711-1.232-2.869-2.843-2.869-1.584 0-2.617 1.133-2.917 2.869h5.76zM94.085 22.982v-.052c0-3.848 2.943-7.017 7.069-7.017 2.541 0 4.125.856 5.385 2.262l-2.34 2.516c-.857-.906-1.713-1.484-3.07-1.484-1.912 0-3.271 1.687-3.271 3.674v.049c0 2.064 1.333 3.725 3.421 3.725 1.283 0 2.164-.554 3.094-1.435l2.238 2.265c-1.308 1.435-2.816 2.465-5.51 2.465-4.047.001-7.016-3.119-7.016-6.968zM107.921 11.285h4.024v3.396h-4.024v-3.396zm.101 4.881h3.824v13.482h-3.824v-13.482zM113.38 25.775v-.054c0-2.942 2.236-4.301 5.433-4.301 1.358 0 2.34.228 3.295.554v-.227c0-1.586-.981-2.465-2.896-2.465-1.455 0-2.488.276-3.721.729l-.955-2.918c1.482-.652 2.943-1.082 5.233-1.082 2.086 0 3.599.554 4.552 1.511 1.008 1.004 1.461 2.49 1.461 4.301v7.824h-3.699v-1.459c-.93 1.03-2.211 1.711-4.074 1.711-2.541.001-4.629-1.458-4.629-4.124zm8.782-.88v-.679c-.658-.302-1.512-.503-2.443-.503-1.635 0-2.641.652-2.641 1.861v.052c0 1.03.855 1.633 2.09 1.633 1.787 0 2.994-.982 2.994-2.364zM127.996 11.285h3.825v18.364h-3.825v-18.364z"/></g><g fill="#3FA9F5"><path d="M132.171 11.3h13.963v3.592h-9.92v3.724h8.729v3.594h-8.729v3.855h10.05v3.592h-14.097l.004-18.357zM146.611 15.602h4.258l3.172 9.415 3.201-9.415h4.18l-5.582 14.162h-3.647l-5.582-14.162zM160.944 22.708v-.052c0-4.012 2.884-7.317 7.011-7.317 4.73 0 6.9 3.646 6.9 7.634 0 .314-.025.682-.053 1.049h-9.864c.396 1.807 1.664 2.752 3.464 2.752 1.35 0 2.328-.42 3.438-1.442l2.303 2.021c-1.323 1.625-3.227 2.622-5.792 2.622-4.26-.002-7.407-2.966-7.407-7.267zm9.997-1.181c-.236-1.783-1.295-2.987-2.986-2.987-1.668 0-2.75 1.177-3.067 2.987h6.053zM176.521 15.602h4.02v1.993c.926-1.18 2.117-2.255 4.152-2.255 3.042 0 4.812 1.993 4.812 5.22v9.101h-4.02v-7.84c0-1.889-.9-2.859-2.436-2.859-1.532 0-2.512.971-2.512 2.859v7.84h-4.02v-14.059h.004zM192.335 25.672v-6.662h-1.692v-3.407h1.692v-3.594h4.021v3.593h3.33v3.408h-3.33v6.006c0 .917.396 1.363 1.294 1.363.739 0 1.4-.184 1.98-.496v3.195c-.844.5-1.821.816-3.172.816-2.457.002-4.123-.971-4.123-4.222zM200.218 27.796l1.719-2.622c1.534 1.1 3.148 1.678 4.469 1.678 1.164 0 1.695-.419 1.695-1.048v-.053c0-.866-1.378-1.155-2.936-1.625-1.986-.578-4.233-1.496-4.233-4.224v-.052c0-2.859 2.325-4.457 5.185-4.457 1.799 0 3.756.603 5.289 1.625l-1.531 2.754c-1.403-.812-2.805-1.31-3.836-1.31-.979 0-1.481.419-1.481.968v.053c0 .787 1.351 1.154 2.883 1.678 1.981.656 4.284 1.602 4.284 4.17v.054c0 3.121-2.355 4.535-5.422 4.535-1.986 0-4.207-.655-6.085-2.124z"/></g><g fill="#00558D"><path d="M53.711 9.87c-2.253 0-3.63-1.258-3.63-3.726v-4.791h1.845v4.744c0 1.365.683 2.072 1.81 2.072 1.125 0 1.809-.683 1.809-2.013v-4.803h1.844v4.731c-.001 2.54-1.427 3.786-3.678 3.786zM62.568 9.738v-3.582c0-.862-.407-1.306-1.103-1.306-.694 0-1.138.443-1.138 1.306v3.582h-1.821v-6.422h1.821v.911c.419-.54.958-1.03 1.881-1.03 1.377 0 2.18.91 2.18 2.383v4.157h-1.82zM65.435 2.61v-1.617h1.917v1.617h-1.917zm.048 7.128v-6.422h1.821v6.421h-1.821zM70.61 9.846c-1.114 0-1.868-.443-1.868-1.929v-3.042h-.767v-1.559h.767v-1.64h1.821v1.641h1.509v1.558h-1.509v2.743c0 .42.18.624.587.624.336 0 .635-.084.898-.229v1.462c-.382.227-.826.371-1.438.371zM78.627 7.162h-4.468c.179.827.754 1.258 1.569 1.258.611 0 1.054-.191 1.557-.659l1.043.922c-.599.743-1.461 1.199-2.624 1.199-1.929 0-3.354-1.354-3.354-3.318v-.024c0-1.833 1.306-3.342 3.174-3.342 2.144 0 3.126 1.665 3.126 3.486v.024c.001.179-.011.286-.023.454zm-3.103-2.503c-.755 0-1.246.539-1.39 1.366h2.744c-.108-.816-.587-1.366-1.354-1.366zM84.069 9.738v-.923c-.442.599-1.054 1.042-2 1.042-1.497 0-2.923-1.175-2.923-3.318v-.023c0-2.145 1.402-3.318 2.923-3.318.971 0 1.57.443 2 .958v-3.163h1.82v8.745h-1.82zm.024-3.222c0-1.066-.707-1.773-1.557-1.773-.851 0-1.57.695-1.57 1.773v.024c0 1.066.719 1.772 1.57 1.772.85 0 1.557-.707 1.557-1.772v-.024zM96.042 9.738l-4.061-5.331v5.331h-1.821v-8.385h1.701l3.93 5.163v-5.163h1.821v8.385h-1.57zM102.623 9.738v-.695c-.443.491-1.055.815-1.94.815-1.21 0-2.205-.695-2.205-1.965v-.023c0-1.402 1.066-2.049 2.587-2.049.647 0 1.114.108 1.569.264v-.108c0-.755-.467-1.174-1.377-1.174-.695 0-1.187.132-1.773.348l-.455-1.39c.707-.311 1.401-.515 2.492-.515 1.989 0 2.863 1.031 2.863 2.768v3.725h-1.761zm.036-2.588c-.311-.144-.718-.24-1.163-.24-.778 0-1.257.312-1.257.887v.023c0 .491.407.779.994.779.852 0 1.426-.467 1.426-1.126v-.323zM107.491 9.846c-1.114 0-1.869-.443-1.869-1.929v-3.042h-.767v-1.559h.767v-1.64h1.821v1.641h1.509v1.558h-1.509v2.743c0 .42.179.624.586.624.335 0 .635-.084.899-.229v1.462c-.383.227-.826.371-1.437.371zM109.757 2.61v-1.617h1.916v1.617h-1.916zm.048 7.128v-6.422h1.821v6.421h-1.821zM115.916 9.882c-1.989 0-3.462-1.473-3.462-3.318v-.024c0-1.845 1.485-3.342 3.485-3.342 1.989 0 3.462 1.473 3.462 3.318v.024c.001 1.844-1.485 3.342-3.485 3.342zm1.688-3.342c0-.947-.682-1.773-1.688-1.773-1.042 0-1.665.802-1.665 1.749v.024c0 .946.683 1.772 1.688 1.772 1.042 0 1.665-.802 1.665-1.749v-.023zM124.209 9.738v-3.582c0-.862-.407-1.306-1.102-1.306s-1.138.443-1.138 1.306v3.582h-1.821v-6.422h1.821v.911c.419-.54.958-1.03 1.881-1.03 1.378 0 2.18.91 2.18 2.383v4.157h-1.821zM129.292 9.858c-.898 0-1.904-.3-2.755-.971l.778-1.198c.695.503 1.425.767 2.024.767.527 0 .767-.191.767-.479v-.024c0-.395-.623-.527-1.33-.742-.898-.264-1.917-.684-1.917-1.929v-.024c0-1.306 1.054-2.037 2.348-2.037.814 0 1.701.276 2.396.743l-.695 1.257c-.635-.372-1.27-.599-1.737-.599-.443 0-.671.192-.671.444v.024c0 .359.611.527 1.306.767.898.299 1.94.731 1.94 1.905v.024c.002 1.425-1.065 2.072-2.454 2.072z"/></g><g fill="#14527E"><path d="M41.045-54.355c1.797 3.466 2.309 8.234 1.136 12.147-1.182 4.626-5.061 9.298-9.598 11.2-5.092 2.496-12.331 1.872-16.877-1.385-6.318-4.325-8.9-11.784-6.994-19.141 1.162-4.376 4.648-8.79 8.902-10.819 2.397-1.179 5.007-1.813 7.861-1.866 6.513.008 12.731 3.836 15.57 9.864zm-15.231-9.018c.105.68.08 1.614.026 2.383 0-.077.038-.147.081-.208.122-.069.229.033.284.123.01.121.057.33-.048.396.105.017.157-.059.252-.059 1.975.144 3.813.726 5.448 1.656v-.043c.337-.163.768-.377 1.118-.082.415-.156.495.355.831.413.403.245.859.692.911 1.168.082.155.321.264.353.43.279-.583.829-.999 1.311-1.508l.295-.123c-2.612-2.487-5.715-3.863-9.169-4.336-.549-.097-1.158-.044-1.693-.21zm-.961.089c-3.476.137-6.557 1.319-9.3 3.292-.523.358-.99.912-1.524 1.219h.077c.683.506 1.329 1.222 1.904 1.85l.044-.128c2.524-2.296 5.461-3.559 8.834-3.715l-.082-.204-.024-2.071.071-.243zm2.964 1.303l-1.242.534c-.105-.043-.304-.093-.371.046-.055.04 0 .104.018.146.457.584 1.247.258 1.816.144.414.175.81-.032 1.121-.29v-.062c-.29-.412-.843-.474-1.342-.518zm-2.019 2.133l.089.165c-.018.804.034 1.66-.047 2.411.336-.113.67.024.999.035 1.694.276 3.29.822 4.649 1.863-.165-.174-.364-.372-.401-.62.03-.037.062-.047.107-.037.012-.266-.272-.403-.312-.646.04-.049.103-.102.19-.075.292.275.542.577.76.89.186-.077.346.041.481.143.251.148.097.472.282.64.036.509.662.796.628 1.306.011.123.157.023.211.083l.513.637c-.095.121-.018.271.085.356.231.104.362-.19.597-.148.333.191-.052.411-.021.622.131.007.292-.102.396.026.045.194-.154.313-.229.432 0 .188.149.147.288.188.156-.006.256.185.208.311.431.45-.129.938.079 1.41.134.311-.03.613-.222.843.007.382-.336.621-.476.938l-.442.083c-.233.233.202.52-.028.666l.961.018-.102-.103c-.142-.382-.106-.891.132-1.226.148-.314.179-.687.453-.951.059-.018.175-.131.221 0 .021.292-.004.628-.144.891.28.397.242.916.266 1.406.863-.052 1.698-.071 2.533-.06l-.076-.167c-.129-1.6-.46-3.109-1.121-4.472-.179.008-.31.155-.513.103-.072-.027-.116-.095-.109-.179-.343-.327-.559-.757-.954-1.047-.44.04-.641-.469-1.035-.518-.354-.149-.112-.72-.622-.567-.253-.104-.493-.29-.542-.577 0-.45-.087-.935-.489-1.228-.312-.111-.45.301-.764.23-.168-.084-.087-.311-.14-.459-.059-.124-.208-.218-.179-.389.405-.539-.495-.534-.294-1.055-.051-.382-.439-.527-.634-.827-1.339-.609-2.684-1.022-4.194-1.204-.364-.045-.711.033-1.038-.141zm7.824.02c-.181.173-.337-.155-.498.043-.008.093.008.177.06.247.362.13.402.658.871.535.137-.155-.084-.32-.041-.519-.064-.179-.216-.254-.392-.306zm-15.508 2.321c-.536.375-1.022.856-1.579 1.188.636.406 1.165 1.08 1.743 1.612l.057.165c1.476-1.407 3.259-2.227 5.187-2.624.457-.048.914-.2 1.367-.105-.037-.818-.106-1.676-.019-2.485-2.509.141-4.748.902-6.756 2.249zm19.198-.784c-.471.636-1.122 1.233-1.723 1.851l-.292.057c.185.042.231.259.352.388.638.336.804 1.013 1.354 1.391.31.647 1.024 1.15 1.051 1.897.754 1.655 1.27 3.411 1.317 5.363l-.078.104c.085 0 .157-.037.21-.077l2.492-.043c-.168-.241-.101-.594-.142-.89-.328-3.851-1.968-7.141-4.541-10.041zm-23.756.059c-2.465 2.738-3.982 5.864-4.427 9.432-.093.523-.041 1.056-.14 1.584.87-.071 1.809-.071 2.67 0l-.061-.335c.167-2.756 1.046-5.211 2.594-7.406.391-.439.674-.993 1.157-1.321-.558-.529-1.146-1.144-1.735-1.719l-.058-.235zm11.356 1.808l-.146.081c-2.194.158-4.097 1.072-5.765 2.447.662.46 1.25 1.194 1.84 1.717.049-.062.091-.121.134-.19.815-.586 1.663-1.119 2.636-1.369.432-.036.851-.247 1.3-.14-.094-.812-.094-1.711.001-2.546zm.902.014l.092.188-.019 2.344.234-.043c1.429.197 2.736.659 3.872 1.581l.061.178c.389-.539.978-1.006 1.434-1.526l.428-.25-.208-.087c-.944-.793-1.982-1.4-3.108-1.796-.872-.311-1.83-.44-2.786-.589zm-9.907.648l-.019.162-.931 1.188c-1.522 2.1-2.256 4.529-2.471 7.169l2.364-.042.23.085c-.095-.061-.068-.164-.104-.251.191-2.46 1.054-4.655 2.759-6.487-.658-.571-1.266-1.173-1.828-1.824zm16.529 2.402l-.043.106c-.795.822-1.667 1.682-2.424 2.53.053.101.137.194.234.249.038-.208.146-.388.164-.603.209-.286.518-.103.785-.045.415-.096.799.094 1.225.088.31.153.34.547.629.707.071.115.014.241-.088.324.088.649.395-.168.723-.014.139.054.31.034.414.177.052.27.379.217.397.476-.029.13-.166.167-.247.234.072.259-.272.425-.151.7.5.094.515-.487.752-.747-.132-.447-.227-.904-.486-1.301-.285-.063-.452-.394-.745-.458-.547-.217.091-.561.021-.889-.29-.55-.756-1.04-1.16-1.534zm-14.057.089c-1.19 1.427-2.001 3-2.326 4.788-.096.414-.044.892-.205 1.284.303-.138.743-.085 1.081-.043-.195-.103-.032-.354-.146-.491-.026-.218-.061-.483.146-.623-.026-.355.356-.535.389-.856.098-.362.51-.12.707-.311.132-.067.018-.185.018-.284.17-.23.439-.225.645-.352.146-.227.337-.47.58-.605.523.016.536-.707 1.022-.726-.672-.51-1.314-1.198-1.911-1.781zm7.462.283c.168.493.021 1.219.124 1.789l.629.207c.178-.3.575-.363.75-.644.109-.095.241 0 .33.104.025.231-.04.464-.108.689-.229.465-.782.53-1.093.864.199.116.311-.096.477-.139.24.025.428.234.575.39.155.068.304-.025.44-.079.097-.716.991-.614 1.259-1.289l-.163.064c-.07-.097-.24-.055-.232-.211.146-.138.337-.356.519-.413-.777-.483-1.576-.899-2.457-1.123-.351-.08-.714-.087-1.05-.209zm-4.647 1.808h.194c.208.204.543.164.698.434.077.155-.143.14-.135.272.043.032.103.04.135.106.165.061.13-.097.193-.168.211-.218.247.21.458.21.153-.097.359-.108.463.062.137-.124.43-.007.473-.236.266-.283.118-.723.518-.906.138.081-.01.208.042.332.267.114.571-.227.781.043-.194-.567-.142-1.262-.123-1.884-1.392.175-2.675.649-3.697 1.735zm4.19 1.434c-.138-.156-.437-.063-.618 0 .174.172.104.481.209.698-.26.432-.688.526-1.096.648-.115.136-.091.44-.357.413-.085.189-.38.297-.264.579-.14.294-.07.673-.15.993-.514.322-.367-.423-.626-.577l-.087.147c-.104.026-.17-.037-.242-.104-.077-.026-.205-.052-.274.019-.112.191-.284.346-.238.603-.055.156-.311.106-.28.269.285-.01.597-.062.871-.12.198.052.362-.096.567-.103.066.033.151.103.123.208h.064c.137-.104.203-.26.137-.417.02-.179.22-.179.336-.23.117.048.047.161.063.245.389.147-.093.434-.146.64-.102.164 0 .536-.326.483-.065-.018-.101-.077-.089-.151h-.037c-.013.142.091.332.23.393.24-.201.252-.539.595-.583.184-.19-.078-.484.188-.638.453-.008.934-.198 1.288.163-.027.158-.09.228.042.354-.088.201-.149.415-.31.583.042.113.007.252-.085.328-.123.527-.725.28-1.082.459.548.413 1.2.568 1.907.519.368-.019.209-.477.403-.682.123-.604.67-.191 1.01-.356.13-.254.256-.509.29-.802-.212-.139-.298-.399-.231-.647-.147-.195-.127-.562-.448-.595-.051-.071-.007-.156.034-.208-.008-.189.183-.25.233-.4-.195-.128-.148-.411-.128-.577-.336.094-.371-.339-.617-.438-.066-.204-.285-.233-.459-.274-.415.204-.481-.31-.792-.43-.033-.095-.101-.232 0-.311.153-.13.363-.021.545-.026l-.153-.075zm-7.506 2.129c-.698.228.115.756-.058 1.188-.097.25-.352.018-.534.124l-.068.452c-.103.271-.44.074-.596.255-.111.174.014.357.102.494-.242.548.542.723.537 1.223.24.312-.035.764.309 1.041.076.56-.075 1.321.414 1.758l.086.538c.104.374-.442.277-.371.602.104-.049.129.089.134.125v-.018c.666-.773 1.434-1.584 2.224-2.266l-.325-.329c-.62-.916-1.105-1.891-1.336-2.965l-.249-.127c-.008.279-.137.497-.121.771l-.086.103c-.18-.01-.296-.155-.446-.252-.037-.093-.132-.248.018-.329.082-.003.143.021.206.063.076-.094.044-.233.086-.356.025-.208-.158-.396-.027-.574.165-.025.286.177.356.286.164.055.292-.081.425-.145 0-.141.209-.343-.013-.431.12-.334.035-.692-.021-1.021-.094-.288-.41-.236-.646-.21zm16.177.297c-.069.032-.161.006-.249.016.073-.033.168-.016.249-.016zm-.535.845l.267.27c.268.182.086.569.374.726.335.175.452.565.604.857.052-.079.052-.177.077-.253.116-.472.101-1.008.248-1.478-.521.025-1.116.078-1.57-.122zm5.914.121l-.157-.102.093.232c-.144 2.875-1.101 5.417-2.739 7.672-.322.376-.622.843-1.023 1.109.659.523 1.382 1.298 1.93 1.894l.068-.129c2.643-3.011 4.144-6.504 4.307-10.547l.104-.208-.13.058-2.453.021zm-3.471-.058c.053.528-.089 1.037-.125 1.554l.291.311c.077.122.052.302-.061.398-.128.077-.28.068-.402-.027-.363 1.16-.789 2.297-1.508 3.3-.289.362-.563.866-.936 1.056l.789.688c.041-.042.015-.113.022-.173 0-.103.054-.226.181-.21.382-.004.389.397.608.606-.044.33.236.587.143.893 2.185-2.304 3.264-5.117 3.466-8.235l.118-.138c-.773.075-1.594.024-2.393.031l-.193-.054zm-20.158.025l.127.208c.018.57.247 1.115.123 1.691.099-.163.125-.388.337-.489.024-.155-.212-.198-.182-.354.164-.325.003-.841.429-.979-.3.055-.575.116-.834-.077zm-4.159.033l-.236.088-2.4-.019c.138 2.764.873 5.278 2.114 7.586.612 1.14 1.512 2.166 2.301 3.232l1.716-1.784.208-.084c-.295-.207-.555-.544-.804-.827-.283-.079-.574-.281-.719-.553-.092-.099-.013-.275-.106-.343l-.103.132c-.302.147-.414-.168-.621-.292-.274-.144-.143-.656-.505-.562-.139-.008-.184-.167-.268-.248-.338.033-.42-.341-.604-.52-.034.074 0 .176-.104.229-.343.082-.466-.341-.693-.514-.067.025-.108.093-.194.076-.208-.182-.343-.438-.353-.726-.284-.318-.158-.828-.102-1.217.051-.105.198-.162.169-.291.078-.184.269-.198.449-.208.072.032.139.104.173.163.112-.072.363.012.266-.239.147-.128.363-.172.562-.207.139.173.207.371.391.535l-.124-.191c-.208-.849-.373-1.71-.411-2.625.007-.053-.113-.075-.049-.127l.021.025c.006-.196-.012-.357.026-.489zm3.375 0l-.19.088c-.8-.019-1.64.048-2.404-.063l.104.148.188 1.588c.081.614.349 1.202.333 1.808.098-.133.036-.39.268-.416-.091-.19.181-.352.027-.52.077-.418.126-.84.493-1.141.438-.019.47-.598.911-.624.223-.01.365.292.456.4-.274-.332-.259-.89-.186-1.268zm4.44 1.067c.245.444.374.955.623 1.404.155.401.507.708.657 1.098.166-.311.494-.563.72-.847.02-.129-.006-.245-.073-.34-.079-.178-.012-.436-.146-.593-.223.076.076.305-.017.43-.1.064-.199-.014-.207-.103-.202-.031-.354-.205-.416-.384.165-.105-.04-.147-.087-.234-.084-.046-.091-.036-.163.042-.04 0-.093.01-.132-.018-.002-.491-.548-.195-.759-.455zm2.71.68c-.052.211-.196.403-.351.559l.021.017c.211-.146.353-.413.622-.432l-.292-.144zm6.827.704c.008.133.024.307.135.421.34-.054.191.41.507.37.172-.053.009-.198.062-.313-.052-.257-.304-.282-.483-.439-.017-.057.023-.097.046-.138-.13-.07-.191.004-.267.099zm4.895.02c-.252-.02-.553.129-.768-.042-.077-.072-.13.031-.12.101-.088.134-.176.3-.379.237-.157-.07-.157-.237-.211-.356.011.095-.022.181-.039.27-.182.192-.241.374-.374.582-.18.196-.469.126-.661.288-.035.417-.49.332-.751.458-.016.054.04.064.069.104.12.034.284.034.374-.085.358.095.28-.361.487-.516.181-.027.356-.179.544-.063.189.234.231.572.203.876-.203.207-.095.54-.249.782.032.284-.311.419-.263.703-.112.125-.304.147-.479.147-.677-.26-1.39-.43-2.157-.494-.067.025-.11.086-.103.161.31.167.697.178 1.021.314.296.08.495.442.866.33.306-.173.828.102 1.03-.23-.031-.322.248-.55.382-.825l.101-.026c.175.178.165.445.244.646.249-.261.432-.541.653-.811.567-.833 1.054-1.717 1.259-2.669-.233.003-.465.049-.679.118zm-10.885 0c-.381.607-1.084 1.157-1.604 1.717.925.763 1.959 1.239 3.11 1.433.059-.229-.037-.523.086-.721.084-.188.32-.181.493-.15.104-.007.162-.135.104-.223-.25-.049-.142-.331-.224-.483.007-.093.151-.072.119-.183-.172-.139.083-.291-.063-.44.063-.042.104-.138.191-.138-.547.288-1.127-.059-1.612-.276-.22-.126-.55-.255-.6-.536zm5.014 1.511c-.029.069-.117.189 0 .23.209-.214.648-.207.667-.518-.305-.039-.457.125-.667.288zm.976.654c-.269 0-.404.207-.607.369-.242.14-.36-.26-.559-.163.006.042.054.061.086.077.052.063.071.186 0 .248-.291.267-.43-.126-.704-.101v.101c.009.063-.017.158-.104.126-.171-.287-.526-.185-.699-.434-.108-.063-.212.016-.286.086-.073.126-.35-.021-.283.206-.214.076-.235.312-.396.448-.265-.043-.387.261-.639.253.03.053 0 .135.084.148.153.069.309.084.494.059.265-.413.696-.072 1.06-.227.226.043.067.288.234.375.354-.113.621.302.906.039-.019-.407.44-.371.691-.48.387-.229.828-.539.782-1.054l-.06-.076zm-8.331.239c-.514.623-1.119 1.271-1.725 1.762.268.018.415.311.645.44 1.291 1.081 2.902 1.599 4.412 1.966l-.413-.183c-.309-.356-.751-.77-.769-1.262.31-.105.278-.451.381-.684.256-.28.567-.425.904-.503-.865.363-1.635-.284-2.359-.622-.373-.275-.853-.498-1.076-.914zm11.993 2.412l-.062-.167c-.075.208-.23.335-.388.496.011.134-.037.342.121.437.349.116.804.336.881.739-.141.38-.87.734-.415 1.144.144.208-.214.284-.153.455l.128-.164c.512-.406 1.077-.783 1.532-1.288h.061c-.106-.032-.231.071-.352.019-.247-.113-.287-.331-.287-.58l-1.066-1.091zm-13.892.331l-.034-.065.034.106v-.041zm.275.369c-.114-.074-.184-.141-.21-.272l.21.272zm.063.066c.049.209.325.338.25.596-.147.231-.452.237-.691.231-.49-.077-.854.291-1.316.348-.425.13-.571-.39-.957-.348 2.393 2.104 5.137 3.414 8.356 3.585l.242.167-.1-.295v-2.279l-.212.088c-2.102-.107-3.938-.874-5.572-2.093zm15.964 1.618l-.043-.208c-.235.476-.772.775-1.178 1.14-.563.565-1.481.685-1.767 1.493-.302.279-.406.709-.83.871-.153.41-.592.382-.842.687-.728.649-1.196-.413-1.849-.543l-1.321.233c-.459 0-.917.165-1.354.017.058.883.058 1.829 0 2.714l.162-.102c4.172-.187 7.763-1.765 10.845-4.563l-1.823-1.739zm-19.18-.026l-.026.102-1.774 1.788c2.696 2.333 5.739 3.837 9.21 4.313.551.097 1.18.044 1.713.207l-.123-.207v-2.342l.086-.13-.271.07c-3.369-.236-6.349-1.43-8.815-3.801zm9.866.602l.131.191c0 .713.087 1.435 0 2.139.642-.221 1.385-.185 2.074-.302-.138-.052-.275-.083-.378-.22-.404-.027-.596-.45-.724-.773-.059-.228.099-.42.191-.625-.172-.351-.706-.093-1.026-.221-.084-.067-.146-.172-.268-.189zM41.647-60.944c1.276 1.136 1.842 2.601 2.211 4.124l.21.48c-1.848-1.321-3.513-3.1-4.683-4.973l-1.434-1.452c1.257.53 2.62.854 3.696 1.821zM9.521-58.689c-.844 1.045-1.921 1.738-2.877 2.633.513-1.072.535-2.345 1.27-3.335 1.042-1.821 2.981-2.461 4.701-3.133-1.267 1.113-2.149 2.521-3.094 3.835zM46.146-56.778c.406 1.809-.184 3.584.19 5.416l-.019.018c-.991-1.947-3.083-2.86-4.534-4.417-.833-.924-1.198-2.048-1.402-3.239.823 1.995 3.057 2.439 4.337 4.112.426.388.564.924.843 1.366l.044-.042c-.735-1.569-.983-3.343-1.496-5.02-.257-.726-.767-1.442-1.448-1.905 1.675.35 3.131 2.103 3.485 3.711zM7.951-60.175c-1.712 1.174-1.588 3.282-2.143 5.04-.173.646-.473 1.24-.62 1.908l.043.031c.29-.753.784-1.459 1.412-2.074 1.217-1.12 3.018-1.82 3.612-3.481-.028 2.311-1.958 4.122-3.796 5.419-.762.66-1.498 1.421-1.908 2.277-.046-.575.085-1.166.042-1.788-.196-2.009-.343-4.312 1.081-5.804.615-.766 1.401-1.304 2.277-1.528zM47.224-56.384c1.524 2.074 1.86 5.374.748 7.753-.414 1.009-.706 2.083-.871 3.196-.076-.192-.096-.449-.161-.664-.604-2.325-2.814-3.987-3.714-6.182-.286-.715-.524-1.463-.671-2.235.969 1.788 3.352 2.714 4.008 4.68.263.501.246 1.124.408 1.662.036 0 .072-.026.072-.062-.29-2.028-.2-4.156.073-6.164-.015-1.087-.121-2.141-.722-2.977.39.222.561.659.83.993zM4.297-57.033c-1.307 2-.218 4.511-.282 6.789l-.175 2.32c.029.019.029.084.092.058.072-.255.091-.533.146-.8.307-1.88 1.929-3.206 3.358-4.502.302-.334.572-.682.723-1.08-.108.936-.404 1.873-.792 2.74-1.101 2.159-3.152 3.934-3.527 6.404-.179-2.374-1.794-4.142-1.632-6.655-.054-2.042.796-3.708 1.985-5.228.038-.02.064-.055.104-.046zM48.654-42.933c-.91 1.293-2 2.488-2.846 3.799.096-1.033.225-2.313-.188-3.299-.698-2.116-1.309-4.269-1.51-6.59l.023-.888c.528 2.371 2.864 4.004 2.719 6.67.053.647-.147 1.191-.265 1.76l.04.041.103-.123c.348-1.3.522-2.679 1.053-3.896.771-1.754 1.729-3.524 1.327-5.643 1.17 2.503.82 5.84-.456 8.169zM3.635-43.76c.25.874.312 1.814.662 2.633.036.017.064-.015.088-.041-.889-2.487.387-4.798 1.672-6.738.321-.525.5-1.117.657-1.72.133 1.125-.146 2.416-.311 3.585-.317 1.488-.786 2.9-1.189 4.34-.268.898-.199 1.918-.063 2.856l-.128-.102c-.939-1.736-2.805-3.09-3.359-4.994-.458-1.51-.757-3.268-.448-4.917.144-.636.262-1.293.536-1.884-.53 2.695 1.29 4.643 1.883 6.982zM45.085-38.849c-.059 1.169-.438 2.208-1.049 3.135h.096c.832-1.085 1.48-2.24 2.455-3.283 1.497-1.448 3.032-2.931 3.228-4.949.512 3.357-1.38 6.31-4.166 8.21-1.15.75-2.314 1.45-3.426 2.309v-.102c1.698-2.819.87-6.679 1.91-9.771l.392-1.038c-.214 1.924.619 3.555.56 5.489zM7.985-35.025c.182.638.554 1.208.792 1.823-2.569-1.754-6.081-3.424-7.219-6.636-.482-1.112-.534-2.483-.43-3.751.204 2.856 3.28 4.372 4.708 6.739.333.482.634 1.019 1.083 1.426-.074-.305-.354-.568-.462-.877-.502-.995-.686-2.174-.562-3.382.135-1.457.755-2.817.523-4.352 1.254 2.709.873 6.081 1.567 9.01zM41.251-32.893c-.439.77-1.07 1.51-1.759 2.117.227-.012.42-.209.623-.339 1.85-1.849 4.272-2.363 6.278-3.871.802-.639 1.538-1.478 1.89-2.385-.377 3.072-3.435 5.947-6.308 6.863-1.484.397-3.077.528-4.515 1.019 2.443-2.099 2.309-5.351 3.938-7.823.517-.695.948-1.427 1.558-2.095-.997 1.997-.567 4.579-1.705 6.514zM10.402-35.483c.856 2.125 1.188 4.524 3.187 6.133-2.162-.705-4.698-.508-6.594-1.839-2.083-1.277-3.935-3.449-4.332-5.831 1.437 3.249 5.033 3.512 7.443 5.491.44.389.906.727 1.405.958l.026-.025c-.549-.502-1.192-1.071-1.574-1.72-1.412-1.958-.927-4.704-1.979-6.815.959 1.15 1.84 2.345 2.418 3.648zM36.028-29.161c-.536.35-1.198.41-1.743.669.776.014 1.485-.259 2.258-.338 2.853-.451 6.118.013 8.112-2.415-.741 1.692-2.598 3.105-4.292 3.699-2.913 1.099-5.842-.243-8.632-.693l-.535-.072v-.021c1.327-.298 2.627-.699 3.684-1.657 1.572-1.502 2.956-3.047 4.699-4.233-1.29 1.647-1.428 4.002-3.551 5.061zM16.039-29.946c1.108.965 2.433 1.419 3.836 1.705-.333.119-.778.081-1.142.179-2.513.619-5.311 1.632-7.982.724-1.739-.544-3.523-1.921-4.389-3.627 2.289 2.618 6.043 1.745 9.113 2.427.431.058.834.233 1.291.163-.36-.23-.878-.205-1.272-.416-2.401-.847-2.759-3.451-4.061-5.203 1.675 1.105 3.071 2.605 4.606 4.048zM34.807-26.405c1.867.688 4.281.501 5.884-.639-.822 1.031-1.947 1.763-3.116 2.177-2.593.97-5.297-.04-7.312-1.579-.823-.516-1.55-1.27-2.613-1.201-.377-.011-.747.01-1.075.1 1.963.92 3.789 2.181 5.463 3.797-.285.319-.651.622-.991.897-1.607-1.74-3.397-3.405-5.393-4.381-.388.056-.759.283-1.115.477-1.617 1.027-3.23 2.35-4.436 3.965l-1.042-.851c1.662-1.678 3.487-2.982 5.496-3.916-1.968-.623-3.255 1.028-4.747 1.863-1.749 1.22-4.257 1.792-6.356.952-1.142-.431-2.235-1.063-3.052-2.091 1.656 1.141 4.127 1.26 6.012.52 2.528-1.101 5.158-2.488 8.208-1.826.473.012.938.483 1.387.079 2.264-.583 4.833-.178 6.788.856l2.01.801z"/></g><g fill="#0071BC"><path d="M55.402-29.75l2.289-2.742c1.585 1.307 3.245 2.137 5.258 2.137 1.585 0 2.541-.628 2.541-1.66v-.05c0-.981-.604-1.485-3.547-2.239-3.546-.905-5.836-1.888-5.836-5.382v-.053c0-3.194 2.566-5.307 6.164-5.307 2.566 0 4.755.805 6.541 2.239l-2.013 2.917c-1.56-1.082-3.094-1.736-4.579-1.736-1.484 0-2.264.681-2.264 1.535v.052c0 1.158.755 1.534 3.799 2.315 3.572.931 5.585 2.213 5.585 5.281v.053c0 3.496-2.667 5.459-6.464 5.459-2.67-.002-5.361-.932-7.474-2.819zM71.05-40.667h3.824v1.937c.931-1.258 2.214-2.188 4.201-2.188 3.145 0 6.138 2.464 6.138 6.969v.05c0 4.504-2.943 6.971-6.138 6.971-2.038 0-3.296-.932-4.201-2.014v5.787h-3.824v-17.512zm10.339 6.765v-.049c0-2.24-1.51-3.723-3.295-3.723-1.787 0-3.271 1.484-3.271 3.723v.049c0 2.241 1.484 3.725 3.271 3.725 1.785 0 3.295-1.459 3.295-3.725zM86.118-33.851v-.052c0-3.848 2.742-7.017 6.667-7.017 4.503 0 6.566 3.497 6.566 7.321 0 .301-.025.652-.05 1.004h-9.384c.377 1.736 1.584 2.642 3.296 2.642 1.283 0 2.213-.402 3.27-1.384l2.189 1.938c-1.258 1.56-3.069 2.517-5.51 2.517-4.05 0-7.044-2.844-7.044-6.969zm9.51-1.131c-.227-1.711-1.232-2.869-2.843-2.869-1.584 0-2.617 1.133-2.917 2.869h5.76zM100.282-33.851v-.052c0-3.848 2.943-7.017 7.069-7.017 2.541 0 4.125.856 5.385 2.262l-2.34 2.516c-.857-.906-1.713-1.484-3.07-1.484-1.912 0-3.271 1.687-3.271 3.674v.049c0 2.064 1.333 3.725 3.421 3.725 1.283 0 2.164-.554 3.094-1.435l2.238 2.265c-1.308 1.435-2.816 2.465-5.51 2.465-4.047.001-7.016-3.119-7.016-6.968zM114.119-45.549h4.024v3.396h-4.024v-3.396zm.1 4.882h3.824v13.482h-3.824v-13.482zM119.578-31.058v-.054c0-2.942 2.236-4.301 5.433-4.301 1.358 0 2.34.228 3.295.554v-.227c0-1.586-.981-2.465-2.896-2.465-1.455 0-2.488.276-3.721.729l-.955-2.918c1.482-.652 2.943-1.082 5.233-1.082 2.086 0 3.599.554 4.552 1.511 1.008 1.004 1.461 2.49 1.461 4.301v7.824h-3.699v-1.459c-.93 1.03-2.211 1.711-4.074 1.711-2.541.001-4.629-1.458-4.629-4.124zm8.781-.881v-.679c-.658-.302-1.512-.503-2.443-.503-1.635 0-2.641.652-2.641 1.861v.052c0 1.03.855 1.633 2.09 1.633 1.787 0 2.994-.981 2.994-2.364zM134.193-45.549h3.825v18.364h-3.825v-18.364z"/></g><g fill="#3FA9F5"><path d="M145.623-45.534h13.963v3.592h-9.92v3.724h8.729v3.594h-8.729v3.855h10.05v3.592h-14.097l.004-18.357zM160.062-41.232h4.258l3.172 9.415 3.201-9.415h4.18l-5.582 14.162h-3.647l-5.582-14.162zM174.395-34.125v-.052c0-4.012 2.884-7.317 7.011-7.317 4.73 0 6.9 3.646 6.9 7.634 0 .314-.025.682-.053 1.049h-9.864c.396 1.807 1.664 2.752 3.464 2.752 1.35 0 2.328-.42 3.438-1.442l2.303 2.021c-1.323 1.625-3.227 2.622-5.792 2.622-4.26-.003-7.407-2.967-7.407-7.267zm9.997-1.181c-.236-1.783-1.295-2.987-2.986-2.987-1.668 0-2.75 1.177-3.067 2.987h6.053zM189.972-41.232h4.02v1.993c.926-1.18 2.117-2.255 4.152-2.255 3.042 0 4.812 1.993 4.812 5.22v9.101h-4.02v-7.84c0-1.889-.9-2.859-2.436-2.859-1.532 0-2.512.971-2.512 2.859v7.84h-4.02v-14.059h.004zM205.787-31.162v-6.662h-1.692v-3.407h1.692v-3.594h4.021v3.593h3.33v3.408h-3.33v6.006c0 .917.396 1.363 1.294 1.363.739 0 1.4-.184 1.98-.496v3.195c-.844.5-1.821.816-3.172.816-2.457.003-4.123-.971-4.123-4.222zM213.669-29.038l1.719-2.622c1.534 1.1 3.148 1.678 4.469 1.678 1.164 0 1.695-.419 1.695-1.048v-.053c0-.866-1.378-1.155-2.936-1.625-1.986-.578-4.233-1.496-4.233-4.224v-.053c0-2.859 2.325-4.457 5.185-4.457 1.799 0 3.756.603 5.289 1.625l-1.531 2.754c-1.403-.812-2.805-1.31-3.836-1.31-.979 0-1.481.419-1.481.968v.053c0 .787 1.351 1.154 2.883 1.678 1.981.656 4.284 1.602 4.284 4.17v.054c0 3.121-2.355 4.535-5.422 4.535-1.986.001-4.207-.654-6.085-2.123z"/></g><g fill="#14527E"><path d="M63.345-46.857c-4.385 0-7.067-2.449-7.067-7.253v-9.329h3.592v9.236c0 2.659 1.329 4.035 3.521 4.035 2.193 0 3.522-1.33 3.522-3.918v-9.352h3.591v9.212c.001 4.944-2.775 7.369-7.159 7.369zM80.59-47.113v-6.974c0-1.679-.793-2.542-2.147-2.542-1.351 0-2.214.863-2.214 2.542v6.974h-3.545v-12.501h3.545v1.772c.816-1.05 1.866-2.005 3.662-2.005 2.682 0 4.244 1.772 4.244 4.641v8.093h-3.545zM86.171-60.991v-3.148h3.731v3.148h-3.731zm.093 13.878v-12.501h3.545v12.501h-3.545zM96.249-46.904c-2.168 0-3.638-.863-3.638-3.756v-5.922h-1.493v-3.033h1.493v-3.195h3.545v3.195h2.938v3.033h-2.938v5.34c0 .816.35 1.213 1.143 1.213.653 0 1.236-.163 1.75-.443v2.846c-.747.443-1.611.722-2.8.722zM111.855-52.128h-8.698c.35 1.609 1.469 2.449 3.055 2.449 1.19 0 2.052-.374 3.032-1.283l2.029 1.795c-1.166 1.445-2.846 2.333-5.108 2.333-3.754 0-6.529-2.636-6.529-6.461v-.046c0-3.568 2.542-6.506 6.181-6.506 4.174 0 6.086 3.241 6.086 6.787v.047c-.001.348-.025.558-.048.885zm-6.039-4.874c-1.47 0-2.427 1.049-2.707 2.659h5.341c-.209-1.587-1.142-2.659-2.634-2.659zM122.452-47.113v-1.796c-.863 1.167-2.054 2.029-3.896 2.029-2.915 0-5.691-2.287-5.691-6.461v-.046c0-4.175 2.73-6.46 5.691-6.46 1.889 0 3.055.864 3.896 1.866v-6.158h3.544v17.026h-3.544zm.046-6.274c0-2.076-1.375-3.452-3.032-3.452-1.655 0-3.056 1.353-3.056 3.452v.046c0 2.076 1.4 3.451 3.056 3.451 1.657 0 3.032-1.375 3.032-3.451v-.046zM145.762-47.113l-7.907-10.379v10.379h-3.545v-16.326h3.312l7.651 10.052v-10.052h3.544v16.326h-3.055zM158.575-47.113v-1.354c-.862.957-2.054 1.587-3.776 1.587-2.356 0-4.294-1.353-4.294-3.826v-.047c0-2.729 2.077-3.988 5.039-3.988 1.26 0 2.169.209 3.055.513v-.209c0-1.469-.91-2.286-2.683-2.286-1.353 0-2.309.257-3.451.678l-.887-2.705c1.376-.607 2.729-1.004 4.852-1.004 3.871 0 5.574 2.007 5.574 5.388v7.253h-3.429zm.07-5.038c-.605-.28-1.398-.466-2.264-.466-1.516 0-2.448.606-2.448 1.725v.047c0 .955.793 1.516 1.937 1.516 1.656 0 2.775-.909 2.775-2.193v-.629zM168.051-46.904c-2.169 0-3.638-.863-3.638-3.756v-5.922h-1.494v-3.033h1.494v-3.195h3.545v3.195h2.938v3.033h-2.938v5.34c0 .816.348 1.213 1.141 1.213.654 0 1.236-.163 1.751-.443v2.846c-.746.443-1.61.722-2.799.722zM172.464-60.991v-3.148h3.731v3.148h-3.731zm.093 13.878v-12.501h3.545v12.501h-3.545zM184.455-46.833c-3.872 0-6.74-2.869-6.74-6.461v-.046c0-3.592 2.892-6.506 6.786-6.506 3.872 0 6.741 2.869 6.741 6.46v.046c0 3.591-2.894 6.507-6.787 6.507zm3.287-6.508c0-1.842-1.328-3.452-3.287-3.452-2.028 0-3.243 1.562-3.243 3.405v.046c0 1.842 1.331 3.451 3.289 3.451 2.029 0 3.241-1.563 3.241-3.405v-.045zM200.603-47.113v-6.974c0-1.679-.793-2.542-2.147-2.542-1.353 0-2.214.863-2.214 2.542v6.974h-3.548v-12.501h3.548v1.772c.814-1.05 1.865-2.005 3.66-2.005 2.684 0 4.245 1.772 4.245 4.641v8.093h-3.544zM210.498-46.88c-1.75 0-3.708-.583-5.365-1.89l1.518-2.332c1.352.979 2.774 1.493 3.939 1.493 1.027 0 1.494-.373 1.494-.934v-.047c0-.769-1.214-1.026-2.591-1.446-1.747-.512-3.73-1.329-3.73-3.754v-.046c0-2.542 2.053-3.965 4.571-3.965 1.586 0 3.312.537 4.666 1.446l-1.354 2.449c-1.238-.724-2.475-1.166-3.383-1.166-.861 0-1.305.373-1.305.863v.046c0 .7 1.188 1.025 2.54 1.493 1.75.583 3.779 1.423 3.779 3.708v.047c.001 2.775-2.076 4.035-4.779 4.035z"/></g></svg>