<svg xmlns="http://www.w3.org/2000/svg" width="240.333" height="33.945" viewBox="3.167 0 240.333 33.945" enable-background="new 3.167 0 240.333 33.945"><g fill="#0071BC"><path d="M48.955 26.086l2.73-3.27c1.89 1.559 3.87 2.549 6.27 2.549 1.89 0 3.03-.75 3.03-1.98v-.059c0-1.17-.72-1.771-4.23-2.67-4.229-1.081-6.959-2.251-6.959-6.42v-.062c0-3.81 3.06-6.329 7.35-6.329 3.06 0 5.67.96 7.8 2.67l-2.4 3.479c-1.86-1.29-3.69-2.07-5.46-2.07s-2.7.812-2.7 1.83v.061c0 1.381.9 1.83 4.53 2.761 4.26 1.109 6.66 2.639 6.66 6.299v.062c0 4.17-3.18 6.51-7.709 6.51-3.183-.002-6.392-1.111-8.912-3.361zM67.615 13.066h4.56v2.31c1.11-1.5 2.64-2.609 5.01-2.609 3.75 0 7.32 2.939 7.32 8.311v.059c0 5.371-3.51 8.312-7.32 8.312-2.43 0-3.93-1.109-5.01-2.4v6.9h-4.56v-20.883zm12.329 8.069v-.059c0-2.671-1.8-4.44-3.93-4.44s-3.9 1.771-3.9 4.44v.059c0 2.671 1.77 4.441 3.9 4.441s3.93-1.74 3.93-4.441zM85.584 21.195v-.062c0-4.589 3.27-8.368 7.95-8.368 5.37 0 7.83 4.17 7.83 8.729 0 .359-.03.779-.06 1.199h-11.19c.45 2.07 1.89 3.149 3.93 3.149 1.53 0 2.64-.479 3.9-1.649l2.61 2.311c-1.5 1.859-3.66 3-6.57 3-4.83.002-8.4-3.389-8.4-8.309zm11.34-1.349c-.27-2.04-1.47-3.421-3.39-3.421-1.89 0-3.12 1.351-3.479 3.421h6.869zM102.474 21.195v-.062c0-4.589 3.51-8.368 8.43-8.368 3.03 0 4.92 1.021 6.42 2.699l-2.79 3c-1.02-1.08-2.04-1.771-3.66-1.771-2.28 0-3.9 2.011-3.9 4.381v.059c0 2.462 1.59 4.441 4.08 4.441 1.53 0 2.58-.66 3.689-1.711l2.67 2.699c-1.56 1.711-3.36 2.94-6.57 2.94-4.829.004-8.369-3.717-8.369-8.307zM118.974 7.246h4.8v4.05h-4.8v-4.05zm.12 5.82h4.56v16.078h-4.56v-16.078zM125.483 24.525v-.062c0-3.51 2.67-5.129 6.479-5.129 1.62 0 2.79.271 3.931.66v-.271c0-1.891-1.17-2.939-3.451-2.939-1.739 0-2.969.33-4.439.869l-1.14-3.479c1.77-.779 3.51-1.29 6.24-1.29 2.49 0 4.291.66 5.431 1.801 1.2 1.199 1.739 2.97 1.739 5.13v9.329h-4.41v-1.738c-1.109 1.229-2.639 2.039-4.859 2.039-3.031 0-5.521-1.74-5.521-4.92zm10.47-1.05v-.81c-.78-.36-1.801-.6-2.91-.6-1.95 0-3.15.779-3.15 2.219v.062c0 1.229 1.021 1.948 2.49 1.948 2.131.001 3.57-1.169 3.57-2.819zM142.913 7.246h4.56v21.898h-4.56v-21.898z"/></g><g fill="#29ABE2"><path d="M147.742 7.264h16.65v4.283h-11.826v4.44h10.408v4.284h-10.408v4.598h11.983v4.284h-16.809l.002-21.889zM164.961 12.393h5.078l3.784 11.228 3.815-11.228h4.983l-6.654 16.888h-4.352l-6.654-16.888zM182.055 20.868v-.062c0-4.784 3.438-8.726 8.357-8.726 5.645 0 8.23 4.347 8.23 9.103 0 .375-.031.812-.062 1.25h-11.764c.473 2.157 1.986 3.284 4.131 3.284 1.609 0 2.775-.501 4.1-1.721l2.745 2.409c-1.577 1.938-3.849 3.127-6.907 3.127-5.076-.001-8.83-3.535-8.83-8.664zm11.922-1.408c-.285-2.126-1.545-3.564-3.563-3.564-1.987 0-3.28 1.405-3.658 3.564h7.221zM200.631 12.393h4.792v2.376c1.104-1.407 2.524-2.689 4.952-2.689 3.627 0 5.738 2.377 5.738 6.224v10.852h-4.793v-9.35c0-2.252-1.071-3.409-2.901-3.409-1.828 0-2.996 1.157-2.996 3.409v9.35h-4.792v-16.763zM219.488 24.402v-7.943h-2.018v-4.064h2.018v-4.287h4.795v4.285h3.974v4.064h-3.974v7.162c0 1.093.473 1.625 1.544 1.625.883 0 1.672-.218 2.364-.592v3.812c-1.008.595-2.174.973-3.782.973-2.932.001-4.921-1.158-4.921-5.035zM228.889 26.935l2.049-3.127c1.83 1.312 3.754 2.001 5.33 2.001 1.389 0 2.02-.5 2.02-1.25v-.063c0-1.033-1.641-1.377-3.501-1.938-2.366-.688-5.046-1.783-5.046-5.036v-.062c0-3.409 2.773-5.315 6.181-5.315 2.146 0 4.479.719 6.308 1.938l-1.828 3.284c-1.672-.969-3.344-1.562-4.572-1.562-1.168 0-1.768.5-1.768 1.155v.063c0 .938 1.608 1.376 3.438 2.001 2.364.782 5.108 1.908 5.108 4.972v.063c0 3.722-2.808 5.409-6.465 5.409-2.368 0-5.016-.781-7.254-2.533z"/></g><g fill="#0071BC"><path d="M36.995 8.083c1.473 2.84 1.892 6.747.931 9.954-.968 3.789-4.147 7.618-7.865 9.179-4.173 2.044-10.104 1.533-13.83-1.136-5.177-3.544-7.293-9.656-5.731-15.686.952-3.586 3.808-7.203 7.295-8.865 1.964-.967 4.103-1.486 6.443-1.529 5.336.007 10.432 3.143 12.757 8.083zm-12.479-7.389c.087.558.065 1.323.021 1.953 0-.063.031-.12.066-.171.1-.056.187.028.232.101.009.099.047.269-.039.324.086.015.129-.048.206-.048 1.619.118 3.125.595 4.465 1.357v-.034c.276-.134.629-.311.916-.068.339-.128.405.29.681.338.33.201.705.567.746.957.068.128.263.218.289.353.228-.479.679-.819 1.075-1.237l.241-.1c-2.141-2.037-4.683-3.165-7.514-3.553-.449-.079-.947-.037-1.385-.172zm-.788.072c-2.848.113-5.373 1.081-7.62 2.698-.43.294-.812.747-1.25.999h.063c.56.415 1.089 1.001 1.561 1.515l.035-.104c2.069-1.882 4.476-2.917 7.24-3.045l-.068-.168-.019-1.697.058-.198zm2.429 1.068l-1.017.438c-.087-.036-.249-.077-.304.037-.045.033 0 .085.014.119.374.48 1.023.211 1.489.119.339.143.664-.027.919-.238v-.05c-.24-.338-.693-.389-1.101-.425zm-1.655 1.749l.073.134c-.014.658.028 1.36-.039 1.976.275-.093.55.021.819.028 1.388.227 2.696.674 3.811 1.527-.136-.143-.299-.305-.33-.509.025-.029.051-.037.088-.029.01-.218-.223-.33-.256-.529.033-.041.085-.083.156-.062.24.226.444.474.623.729.152-.063.283.035.393.118.206.121.08.386.232.525.029.417.542.652.515 1.069.009.101.128.019.173.069l.42.522c-.077.1-.014.222.07.292.19.084.297-.156.49-.121.273.156-.043.336-.017.51.107.006.24-.083.326.021.036.159-.127.257-.188.354 0 .154.122.12.235.154.129-.005.21.151.172.255.352.368-.106.768.064 1.155.111.254-.025.502-.182.691.006.312-.275.508-.39.768l-.363.069c-.19.19.165.425-.024.545l.788.014-.083-.084c-.116-.312-.088-.729.108-1.004.121-.258.146-.562.371-.778.049-.015.144-.107.182 0 .017.239-.004.515-.119.729.23.326.2.75.219 1.153.708-.043 1.392-.059 2.075-.05l-.062-.136c-.106-1.311-.377-2.549-.919-3.665-.146.006-.254.128-.42.085-.059-.022-.094-.079-.089-.146-.281-.268-.458-.621-.782-.859-.361.033-.525-.384-.847-.424-.289-.122-.092-.59-.51-.464-.207-.086-.404-.239-.444-.474 0-.369-.072-.767-.401-1.006-.256-.091-.369.247-.626.189-.138-.07-.072-.255-.114-.376-.051-.104-.172-.18-.149-.322.332-.441-.405-.436-.242-.864-.042-.312-.36-.433-.52-.678-1.096-.499-2.197-.838-3.436-.986-.3-.038-.583.026-.851-.115zm6.411.015c-.147.142-.276-.128-.407.035-.008.076.006.146.049.203.296.107.33.538.713.438.112-.128-.07-.262-.033-.425-.053-.147-.177-.209-.322-.251zm-12.707 1.902c-.438.306-.838.701-1.293.973.521.332.954.885 1.429 1.322l.047.134c1.208-1.153 2.67-1.824 4.25-2.15.375-.038.749-.164 1.12-.086-.03-.671-.087-1.373-.016-2.037-2.058.117-3.892.74-5.537 1.844zm15.731-.642c-.386.521-.919 1.01-1.412 1.516l-.24.047c.152.034.189.212.288.318.523.275.659.83 1.11 1.14.254.53.839.942.86 1.554.619 1.356 1.041 2.795 1.081 4.395l-.063.085c.07 0 .129-.029.173-.063l2.042-.035c-.138-.198-.082-.486-.116-.729-.271-3.156-1.614-5.852-3.723-8.228zm-19.467.048c-2.02 2.243-3.263 4.806-3.627 7.729-.077.427-.034.865-.115 1.297.713-.057 1.482-.057 2.188 0l-.05-.274c.137-2.258.857-4.271 2.125-6.067.32-.361.553-.814.948-1.083-.457-.433-.939-.937-1.422-1.41l-.047-.192zm9.307 1.481l-.121.067c-1.798.13-3.356.879-4.724 2.005.543.377 1.024.979 1.508 1.408.039-.052.074-.099.109-.156.669-.481 1.363-.918 2.161-1.121.354-.03.696-.202 1.066-.116-.078-.665-.078-1.402.001-2.087zm.739.012l.075.154-.015 1.92.192-.035c1.171.162 2.242.54 3.172 1.296l.05.146c.319-.442.801-.826 1.176-1.251l.35-.205-.171-.072c-.773-.649-1.623-1.146-2.546-1.471-.716-.254-1.5-.36-2.283-.482zm-8.119.531l-.015.133-.762.973c-1.248 1.721-1.849 3.711-2.026 5.876l1.938-.035.187.07c-.078-.05-.056-.135-.086-.206.157-2.016.863-3.814 2.261-5.315-.538-.469-1.037-.962-1.497-1.496zm13.543 1.968l-.034.087c-.651.674-1.366 1.378-1.987 2.073.042.083.112.16.192.204.031-.17.12-.317.134-.494.171-.234.424-.085.643-.036.34-.078.655.077 1.004.072.254.125.279.449.515.58.059.094.013.197-.071.266.071.532.323-.138.592-.012.114.044.254.028.339.146.043.221.311.178.326.39-.024.107-.136.136-.202.192.059.212-.223.349-.124.574.41.077.422-.398.617-.611-.108-.367-.186-.741-.398-1.067-.234-.05-.371-.322-.611-.375-.449-.177.074-.459.017-.728-.238-.454-.619-.856-.952-1.261zm-11.517.073c-.975 1.17-1.64 2.458-1.906 3.922-.078.34-.035.732-.168 1.054.249-.113.61-.07.886-.035-.161-.085-.027-.29-.12-.402-.021-.179-.05-.396.12-.511-.021-.291.291-.439.319-.702.08-.296.418-.099.579-.255.108-.055.015-.153.015-.232.139-.188.36-.184.528-.289.119-.185.276-.385.475-.496.429.013.439-.579.838-.594-.551-.418-1.077-.981-1.566-1.46zm6.114.232c.138.403.017.999.101 1.466l.516.169c.146-.246.471-.297.614-.528.089-.078.197 0 .27.086.021.189-.032.38-.088.565-.188.381-.642.433-.897.707.164.095.256-.078.391-.114.197.021.351.192.471.32.128.055.248-.021.361-.065.079-.588.813-.504 1.032-1.056l-.134.053c-.058-.079-.197-.045-.191-.173.12-.113.276-.291.426-.338-.638-.397-1.292-.738-2.013-.921-.286-.066-.584-.071-.859-.171zm-3.807 1.481h.158c.17.167.446.135.572.357.063.128-.117.114-.111.222.035.027.084.033.111.087.135.05.107-.08.157-.137.174-.179.204.172.375.172.125-.081.294-.089.379.05.113-.101.353-.006.388-.194.218-.232.097-.592.423-.742.114.066-.006.171.036.271.217.094.467-.185.639.036-.159-.464-.116-1.035-.1-1.544-1.14.145-2.19.533-3.027 1.422zm3.433 1.175c-.113-.129-.358-.052-.507 0 .143.141.085.395.172.572-.213.354-.564.432-.898.532-.094.111-.074.36-.292.338-.07.155-.311.244-.216.475-.114.24-.057.552-.123.814-.421.263-.301-.347-.513-.474l-.071.12c-.086.021-.14-.03-.199-.086-.064-.021-.167-.043-.224.015-.093.157-.233.283-.196.494-.044.128-.254.087-.229.22.234-.008.489-.051.714-.099.162.043.296-.078.464-.085.055.028.125.085.101.171h.053c.113-.086.166-.213.113-.341.016-.147.18-.147.275-.188.095.04.038.131.051.201.319.12-.076.354-.119.523-.083.135 0 .44-.268.398-.053-.016-.082-.064-.073-.124h-.032c-.01.116.076.271.189.322.197-.164.207-.441.487-.479.15-.156-.063-.396.155-.522.371-.006.765-.162 1.055.134-.021.129-.073.186.036.289-.073.165-.122.341-.254.477.034.093.005.207-.071.269-.101.433-.594.229-.886.377.449.339.984.466 1.563.425.301-.016.171-.391.33-.559.101-.496.55-.157.827-.292.108-.209.21-.418.238-.657-.174-.114-.245-.327-.19-.53-.12-.161-.104-.461-.366-.488-.042-.058-.007-.128.027-.171-.006-.155.15-.205.191-.328-.16-.104-.121-.336-.105-.472-.275.077-.304-.279-.506-.359-.053-.167-.232-.192-.376-.224-.34.167-.394-.254-.649-.353-.027-.077-.082-.19 0-.254.126-.107.297-.017.446-.021l-.124-.06zm-6.151 1.745c-.572.187.095.62-.048.975-.079.204-.287.014-.438.1l-.056.371c-.084.222-.361.059-.488.209-.091.142.011.292.084.404-.198.45.444.593.44 1.003.197.256-.029.626.253.852.062.459-.061 1.083.339 1.441l.071.439c.085.307-.362.229-.304.494.085-.039.106.073.111.102v-.014c.545-.634 1.174-1.299 1.823-1.857l-.268-.27c-.507-.75-.904-1.55-1.094-2.43l-.205-.104c-.007.229-.112.406-.099.632l-.07.084c-.148-.008-.242-.127-.365-.207-.031-.076-.109-.203.014-.269.067-.004.117.016.168.052.062-.078.035-.191.071-.292.021-.172-.129-.325-.023-.472.136-.019.235.146.292.235.134.045.24-.067.349-.118 0-.117.172-.282-.012-.354.099-.272.029-.566-.016-.836-.076-.233-.335-.19-.529-.17zm13.256.243c-.057.028-.132.006-.203.014.059-.028.137-.014.203-.014zm-.438.694l.219.22c.219.148.07.467.307.595.274.144.37.464.494.702.043-.064.043-.144.063-.207.096-.387.082-.826.203-1.211-.426.021-.914.064-1.286-.099zm4.846.098l-.129-.083.076.191c-.118 2.355-.902 4.438-2.244 6.287-.263.309-.509.691-.838.909.539.428 1.133 1.063 1.581 1.551l.056-.105c2.166-2.467 3.396-5.331 3.529-8.642l.086-.17-.107.048-2.01.014zm-2.845-.047c.045.433-.072.85-.101 1.273l.239.254c.062.1.042.247-.05.326-.105.063-.23.056-.33-.021-.297.949-.646 1.88-1.235 2.704-.237.297-.462.709-.767.865l.646.563c.033-.035.012-.092.018-.141 0-.084.044-.184.148-.171.312-.005.319.325.498.496-.035.271.195.481.117.731 1.79-1.887 2.675-4.192 2.84-6.748l.097-.113c-.633.063-1.305.021-1.961.026l-.159-.044zm-16.517.02l.104.17c.013.467.202.913.1 1.387.081-.134.102-.318.276-.401.019-.127-.174-.162-.149-.29.135-.266.003-.688.352-.801-.246.043-.471.093-.683-.065zm-3.409.027l-.193.073-1.967-.016c.113 2.266.715 4.325 1.732 6.218.501.932 1.239 1.773 1.886 2.647l1.406-1.461.17-.07c-.242-.169-.454-.445-.659-.678-.232-.064-.471-.229-.589-.452-.076-.082-.01-.225-.088-.282l-.085.108c-.246.122-.338-.136-.508-.238-.225-.12-.118-.539-.414-.461-.114-.006-.151-.137-.22-.204-.276.028-.345-.278-.494-.427-.028.063 0 .147-.085.189-.282.066-.383-.281-.569-.422-.055.02-.089.076-.159.062-.17-.148-.282-.359-.29-.594-.232-.262-.129-.679-.083-.999.041-.086.163-.132.139-.239.064-.149.22-.162.368-.17.059.027.113.085.142.134.091-.058.297.01.218-.196.12-.105.298-.141.459-.169.114.142.169.304.321.438l-.101-.157c-.171-.695-.306-1.402-.337-2.151.006-.044-.092-.062-.04-.105l.017.02c.006-.156-.007-.289.023-.398zm2.765 0l-.156.073c-.655-.016-1.343.04-1.97-.052l.086.121.154 1.302c.066.503.287.984.272 1.481.081-.109.03-.32.221-.341-.075-.156.148-.288.023-.426.062-.342.103-.688.403-.935.359-.016.386-.489.747-.511.183-.008.299.24.373.327-.224-.272-.211-.728-.153-1.039zm3.64.874c.201.366.306.783.511 1.151.127.328.415.58.538.9.135-.256.404-.462.59-.694.016-.106-.005-.2-.06-.279-.064-.146-.009-.357-.119-.486-.183.063.062.25-.014.354-.081.052-.163-.013-.169-.085-.165-.026-.289-.168-.341-.315.135-.086-.032-.12-.071-.191-.069-.037-.075-.029-.134.035-.033 0-.076.008-.109-.015-.002-.405-.45-.162-.622-.375zm2.22.558c-.042.174-.16.33-.288.458l.018.015c.173-.12.29-.339.51-.354l-.24-.119zm5.594.577c.008.11.021.252.112.345.279-.044.156.337.415.304.142-.044.008-.162.052-.257-.043-.211-.249-.232-.396-.36-.013-.046.019-.079.038-.113-.109-.057-.158.003-.221.081zm4.011.017c-.207-.017-.453.105-.629-.035-.063-.06-.108.025-.099.083-.071.109-.144.245-.31.193-.128-.057-.128-.193-.173-.292.009.077-.018.149-.032.222-.148.157-.197.305-.306.475-.147.161-.385.105-.542.238-.028.341-.401.271-.616.375-.012.044.033.052.057.086.098.027.232.027.306-.07.293.077.23-.296.4-.423.149-.022.291-.147.446-.051.154.19.189.468.166.716-.166.169-.079.444-.204.642.027.234-.255.344-.216.575-.091.105-.249.123-.393.123-.555-.215-1.139-.352-1.768-.406-.055.021-.091.07-.085.133.254.137.571.145.837.257.243.065.406.363.71.271.25-.143.678.083.844-.188-.026-.263.202-.452.312-.676l.083-.022c.144.146.136.365.201.53.203-.215.354-.445.534-.665.465-.683.864-1.408 1.031-2.188-.187.002-.378.039-.554.097zm-8.919 0c-.312.497-.889.947-1.314 1.407.757.625 1.606 1.015 2.548 1.175.049-.189-.03-.43.072-.592.069-.153.262-.148.404-.123.085-.006.133-.11.085-.183-.206-.04-.116-.271-.183-.396.006-.074.123-.058.098-.15-.142-.112.068-.238-.052-.36.052-.034.084-.113.157-.113-.448.235-.924-.049-1.321-.227-.183-.103-.453-.208-.494-.438zm4.109 1.238c-.023.057-.096.154 0 .189.171-.176.531-.17.546-.426-.249-.031-.375.103-.546.237zm.799.534c-.22 0-.331.169-.497.303-.198.114-.295-.213-.458-.134.006.036.044.05.07.062.042.052.058.153 0 .204-.239.219-.353-.104-.577-.082v.082c.007.051-.014.13-.086.102-.141-.234-.431-.151-.573-.354-.089-.052-.175.014-.235.07-.059.104-.287-.016-.231.168-.175.064-.193.256-.324.368-.218-.035-.317.213-.523.206.024.045 0 .112.068.122.126.057.253.07.405.049.217-.34.57-.059.868-.185.186.034.056.234.192.307.29-.094.508.246.742.032-.015-.334.36-.305.566-.393.317-.188.679-.442.642-.864l-.049-.063zm-6.827.197c-.421.509-.916 1.042-1.413 1.443.219.015.339.256.528.36 1.058.886 2.379 1.311 3.616 1.612l-.339-.151c-.253-.292-.616-.631-.631-1.034.254-.087.228-.369.313-.561.21-.228.465-.348.741-.412-.71.299-1.341-.232-1.934-.509-.304-.225-.698-.408-.881-.748zm9.828 1.975l-.052-.137c-.061.17-.188.275-.317.407.009.11-.031.28.098.357.286.095.658.276.722.606-.116.312-.712.601-.339.938.117.17-.176.232-.125.372l.105-.134c.419-.333.882-.642 1.255-1.055h.051c-.087-.028-.19.057-.289.015-.202-.092-.236-.271-.236-.475l-.873-.894zm-11.383.272l-.028-.053.028.087v-.034zm.226.303c-.094-.059-.152-.115-.173-.221l.173.221zm.051.054c.04.171.266.276.205.488-.12.189-.37.196-.566.189-.402-.062-.7.24-1.08.285-.347.107-.468-.319-.783-.285 1.961 1.724 4.209 2.797 6.847 2.938l.199.138-.082-.243v-1.867l-.174.072c-1.722-.087-3.227-.716-4.566-1.715zm13.08 1.326l-.035-.171c-.193.39-.633.635-.965.934-.462.462-1.214.561-1.448 1.224-.247.227-.332.58-.68.712-.125.336-.485.314-.69.562-.596.532-.979-.338-1.515-.445l-1.082.191c-.376 0-.752.136-1.109.015.048.723.048 1.5 0 2.224l.133-.085c3.419-.152 6.361-1.444 8.887-3.738l-1.496-1.423zm-15.716-.021l-.022.083-1.455 1.465c2.209 1.911 4.704 3.145 7.547 3.535.452.078.967.036 1.404.169l-.1-.169v-1.919l.07-.108-.221.058c-2.76-.192-5.201-1.171-7.223-3.114zm8.085.493l.108.156c0 .584.072 1.176 0 1.753.526-.182 1.135-.151 1.699-.247-.113-.042-.225-.068-.31-.181-.331-.022-.488-.368-.593-.632-.048-.188.081-.345.156-.513-.141-.287-.579-.076-.84-.182-.07-.055-.12-.139-.22-.154zM37.489 2.683c1.045.93 1.51 2.132 1.813 3.379l.171.394c-1.513-1.082-2.878-2.54-3.837-4.075l-1.176-1.19c1.03.436 2.147.7 3.029 1.492zM11.164 4.531c-.691.857-1.574 1.425-2.358 2.158.421-.879.438-1.922 1.04-2.732.853-1.492 2.442-2.017 3.852-2.568-1.037.913-1.759 2.066-2.534 3.142zM41.175 6.097c.333 1.483-.15 2.937.156 4.438l-.015.015c-.812-1.595-2.527-2.344-3.716-3.62-.683-.757-.981-1.678-1.149-2.654.675 1.635 2.506 1.999 3.554 3.37.349.318.463.758.691 1.119l.035-.035c-.602-1.285-.805-2.738-1.225-4.112-.211-.595-.629-1.182-1.186-1.561 1.372.287 2.566 1.722 2.855 3.04zM9.878 3.314c-1.404.961-1.302 2.689-1.757 4.13-.142.528-.387 1.016-.507 1.563l.035.026c.237-.617.642-1.196 1.157-1.699.996-.919 2.472-1.492 2.958-2.854-.022 1.894-1.603 3.378-3.109 4.441-.625.542-1.229 1.165-1.564 1.866-.038-.472.069-.955.034-1.465-.161-1.646-.281-3.533.886-4.756.504-.628 1.149-1.068 1.867-1.252zM42.06 6.421c1.248 1.699 1.524 4.403.613 6.353-.34.826-.579 1.707-.714 2.619-.062-.158-.078-.368-.132-.544-.495-1.905-2.307-3.266-3.044-5.065-.234-.586-.43-1.198-.549-1.831.793 1.464 2.746 2.224 3.284 3.835.215.411.202.921.334 1.36.03 0 .059-.021.059-.05-.237-1.662-.164-3.405.06-5.05-.012-.891-.099-1.754-.591-2.439.318.18.459.537.68.812zM6.884 5.888c-1.072 1.639-.18 3.697-.231 5.562l-.143 1.903c.023.015.023.069.075.048.059-.21.074-.437.119-.656.252-1.54 1.581-2.626 2.752-3.689.247-.274.469-.559.592-.884-.089.766-.331 1.534-.649 2.244-.902 1.769-2.583 3.223-2.889 5.247-.146-1.944-1.471-3.393-1.337-5.453-.044-1.673.652-3.039 1.627-4.284.029-.016.051-.044.084-.038zM43.231 17.443c-.745 1.059-1.638 2.039-2.332 3.113.08-.847.185-1.896-.154-2.703-.573-1.734-1.072-3.497-1.238-5.401l.019-.728c.433 1.944 2.346 3.282 2.228 5.466.044.53-.12.978-.217 1.442l.033.035.084-.101c.284-1.065.428-2.195.862-3.192.631-1.438 1.416-2.888 1.088-4.623.959 2.049.673 4.782-.373 6.692zM6.341 16.764c.205.716.256 1.487.543 2.159.029.014.052-.012.072-.034-.729-2.039.317-3.932 1.369-5.521.264-.431.411-.915.539-1.41.109.922-.12 1.979-.255 2.938-.26 1.219-.644 2.376-.974 3.556-.221.735-.163 1.573-.052 2.341l-.105-.084c-.77-1.423-2.299-2.532-2.752-4.092-.376-1.238-.621-2.678-.367-4.028.117-.522.215-1.059.44-1.544-.435 2.208 1.056 3.803 1.542 5.719zM40.306 20.79c-.048.958-.358 1.809-.859 2.57h.079c.682-.89 1.213-1.837 2.01-2.689 1.226-1.188 2.485-2.404 2.646-4.057.42 2.752-1.13 5.17-3.414 6.728-.942.615-1.896 1.188-2.807 1.891v-.085c1.391-2.309.713-5.472 1.565-8.007l.321-.85c-.174 1.577.507 2.914.459 4.499zM9.906 23.924c.149.521.454.99.648 1.494-2.105-1.438-4.982-2.806-5.914-5.438-.395-.91-.438-2.035-.352-3.074.167 2.341 2.688 3.583 3.858 5.522.273.396.519.835.886 1.17-.06-.251-.29-.465-.377-.719-.413-.817-.563-1.782-.461-2.771.11-1.194.618-2.308.429-3.566 1.026 2.218.713 4.981 1.283 7.382zM37.165 25.671c-.36.631-.877 1.237-1.441 1.735.185-.011.345-.172.511-.277 1.516-1.516 3.5-1.939 5.145-3.172.657-.524 1.259-1.211 1.548-1.956-.31 2.518-2.814 4.875-5.169 5.625-1.217.325-2.521.432-3.7.835 2.002-1.722 1.891-4.384 3.226-6.41.423-.57.777-1.17 1.277-1.718-.817 1.635-.465 3.752-1.397 5.338zM11.886 23.547c.702 1.741.974 3.708 2.612 5.025-1.772-.578-3.85-.416-5.404-1.507-1.708-1.049-3.224-2.826-3.55-4.777 1.177 2.662 4.125 2.878 6.099 4.499.361.318.742.596 1.152.784l.021-.021c-.45-.411-.976-.877-1.29-1.409-1.157-1.604-.759-3.854-1.621-5.585.786.944 1.508 1.923 1.981 2.991zM32.885 28.728c-.439.286-.982.335-1.428.548.636.012 1.217-.213 1.85-.277 2.338-.371 5.014.01 6.647-1.979-.607 1.386-2.13 2.544-3.517 3.032-2.387.9-4.787-.201-7.074-.568l-.438-.059v-.017c1.087-.244 2.153-.571 3.019-1.357 1.288-1.232 2.422-2.499 3.851-3.471-1.058 1.351-1.17 3.28-2.91 4.148zM16.506 28.085c.907.791 1.994 1.162 3.144 1.396-.273.098-.639.068-.936.146-2.059.507-4.352 1.337-6.542.594-1.425-.446-2.887-1.574-3.596-2.973 1.875 2.146 4.952 1.431 7.468 1.99.353.047.683.19 1.057.134-.295-.189-.719-.168-1.043-.341-1.967-.693-2.261-2.827-3.326-4.264 1.371.907 2.515 2.136 3.774 3.318zM31.885 30.986c1.53.565 3.508.41 4.821-.524-.674.845-1.595 1.445-2.553 1.784-2.125.794-4.341-.033-5.993-1.295-.673-.422-1.269-1.039-2.14-.982-.31-.009-.611.007-.881.082 1.609.753 3.105 1.787 4.477 3.111-.233.262-.533.509-.812.734-1.317-1.426-2.784-2.79-4.419-3.59-.318.045-.622.232-.914.391-1.325.84-2.647 1.925-3.635 3.248l-.854-.697c1.362-1.375 2.858-2.444 4.504-3.209-1.613-.511-2.667.843-3.89 1.527-1.433.999-3.488 1.469-5.208.779-.936-.352-1.832-.871-2.501-1.713 1.356.934 3.382 1.033 4.926.425 2.072-.901 4.227-2.038 6.726-1.496.388.01.768.397 1.137.066 1.855-.479 3.96-.146 5.562.701l1.647.658z"/></g></svg>