<?xml version="1.0" encoding="utf-8"?>
<!-- Generator: Adobe Illustrator 16.0.0, SVG Export Plug-In . SVG Version: 6.00 Build 0)  -->
<!DOCTYPE svg PUBLIC "-//W3C//DTD SVG 1.1//EN" "http://www.w3.org/Graphics/SVG/1.1/DTD/svg11.dtd">
<svg version="1.1" id="Layer_1" xmlns="http://www.w3.org/2000/svg" xmlns:xlink="http://www.w3.org/1999/xlink" x="0px" y="0px"
	 width="265.167px" height="45px" viewBox="0 -66.708 265.167 45" enable-background="new 0 -66.708 265.167 45"
	 xml:space="preserve">
<g>
	<path fill="#7AC943" d="M70.789,130.988l2.73-3.271c1.89,1.56,3.87,2.55,6.27,2.55c1.89,0,3.03-0.75,3.03-1.98v-0.059
		c0-1.17-0.72-1.771-4.23-2.67c-4.229-1.082-6.959-2.252-6.959-6.42v-0.062c0-3.811,3.06-6.328,7.35-6.328
		c3.06,0,5.67,0.96,7.8,2.67l-2.4,3.479c-1.86-1.289-3.69-2.069-5.46-2.069s-2.7,0.812-2.7,1.83v0.062c0,1.381,0.9,1.83,4.53,2.762
		c4.26,1.108,6.66,2.639,6.66,6.299v0.062c0,4.171-3.18,6.511-7.709,6.511C76.518,134.348,73.309,133.238,70.789,130.988z"/>
	<path fill="#7AC943" d="M89.449,117.969h4.56v2.311c1.11-1.5,2.64-2.608,5.01-2.608c3.75,0,7.32,2.938,7.32,8.312v0.06
		c0,5.37-3.51,8.312-7.32,8.312c-2.43,0-3.93-1.108-5.01-2.399v6.899h-4.56V117.969z M101.777,126.037v-0.059
		c0-2.672-1.8-4.44-3.93-4.44c-2.13,0-3.9,1.771-3.9,4.44v0.059c0,2.672,1.77,4.441,3.9,4.441
		C99.978,130.479,101.777,128.738,101.777,126.037z"/>
	<path fill="#7AC943" d="M107.417,126.098v-0.062c0-4.589,3.27-8.367,7.95-8.367c5.37,0,7.83,4.17,7.83,8.729
		c0,0.358-0.03,0.778-0.06,1.199h-11.19c0.45,2.069,1.89,3.147,3.93,3.147c1.53,0,2.64-0.479,3.9-1.647l2.61,2.311
		c-1.5,1.859-3.66,3-6.57,3C110.987,134.408,107.417,131.018,107.417,126.098z M118.757,124.749c-0.27-2.04-1.47-3.422-3.39-3.422
		c-1.89,0-3.12,1.353-3.479,3.422H118.757z"/>
	<path fill="#7AC943" d="M124.308,126.098v-0.062c0-4.589,3.51-8.367,8.43-8.367c3.03,0,4.92,1.021,6.42,2.698l-2.789,3
		c-1.021-1.08-2.041-1.771-3.661-1.771c-2.28,0-3.9,2.012-3.9,4.381v0.06c0,2.463,1.59,4.44,4.08,4.44
		c1.529,0,2.58-0.66,3.689-1.711l2.67,2.699c-1.561,1.711-3.36,2.939-6.571,2.939C127.848,134.408,124.308,130.688,124.308,126.098z
		"/>
	<path fill="#7AC943" d="M140.808,112.148h4.8v4.05h-4.8V112.148z M140.928,117.969h4.56v16.078h-4.56V117.969z"/>
	<path fill="#7AC943" d="M147.316,129.428v-0.062c0-3.511,2.67-5.13,6.479-5.13c1.621,0,2.791,0.271,3.933,0.66v-0.271
		c0-1.892-1.17-2.938-3.451-2.938c-1.737,0-2.969,0.33-4.438,0.869l-1.139-3.479c1.77-0.778,3.51-1.29,6.239-1.29
		c2.487,0,4.291,0.66,5.431,1.802c1.2,1.198,1.739,2.97,1.739,5.13v9.329h-4.409v-1.737c-1.109,1.229-2.64,2.039-4.859,2.039
		C149.806,134.348,147.316,132.607,147.316,129.428z M157.787,128.378v-0.812c-0.781-0.358-1.801-0.6-2.91-0.6
		c-1.951,0-3.149,0.778-3.149,2.219v0.062c0,1.229,1.021,1.947,2.489,1.947C156.347,131.197,157.787,130.027,157.787,128.378z"/>
	<path fill="#7AC943" d="M164.746,112.148h4.562v21.897h-4.562V112.148z"/>
</g>
<g>
	<path fill="#3FA9F5" d="M169.576,112.167h16.65v4.282H174.4v4.439h10.408v4.284H174.4v4.599h11.982v4.283h-16.81L169.576,112.167
		L169.576,112.167z"/>
	<path fill="#3FA9F5" d="M186.794,117.296h5.078l3.782,11.228l3.816-11.228h4.981l-6.654,16.888h-4.352L186.794,117.296z"/>
	<path fill="#3FA9F5" d="M203.888,125.771v-0.062c0-4.784,3.438-8.727,8.357-8.727c5.645,0,8.229,4.347,8.229,9.104
		c0,0.375-0.031,0.812-0.062,1.25H208.65c0.473,2.156,1.984,3.283,4.131,3.283c1.609,0,2.775-0.501,4.1-1.721l2.744,2.408
		c-1.576,1.938-3.848,3.127-6.906,3.127C207.642,134.434,203.888,130.898,203.888,125.771z M215.81,124.361
		c-0.285-2.125-1.545-3.562-3.562-3.562c-1.988,0-3.281,1.404-3.658,3.562H215.81z"/>
	<path fill="#3FA9F5" d="M222.464,117.296h4.791v2.376c1.104-1.406,2.524-2.689,4.953-2.689c3.627,0,5.737,2.377,5.737,6.226v10.853
		h-4.793v-9.351c0-2.252-1.071-3.409-2.901-3.409c-1.828,0-2.996,1.157-2.996,3.409v9.351h-4.791V117.296L222.464,117.296z"/>
	<path fill="#3FA9F5" d="M241.322,129.305v-7.943h-2.018v-4.062h2.018v-4.287h4.795v4.285h3.973v4.062h-3.973v7.162
		c0,1.094,0.473,1.625,1.543,1.625c0.883,0,1.672-0.217,2.365-0.592v3.812c-1.008,0.596-2.174,0.974-3.783,0.974
		C243.31,134.341,241.322,133.182,241.322,129.305z"/>
	<path fill="#3FA9F5" d="M250.722,131.838l2.049-3.127c1.83,1.312,3.754,2.001,5.33,2.001c1.389,0,2.02-0.5,2.02-1.25v-0.063
		c0-1.032-1.641-1.377-3.5-1.938c-2.367-0.688-5.047-1.783-5.047-5.036v-0.062c0-3.409,2.773-5.314,6.182-5.314
		c2.146,0,4.479,0.719,6.31,1.938l-1.828,3.285c-1.672-0.97-3.344-1.562-4.571-1.562c-1.168,0-1.769,0.5-1.769,1.154v0.062
		c0,0.938,1.606,1.376,3.438,2.001c2.362,0.782,5.106,1.908,5.106,4.972v0.063c0,3.722-2.81,5.408-6.465,5.408
		C255.609,134.37,252.96,133.59,250.722,131.838z"/>
</g>
<g>
	<path fill="#0071BC" d="M54.294,96.82c2.393,4.615,3.075,10.965,1.512,16.176c-1.573,6.158-6.739,12.379-12.78,14.916
		c-6.781,3.32-16.419,2.49-22.474-1.846c-8.412-5.76-11.851-15.691-9.312-25.489c1.547-5.827,6.188-11.705,11.854-14.406
		c3.191-1.571,6.667-2.415,10.47-2.485C42.235,83.697,50.515,88.794,54.294,96.82z M34.015,84.814
		c0.142,0.906,0.105,2.149,0.034,3.174c0-0.104,0.05-0.195,0.107-0.277c0.163-0.092,0.304,0.044,0.376,0.163
		c0.015,0.161,0.076,0.438-0.063,0.526c0.14,0.024,0.209-0.077,0.335-0.077c2.631,0.192,5.078,0.966,7.255,2.204v-0.055
		c0.449-0.219,1.023-0.506,1.489-0.111c0.551-0.207,0.659,0.473,1.107,0.55c0.536,0.327,1.146,0.922,1.212,1.555
		c0.11,0.208,0.428,0.354,0.47,0.573c0.371-0.777,1.103-1.33,1.746-2.01l0.392-0.163c-3.479-3.312-7.61-5.144-12.21-5.773
		C35.537,84.965,34.727,85.034,34.015,84.814z M32.735,84.932c-4.628,0.184-8.731,1.758-12.383,4.383
		c-0.698,0.479-1.32,1.215-2.031,1.625h0.102c0.91,0.674,1.77,1.625,2.537,2.463l0.057-0.17c3.362-3.059,7.273-4.74,11.764-4.948
		l-0.11-0.272l-0.031-2.759L32.735,84.932z M36.682,86.667l-1.653,0.712c-0.141-0.059-0.405-0.125-0.494,0.061
		c-0.073,0.053,0,0.139,0.023,0.193c0.608,0.779,1.662,0.344,2.419,0.192c0.552,0.233,1.079-0.043,1.494-0.386v-0.084
		C38.081,86.809,37.345,86.725,36.682,86.667z M33.992,89.509l0.119,0.218c-0.023,1.069,0.045,2.209-0.063,3.211
		c0.447-0.15,0.894,0.033,1.331,0.047c2.256,0.367,4.381,1.095,6.193,2.479c-0.221-0.231-0.485-0.495-0.536-0.827
		c0.041-0.048,0.083-0.061,0.143-0.048c0.017-0.354-0.362-0.536-0.416-0.858c0.054-0.065,0.138-0.135,0.254-0.102
		c0.39,0.368,0.721,0.77,1.012,1.186c0.248-0.103,0.46,0.057,0.639,0.19c0.335,0.197,0.13,0.628,0.377,0.854
		c0.047,0.678,0.88,1.061,0.837,1.738c0.015,0.164,0.208,0.029,0.281,0.11l0.683,0.849c-0.125,0.162-0.023,0.36,0.114,0.475
		c0.309,0.137,0.482-0.254,0.796-0.197c0.444,0.254-0.07,0.546-0.028,0.829c0.174,0.009,0.39-0.136,0.529,0.035
		c0.059,0.259-0.206,0.417-0.305,0.575c0,0.25,0.198,0.194,0.382,0.25c0.209-0.008,0.341,0.246,0.279,0.414
		c0.572,0.599-0.172,1.248,0.104,1.877c0.18,0.414-0.041,0.816-0.296,1.123c0.01,0.508-0.447,0.826-0.634,1.248l-0.589,0.111
		c-0.309,0.311,0.268,0.692-0.039,0.887l1.281,0.023l-0.135-0.137c-0.189-0.508-0.143-1.187,0.175-1.631
		c0.197-0.42,0.237-0.914,0.603-1.266c0.079-0.023,0.234-0.175,0.295,0c0.028,0.389-0.006,0.836-0.192,1.186
		c0.374,0.529,0.324,1.22,0.355,1.873c1.15-0.069,2.262-0.094,3.372-0.08l-0.101-0.221c-0.172-2.132-0.612-4.143-1.493-5.957
		c-0.237,0.01-0.413,0.209-0.682,0.139c-0.096-0.036-0.153-0.129-0.146-0.238c-0.456-0.436-0.744-1.009-1.27-1.395
		c-0.586,0.053-0.853-0.625-1.377-0.688c-0.47-0.198-0.149-0.96-0.828-0.755c-0.336-0.141-0.657-0.387-0.722-0.77
		c0-0.601-0.117-1.246-0.651-1.635c-0.416-0.146-0.6,0.401-1.017,0.307c-0.225-0.113-0.117-0.414-0.185-0.611
		c-0.083-0.168-0.28-0.292-0.243-0.521c0.54-0.718-0.658-0.709-0.393-1.406c-0.068-0.508-0.584-0.702-0.845-1.101
		c-1.781-0.811-3.571-1.362-5.583-1.603C34.888,89.634,34.428,89.738,33.992,89.509z M44.411,89.534
		c-0.239,0.229-0.449-0.208-0.662,0.056c-0.013,0.124,0.01,0.238,0.08,0.33c0.481,0.174,0.536,0.874,1.159,0.712
		c0.182-0.208-0.113-0.425-0.054-0.69C44.848,89.702,44.646,89.604,44.411,89.534z M23.761,92.624
		c-0.711,0.498-1.361,1.14-2.101,1.582c0.847,0.54,1.551,1.438,2.322,2.147l0.077,0.219c1.963-1.875,4.338-2.965,6.906-3.495
		c0.609-0.062,1.217-0.267,1.819-0.14c-0.048-1.09-0.141-2.231-0.025-3.311C29.415,89.818,26.435,90.831,23.761,92.624z
		 M49.324,91.581c-0.627,0.846-1.493,1.642-2.294,2.463l-0.39,0.076c0.247,0.056,0.307,0.345,0.468,0.519
		c0.85,0.446,1.07,1.348,1.803,1.852c0.413,0.861,1.363,1.531,1.397,2.525c1.006,2.203,1.691,4.543,1.757,7.142l-0.103,0.138
		c0.113,0,0.209-0.048,0.281-0.102l3.318-0.058c-0.224-0.321-0.133-0.79-0.188-1.186C54.934,99.824,52.751,95.441,49.324,91.581z
		 M17.691,91.659c-3.283,3.646-5.303,7.809-5.895,12.559c-0.125,0.695-0.055,1.406-0.187,2.109c1.159-0.095,2.408-0.095,3.556,0
		l-0.081-0.446c0.222-3.669,1.393-6.939,3.453-9.859c0.52-0.584,0.898-1.321,1.541-1.76c-0.743-0.703-1.526-1.521-2.311-2.289
		L17.691,91.659z M32.814,94.066l-0.196,0.107c-2.922,0.211-5.455,1.428-7.677,3.258c0.882,0.613,1.664,1.592,2.45,2.289
		c0.063-0.084,0.121-0.16,0.177-0.254c1.087-0.781,2.215-1.492,3.512-1.822c0.576-0.047,1.131-0.326,1.732-0.188
		C32.686,96.377,32.686,95.18,32.814,94.066z M34.015,94.085l0.122,0.25l-0.024,3.12l0.312-0.057
		c1.903,0.263,3.643,0.877,5.154,2.105l0.082,0.236c0.518-0.717,1.301-1.342,1.911-2.033l0.569-0.333l-0.277-0.116
		c-1.257-1.055-2.638-1.863-4.138-2.392C36.562,94.455,35.287,94.284,34.015,94.085z M20.822,94.949l-0.025,0.216l-1.238,1.581
		c-2.028,2.796-3.005,6.029-3.292,9.548l3.15-0.058l0.303,0.115c-0.126-0.082-0.091-0.22-0.14-0.334
		c0.255-3.275,1.403-6.199,3.674-8.639C22.38,96.617,21.569,95.814,20.822,94.949z M42.829,98.146l-0.055,0.141
		c-1.059,1.095-2.22,2.238-3.229,3.369c0.068,0.135,0.183,0.259,0.312,0.332c0.051-0.278,0.195-0.516,0.218-0.803
		c0.277-0.381,0.688-0.139,1.045-0.06c0.552-0.127,1.064,0.125,1.631,0.118c0.413,0.203,0.453,0.729,0.837,0.941
		c0.095,0.153,0.021,0.32-0.116,0.433c0.116,0.864,0.525-0.224,0.962-0.019c0.185,0.071,0.413,0.043,0.551,0.236
		c0.07,0.357,0.505,0.289,0.529,0.633c-0.039,0.176-0.221,0.223-0.328,0.313c0.096,0.344-0.362,0.565-0.201,0.933
		c0.666,0.125,0.686-0.646,1.002-0.994c-0.175-0.597-0.301-1.205-0.646-1.732c-0.38-0.084-0.603-0.523-0.993-0.609
		c-0.73-0.289,0.121-0.746,0.028-1.184C43.989,99.457,43.37,98.805,42.829,98.146z M24.114,98.266
		c-1.584,1.901-2.665,3.994-3.097,6.373c-0.127,0.553-0.057,1.188-0.273,1.713c0.404-0.185,0.991-0.115,1.439-0.058
		c-0.261-0.138-0.043-0.471-0.194-0.653c-0.035-0.291-0.082-0.644,0.194-0.83c-0.034-0.474,0.473-0.713,0.519-1.142
		c0.129-0.481,0.679-0.16,0.94-0.414c0.176-0.089,0.024-0.248,0.024-0.376c0.226-0.306,0.585-0.3,0.858-0.47
		c0.193-0.302,0.449-0.626,0.772-0.806c0.697,0.021,0.713-0.941,1.361-0.965C25.763,99.958,24.909,99.043,24.114,98.266z
		 M34.049,98.643c0.224,0.654,0.028,1.623,0.165,2.381l0.838,0.274c0.237-0.399,0.766-0.481,0.998-0.856
		c0.145-0.127,0.32,0,0.439,0.14c0.034,0.308-0.053,0.618-0.143,0.917c-0.306,0.619-1.043,0.705-1.458,1.148
		c0.266,0.155,0.416-0.127,0.635-0.184c0.32,0.033,0.57,0.311,0.766,0.52c0.208,0.09,0.403-0.034,0.586-0.105
		c0.128-0.955,1.321-0.818,1.677-1.717l-0.218,0.087c-0.093-0.128-0.32-0.074-0.31-0.282c0.195-0.183,0.448-0.473,0.692-0.549
		c-1.037-0.645-2.099-1.198-3.271-1.497C34.98,98.812,34.496,98.805,34.049,98.643z M27.863,101.049h0.257
		c0.276,0.271,0.724,0.219,0.929,0.579c0.103,0.208-0.19,0.187-0.18,0.362c0.056,0.043,0.136,0.053,0.18,0.142
		c0.22,0.081,0.174-0.13,0.256-0.224c0.282-0.29,0.331,0.279,0.609,0.279c0.203-0.131,0.478-0.145,0.616,0.082
		c0.183-0.164,0.574-0.008,0.63-0.314c0.354-0.378,0.158-0.962,0.688-1.207c0.185,0.107-0.01,0.277,0.058,0.441
		c0.354,0.151,0.76-0.301,1.039,0.059c-0.258-0.755-0.188-1.682-0.163-2.51C30.93,98.973,29.223,99.604,27.863,101.049z
		 M33.441,102.958c-0.184-0.209-0.582-0.084-0.823,0c0.231,0.229,0.138,0.642,0.279,0.931c-0.346,0.574-0.917,0.701-1.459,0.862
		c-0.153,0.181-0.121,0.586-0.474,0.549c-0.114,0.252-0.506,0.396-0.352,0.773c-0.185,0.39-0.092,0.896-0.2,1.321
		c-0.684,0.429-0.489-0.562-0.833-0.77l-0.116,0.195c-0.14,0.033-0.227-0.049-0.323-0.141c-0.104-0.035-0.271-0.07-0.364,0.024
		c-0.15,0.255-0.378,0.46-0.318,0.803c-0.072,0.208-0.414,0.142-0.372,0.357c0.38-0.013,0.794-0.083,1.16-0.16
		c0.264,0.069,0.481-0.127,0.754-0.138c0.09,0.045,0.203,0.138,0.165,0.277h0.086c0.183-0.14,0.27-0.346,0.183-0.554
		c0.026-0.239,0.293-0.239,0.447-0.306c0.155,0.064,0.062,0.213,0.083,0.326c0.518,0.195-0.124,0.576-0.194,0.852
		c-0.135,0.219,0,0.714-0.436,0.646c-0.086-0.025-0.133-0.104-0.118-0.201h-0.052c-0.016,0.188,0.124,0.44,0.307,0.522
		c0.321-0.267,0.336-0.717,0.792-0.776c0.244-0.254-0.103-0.646,0.252-0.85c0.603-0.01,1.244-0.264,1.715,0.217
		c-0.034,0.209-0.119,0.303,0.058,0.471c-0.119,0.268-0.199,0.554-0.413,0.775c0.055,0.151,0.008,0.336-0.115,0.438
		c-0.164,0.703-0.966,0.373-1.44,0.613c0.73,0.549,1.599,0.756,2.54,0.689c0.49-0.025,0.278-0.635,0.537-0.908
		c0.164-0.806,0.893-0.255,1.344-0.474c0.175-0.341,0.341-0.679,0.386-1.068c-0.283-0.187-0.398-0.53-0.309-0.86
		c-0.195-0.26-0.169-0.75-0.595-0.793c-0.068-0.095-0.011-0.207,0.044-0.277c-0.01-0.252,0.244-0.333,0.31-0.533
		c-0.26-0.17-0.197-0.546-0.17-0.768c-0.447,0.125-0.494-0.452-0.822-0.584c-0.086-0.271-0.377-0.312-0.611-0.364
		c-0.553,0.271-0.64-0.413-1.055-0.573c-0.043-0.125-0.133-0.311,0-0.413c0.205-0.175,0.483-0.028,0.725-0.034L33.441,102.958z
		 M23.446,105.794c-0.93,0.304,0.154,1.007-0.079,1.583c-0.128,0.332-0.466,0.021-0.711,0.164l-0.09,0.602
		c-0.137,0.362-0.587,0.098-0.793,0.34c-0.148,0.231,0.018,0.475,0.136,0.656c-0.321,0.731,0.721,0.963,0.715,1.629
		c0.321,0.416-0.047,1.019,0.411,1.387c0.101,0.746-0.099,1.76,0.551,2.341l0.115,0.714c0.138,0.498-0.588,0.371-0.494,0.803
		c0.138-0.062,0.172,0.117,0.18,0.165v-0.022c0.886-1.028,1.908-2.109,2.962-3.018l-0.435-0.438c-0.825-1.219-1.47-2.518-1.778-3.95
		l-0.333-0.168c-0.011,0.371-0.182,0.66-0.161,1.026l-0.114,0.137c-0.24-0.014-0.394-0.207-0.593-0.336
		c-0.051-0.124-0.178-0.33,0.022-0.438c0.109-0.006,0.19,0.025,0.273,0.084c0.101-0.127,0.057-0.311,0.116-0.474
		c0.034-0.279-0.21-0.529-0.037-0.767c0.221-0.032,0.381,0.235,0.475,0.381c0.217,0.072,0.389-0.108,0.566-0.192
		c0-0.188,0.28-0.457-0.019-0.575c0.161-0.443,0.047-0.92-0.026-1.357C24.182,105.689,23.761,105.76,23.446,105.794z
		 M44.987,106.189c-0.093,0.043-0.214,0.009-0.33,0.021C44.753,106.165,44.88,106.189,44.987,106.189z M44.275,107.314l0.355,0.357
		c0.356,0.241,0.114,0.76,0.499,0.969c0.445,0.232,0.602,0.754,0.803,1.141c0.07-0.105,0.07-0.235,0.103-0.336
		c0.155-0.631,0.133-1.344,0.33-1.969C45.673,107.512,44.88,107.581,44.275,107.314z M52.15,107.477l-0.209-0.136l0.124,0.31
		c-0.192,3.828-1.465,7.213-3.646,10.218c-0.427,0.501-0.827,1.123-1.362,1.478c0.876,0.694,1.841,1.728,2.569,2.521l0.091-0.171
		c3.519-4.01,5.519-8.662,5.734-14.043l0.14-0.276l-0.174,0.078L52.15,107.477z M47.527,107.398
		c0.073,0.705-0.118,1.381-0.165,2.068l0.388,0.413c0.102,0.162,0.069,0.402-0.081,0.53c-0.17,0.102-0.374,0.09-0.536-0.035
		c-0.482,1.542-1.05,3.057-2.007,4.395c-0.385,0.482-0.75,1.152-1.247,1.406l1.05,0.915c0.054-0.057,0.02-0.149,0.029-0.229
		c0-0.137,0.071-0.299,0.24-0.277c0.507-0.008,0.519,0.527,0.81,0.807c-0.057,0.439,0.316,0.782,0.19,1.188
		c2.909-3.067,4.347-6.813,4.615-10.966l0.158-0.184c-1.029,0.102-2.121,0.032-3.187,0.041L47.527,107.398z M20.687,107.432
		l0.169,0.276c0.021,0.759,0.328,1.483,0.163,2.253c0.132-0.217,0.166-0.516,0.448-0.65c0.031-0.207-0.283-0.264-0.242-0.472
		c0.219-0.433,0.005-1.118,0.572-1.303C21.397,107.607,21.031,107.688,20.687,107.432z M15.147,107.477l-0.313,0.116l-3.196-0.024
		c0.184,3.682,1.162,7.029,2.814,10.104c0.814,1.516,2.013,2.883,3.064,4.303l2.285-2.375l0.276-0.113
		c-0.394-0.274-0.738-0.725-1.071-1.102c-0.377-0.105-0.765-0.373-0.957-0.734c-0.123-0.133-0.016-0.366-0.143-0.459l-0.138,0.177
		c-0.4,0.198-0.549-0.224-0.826-0.388c-0.365-0.194-0.191-0.877-0.672-0.75c-0.186-0.008-0.246-0.222-0.358-0.33
		c-0.448,0.045-0.56-0.452-0.803-0.693c-0.045,0.102,0,0.236-0.138,0.307c-0.458,0.107-0.622-0.455-0.925-0.687
		c-0.089,0.032-0.144,0.124-0.258,0.103c-0.276-0.242-0.458-0.584-0.472-0.967c-0.376-0.425-0.209-1.104-0.135-1.623
		c0.067-0.14,0.265-0.214,0.226-0.387c0.104-0.243,0.358-0.264,0.599-0.276c0.096,0.044,0.183,0.138,0.23,0.218
		c0.148-0.096,0.482,0.016,0.354-0.319c0.195-0.171,0.484-0.229,0.746-0.274c0.186,0.23,0.274,0.494,0.521,0.713l-0.163-0.256
		c-0.279-1.13-0.498-2.279-0.548-3.496c0.01-0.07-0.149-0.1-0.064-0.17l0.027,0.032C15.12,107.868,15.099,107.652,15.147,107.477z
		 M19.64,107.477l-0.253,0.116c-1.065-0.024-2.183,0.065-3.202-0.084l0.14,0.197l0.25,2.114c0.107,0.818,0.466,1.601,0.442,2.408
		c0.131-0.179,0.048-0.521,0.358-0.555c-0.122-0.254,0.24-0.468,0.037-0.693c0.101-0.556,0.167-1.117,0.656-1.519
		c0.583-0.024,0.626-0.795,1.214-0.83c0.297-0.014,0.485,0.39,0.606,0.532C19.525,108.723,19.546,107.98,19.64,107.477z
		 M25.556,108.896c0.327,0.594,0.497,1.271,0.83,1.869c0.207,0.533,0.675,0.942,0.875,1.463c0.22-0.416,0.657-0.75,0.959-1.127
		c0.025-0.172-0.009-0.326-0.098-0.455c-0.104-0.235-0.015-0.578-0.194-0.789c-0.297,0.103,0.101,0.406-0.023,0.574
		c-0.132,0.084-0.265-0.021-0.274-0.138c-0.268-0.042-0.47-0.272-0.554-0.511c0.219-0.141-0.053-0.195-0.116-0.311
		c-0.112-0.061-0.121-0.048-0.217,0.057c-0.054,0-0.124,0.013-0.177-0.024C26.563,108.848,25.835,109.242,25.556,108.896z
		 M29.163,109.802c-0.068,0.283-0.26,0.537-0.467,0.744l0.028,0.024c0.282-0.195,0.471-0.551,0.829-0.574L29.163,109.802z
		 M38.253,110.74c0.013,0.178,0.034,0.408,0.182,0.56c0.454-0.071,0.254,0.548,0.674,0.494c0.231-0.071,0.013-0.265,0.085-0.417
		c-0.07-0.343-0.405-0.376-0.644-0.584c-0.021-0.076,0.031-0.128,0.062-0.184C38.435,110.516,38.355,110.613,38.253,110.74z
		 M44.771,110.768c-0.335-0.027-0.735,0.17-1.022-0.058c-0.102-0.097-0.175,0.042-0.16,0.136c-0.116,0.178-0.234,0.397-0.504,0.313
		c-0.208-0.093-0.208-0.313-0.282-0.476c0.015,0.125-0.028,0.243-0.051,0.36c-0.241,0.255-0.321,0.497-0.498,0.772
		c-0.239,0.263-0.625,0.17-0.881,0.386c-0.045,0.556-0.651,0.44-1,0.608c-0.02,0.072,0.053,0.086,0.092,0.141
		c0.16,0.044,0.377,0.044,0.498-0.112c0.476,0.125,0.374-0.481,0.65-0.688c0.242-0.035,0.473-0.238,0.725-0.084
		c0.25,0.311,0.307,0.763,0.27,1.166c-0.27,0.273-0.128,0.72-0.332,1.041c0.043,0.381-0.415,0.559-0.352,0.936
		c-0.147,0.169-0.405,0.199-0.638,0.199c-0.902-0.35-1.851-0.572-2.873-0.66c-0.09,0.035-0.148,0.113-0.138,0.216
		c0.413,0.224,0.928,0.236,1.36,0.418c0.394,0.106,0.659,0.591,1.153,0.44c0.406-0.232,1.102,0.136,1.371-0.307
		c-0.042-0.427,0.329-0.732,0.507-1.099l0.135-0.034c0.234,0.236,0.221,0.592,0.327,0.859c0.33-0.35,0.575-0.723,0.868-1.081
		c0.755-1.109,1.404-2.287,1.675-3.556C45.367,110.613,45.057,110.673,44.771,110.768z M30.277,110.768
		c-0.507,0.808-1.444,1.539-2.135,2.287c1.23,1.016,2.61,1.648,4.141,1.908c0.079-0.307-0.049-0.697,0.117-0.961
		c0.112-0.25,0.426-0.24,0.656-0.2c0.139-0.009,0.216-0.179,0.139-0.297c-0.335-0.065-0.189-0.44-0.297-0.644
		c0.009-0.121,0.2-0.094,0.159-0.243c-0.23-0.183,0.111-0.388-0.084-0.586c0.084-0.056,0.137-0.185,0.256-0.185
		c-0.729,0.383-1.502-0.078-2.147-0.367C30.783,111.312,30.344,111.143,30.277,110.768z M36.955,112.779
		c-0.038,0.092-0.156,0.25,0,0.306c0.278-0.286,0.862-0.276,0.887-0.692C37.438,112.343,37.233,112.562,36.955,112.779z
		 M38.253,113.646c-0.358,0-0.538,0.274-0.808,0.492c-0.321,0.187-0.479-0.346-0.744-0.217c0.009,0.059,0.071,0.081,0.113,0.1
		c0.069,0.086,0.095,0.25,0,0.332c-0.388,0.355-0.573-0.168-0.937-0.133v0.133c0.011,0.084-0.023,0.211-0.14,0.168
		c-0.229-0.381-0.701-0.246-0.932-0.576c-0.144-0.084-0.284,0.021-0.381,0.113c-0.096,0.168-0.467-0.026-0.375,0.273
		c-0.285,0.104-0.314,0.416-0.527,0.598c-0.354-0.058-0.515,0.346-0.85,0.336c0.039,0.072,0,0.18,0.11,0.197
		c0.205,0.092,0.412,0.112,0.658,0.079c0.353-0.552,0.926-0.097,1.411-0.302c0.301,0.056,0.09,0.381,0.312,0.5
		c0.472-0.153,0.825,0.4,1.206,0.051c-0.024-0.542,0.585-0.495,0.92-0.639c0.515-0.307,1.103-0.719,1.042-1.403L38.253,113.646z
		 M27.159,113.966c-0.684,0.829-1.489,1.693-2.296,2.345c0.356,0.024,0.551,0.416,0.858,0.586c1.72,1.439,3.866,2.131,5.875,2.619
		l-0.55-0.244c-0.411-0.476-1.001-1.025-1.025-1.682c0.413-0.142,0.371-0.6,0.509-0.91c0.341-0.371,0.755-0.566,1.204-0.67
		c-1.154,0.485-2.179-0.378-3.142-0.828C28.097,114.816,27.457,114.521,27.159,113.966z M43.13,117.177l-0.084-0.223
		c-0.1,0.276-0.307,0.446-0.516,0.66c0.015,0.18-0.05,0.456,0.16,0.581c0.465,0.154,1.069,0.449,1.173,0.984
		c-0.188,0.508-1.158,0.978-0.551,1.523c0.19,0.275-0.286,0.378-0.203,0.604l0.17-0.217c0.682-0.541,1.434-1.044,2.04-1.716h0.083
		c-0.141-0.044-0.309,0.094-0.47,0.024c-0.328-0.149-0.383-0.44-0.383-0.771L43.13,117.177z M24.633,117.618l-0.046-0.086
		l0.046,0.142V117.618z M24.999,118.111c-0.152-0.098-0.247-0.188-0.281-0.36L24.999,118.111z M25.083,118.198
		c0.065,0.278,0.433,0.448,0.333,0.794c-0.195,0.307-0.602,0.316-0.92,0.307c-0.654-0.101-1.138,0.391-1.755,0.463
		c-0.564,0.176-0.761-0.519-1.273-0.463c3.187,2.803,6.84,4.545,11.127,4.774l0.323,0.224l-0.133-0.395v-3.034l-0.283,0.116
		C29.704,120.844,27.258,119.822,25.083,118.198z M46.338,120.354l-0.057-0.276c-0.313,0.633-1.028,1.03-1.568,1.517
		c-0.751,0.752-1.974,0.913-2.354,1.988c-0.401,0.37-0.54,0.943-1.104,1.159c-0.203,0.546-0.789,0.509-1.121,0.911
		c-0.969,0.865-1.592-0.549-2.462-0.723l-1.758,0.312c-0.611,0-1.222,0.22-1.802,0.022c0.078,1.176,0.078,2.438,0,3.615l0.216-0.139
		c5.556-0.247,10.336-2.348,14.442-6.074L46.338,120.354z M20.799,120.318l-0.036,0.136l-2.364,2.38
		c3.589,3.105,7.643,5.111,12.264,5.745c0.734,0.127,1.571,0.06,2.281,0.274l-0.163-0.274v-3.119l0.114-0.174l-0.359,0.094
		C28.052,125.066,24.084,123.477,20.799,120.318z M33.937,121.12l0.176,0.254c0,0.949,0.117,1.911,0,2.849
		c0.854-0.295,1.844-0.246,2.761-0.4c-0.184-0.068-0.366-0.111-0.504-0.295c-0.538-0.035-0.793-0.598-0.963-1.027
		c-0.078-0.305,0.132-0.561,0.253-0.833c-0.229-0.467-0.94-0.124-1.365-0.295C34.181,121.279,34.1,121.145,33.937,121.12z"/>
	<g>
		<path fill="#0071BC" d="M55.096,88.047c1.699,1.512,2.454,3.464,2.946,5.491l0.279,0.639c-2.459-1.758-4.677-4.127-6.235-6.622
			l-1.911-1.933C51.848,86.33,53.663,86.76,55.096,88.047z"/>
		<path fill="#0071BC" d="M12.318,91.05c-1.123,1.394-2.558,2.315-3.832,3.507c0.684-1.428,0.712-3.123,1.69-4.439
			c1.386-2.426,3.968-3.277,6.259-4.172C14.751,87.427,13.577,89.301,12.318,91.05z"/>
		<path fill="#0071BC" d="M61.086,93.596c0.541,2.408-0.244,4.771,0.254,7.211l-0.025,0.023c-1.319-2.592-4.106-3.809-6.038-5.881
			c-1.11-1.231-1.594-2.729-1.867-4.312c1.097,2.656,4.072,3.248,5.775,5.477c0.567,0.516,0.752,1.23,1.123,1.818l0.057-0.057
			c-0.979-2.088-1.309-4.45-1.991-6.684c-0.343-0.965-1.022-1.92-1.927-2.535C58.676,89.12,60.617,91.453,61.086,93.596z"/>
		<path fill="#0071BC" d="M10.228,89.072c-2.281,1.562-2.115,4.369-2.854,6.711c-0.231,0.859-0.629,1.65-0.825,2.539l0.057,0.043
			c0.386-1.004,1.043-1.944,1.88-2.762c1.618-1.492,4.017-2.424,4.807-4.637c-0.036,3.077-2.605,5.489-5.053,7.215
			c-1.016,0.881-1.997,1.895-2.542,3.033c-0.061-0.766,0.113-1.552,0.056-2.38c-0.262-2.675-0.457-5.741,1.44-7.728
			C8.014,90.086,9.062,89.371,10.228,89.072z"/>
		<path fill="#0071BC" d="M62.524,94.12c2.028,2.762,2.476,7.155,0.996,10.325c-0.552,1.343-0.941,2.773-1.16,4.256
			c-0.101-0.258-0.127-0.6-0.214-0.885c-0.805-3.096-3.749-5.308-4.947-8.23c-0.381-0.952-0.699-1.947-0.893-2.977
			c1.289,2.379,4.462,3.613,5.337,6.232c0.349,0.668,0.329,1.496,0.543,2.21c0.048,0,0.096-0.034,0.096-0.081
			c-0.386-2.701-0.267-5.533,0.098-8.207c-0.02-1.447-0.161-2.851-0.961-3.963C61.937,93.094,62.165,93.674,62.524,94.12z"/>
		<path fill="#0071BC" d="M5.363,93.255c-1.742,2.663-0.292,6.006-0.375,9.038l-0.232,3.094c0.038,0.023,0.038,0.11,0.122,0.077
			c0.096-0.341,0.121-0.711,0.194-1.065c0.409-2.504,2.569-4.269,4.472-5.994c0.402-0.446,0.762-0.909,0.962-1.438
			c-0.145,1.246-0.538,2.493-1.055,3.646c-1.465,2.875-4.197,5.24-4.695,8.527c-0.237-3.16-2.39-5.513-2.172-8.861
			c-0.071-2.719,1.06-4.938,2.644-6.961C5.274,93.291,5.31,93.244,5.363,93.255z"/>
		<path fill="#0071BC" d="M64.427,112.032c-1.211,1.72-2.662,3.313-3.79,5.059c0.13-1.377,0.3-3.082-0.25-4.393
			c-0.932-2.818-1.743-5.683-2.012-8.777l0.031-1.183c0.704,3.158,3.812,5.332,3.621,8.882c0.071,0.86-0.195,1.588-0.353,2.342
			l0.053,0.058l0.137-0.164c0.462-1.731,0.696-3.567,1.401-5.188c1.025-2.336,2.301-4.692,1.768-7.513
			C66.592,104.486,66.126,108.928,64.427,112.032z"/>
		<path fill="#0071BC" d="M4.48,110.93c0.333,1.162,0.417,2.414,0.882,3.506c0.047,0.023,0.085-0.02,0.117-0.055
			c-1.185-3.312,0.515-6.39,2.225-8.972c0.428-0.7,0.667-1.487,0.875-2.292c0.178,1.498-0.194,3.217-0.414,4.775
			c-0.422,1.979-1.046,3.86-1.583,5.777c-0.358,1.195-0.264,2.557-0.084,3.803l-0.171-0.136c-1.251-2.312-3.735-4.114-4.472-6.649
			c-0.611-2.012-1.009-4.352-0.597-6.545c0.19-0.849,0.35-1.721,0.715-2.51C1.268,105.223,3.691,107.814,4.48,110.93z"/>
		<path fill="#0071BC" d="M59.674,117.471c-0.079,1.557-0.582,2.94-1.396,4.178h0.128c1.108-1.446,1.971-2.985,3.267-4.371
			c1.993-1.93,4.038-3.905,4.3-6.592c0.683,4.472-1.837,8.4-5.548,10.933c-1.531,0.999-3.081,1.931-4.562,3.073v-0.139
			c2.26-3.753,1.158-8.894,2.543-13.011l0.522-1.382C58.645,112.723,59.752,114.895,59.674,117.471z"/>
		<path fill="#0071BC" d="M10.274,122.562c0.242,0.848,0.737,1.608,1.053,2.428c-3.42-2.336-8.097-4.559-9.61-8.836
			c-0.642-1.479-0.712-3.307-0.572-4.995c0.271,3.804,4.368,5.821,6.269,8.974c0.444,0.643,0.844,1.357,1.44,1.901
			c-0.098-0.408-0.471-0.757-0.613-1.171c-0.67-1.325-0.915-2.895-0.749-4.502c0.179-1.939,1.004-3.75,0.697-5.795
			C9.856,114.171,9.348,118.662,10.274,122.562z"/>
		<path fill="#0071BC" d="M54.57,125.4c-0.585,1.025-1.425,2.012-2.341,2.82c0.301-0.018,0.56-0.279,0.83-0.451
			c2.464-2.463,5.688-3.148,8.361-5.153c1.068-0.851,2.046-1.968,2.516-3.179c-0.504,4.092-4.573,7.922-8.4,9.142
			c-1.977,0.528-4.097,0.702-6.012,1.356c3.253-2.799,3.073-7.125,5.243-10.418c0.687-0.925,1.262-1.899,2.075-2.791
			C55.513,119.384,56.084,122.824,54.57,125.4z"/>
		<path fill="#0071BC" d="M13.492,121.95c1.14,2.829,1.582,6.024,4.244,8.166c-2.879-0.939-6.256-0.677-8.782-2.448
			c-2.775-1.704-5.239-4.593-5.769-7.764c1.913,4.326,6.703,4.677,9.911,7.312c0.586,0.517,1.205,0.968,1.872,1.274l0.034-0.035
			c-0.731-0.667-1.586-1.426-2.096-2.288c-1.88-2.606-1.233-6.265-2.634-9.076C11.549,118.624,12.723,120.216,13.492,121.95z"/>
		<path fill="#0071BC" d="M47.614,130.37c-0.713,0.465-1.596,0.545-2.32,0.892c1.033,0.018,1.977-0.347,3.006-0.451
			c3.799-0.604,8.147,0.017,10.801-3.215c-0.986,2.252-3.461,4.133-5.715,4.926c-3.879,1.463-7.779-0.326-11.496-0.922l-0.711-0.098
			v-0.027c1.767-0.396,3.499-0.928,4.906-2.205c2.093-2.002,3.937-4.062,6.258-5.641C50.624,125.825,50.442,128.96,47.614,130.37z"
			/>
		<path fill="#0071BC" d="M20.999,129.324c1.474,1.285,3.241,1.889,5.109,2.27c-0.444,0.159-1.038,0.109-1.521,0.236
			c-3.346,0.824-7.072,2.173-10.63,0.967c-2.315-0.727-4.691-2.559-5.843-4.832c3.047,3.487,8.046,2.326,12.135,3.233
			c0.574,0.075,1.11,0.31,1.718,0.218c-0.479-0.307-1.169-0.271-1.695-0.555c-3.197-1.127-3.674-4.594-5.405-6.928
			C17.094,125.406,18.953,127.404,20.999,129.324z"/>
		<path fill="#0071BC" d="M45.989,134.039c2.487,0.917,5.701,0.667,7.835-0.852c-1.095,1.373-2.592,2.349-4.149,2.897
			c-3.453,1.291-7.054-0.054-9.738-2.104c-1.094-0.686-2.062-1.688-3.478-1.597c-0.503-0.015-0.993,0.013-1.431,0.134
			c2.614,1.226,5.045,2.903,7.275,5.057c-0.379,0.425-0.867,0.826-1.32,1.193c-2.141-2.317-4.524-4.535-7.182-5.834
			c-0.517,0.072-1.01,0.375-1.484,0.635c-2.153,1.365-4.301,3.127-5.907,5.277l-1.388-1.133c2.213-2.234,4.644-3.971,7.319-5.215
			c-2.621-0.83-4.334,1.369-6.321,2.48c-2.329,1.625-5.668,2.389-8.463,1.268c-1.521-0.572-2.977-1.415-4.064-2.785
			c2.204,1.52,5.496,1.68,8.004,0.691c3.367-1.465,6.869-3.312,10.93-2.432c0.63,0.018,1.248,0.646,1.847,0.106
			c3.015-0.777,6.436-0.236,9.038,1.14L45.989,134.039z"/>
	</g>
</g>
<g>
	<path fill="#0071BC" d="M36.222,6.288c1.58,3.047,2.03,7.24,0.999,10.681c-1.039,4.068-4.45,8.176-8.439,9.849
		c-4.478,2.194-10.843,1.646-14.84-1.218c-5.556-3.803-7.826-10.362-6.15-16.831c1.022-3.848,4.087-7.729,7.828-9.513
		c2.107-1.037,4.402-1.595,6.913-1.641C28.258-2.378,33.725,0.988,36.222,6.288z M22.83-1.641c0.093,0.598,0.07,1.419,0.023,2.096
		c0-0.068,0.033-0.129,0.071-0.184c0.107-0.061,0.202,0.029,0.25,0.108c0.009,0.106,0.05,0.29-0.042,0.348
		c0.092,0.015,0.138-0.051,0.222-0.051c1.737,0.126,3.353,0.638,4.791,1.456V2.094c0.296-0.143,0.675-0.332,0.983-0.072
		c0.364-0.137,0.435,0.312,0.73,0.363c0.354,0.215,0.756,0.608,0.801,1.027c0.072,0.137,0.282,0.232,0.311,0.378
		c0.245-0.513,0.729-0.878,1.153-1.326l0.259-0.108c-2.297-2.187-5.025-3.396-8.062-3.812C23.834-1.542,23.3-1.496,22.83-1.641z
		 M21.984-1.563c-3.056,0.12-5.766,1.16-8.178,2.895c-0.46,0.315-0.871,0.802-1.34,1.072h0.067c0.601,0.445,1.168,1.074,1.675,1.626
		l0.039-0.113c2.219-2.02,4.802-3.129,7.768-3.267L21.942,0.47l-0.021-1.821L21.984-1.563z M24.591-0.418l-1.092,0.47
		c-0.093-0.038-0.267-0.082-0.326,0.041c-0.048,0.035,0,0.091,0.016,0.128c0.401,0.514,1.097,0.227,1.597,0.126
		c0.364,0.154,0.712-0.028,0.985-0.255V0.038C25.515-0.324,25.029-0.379,24.591-0.418z M22.815,1.458l0.079,0.145
		c-0.016,0.707,0.029,1.459-0.042,2.12c0.295-0.1,0.589,0.021,0.878,0.031c1.49,0.243,2.893,0.723,4.088,1.638
		c-0.145-0.153-0.32-0.327-0.353-0.545c0.026-0.032,0.055-0.041,0.094-0.032c0.011-0.234-0.24-0.354-0.274-0.567
		c0.035-0.043,0.091-0.09,0.167-0.066c0.257,0.242,0.477,0.507,0.668,0.783C28.285,4.896,28.426,5,28.544,5.089
		c0.221,0.13,0.085,0.415,0.248,0.563c0.032,0.448,0.582,0.7,0.552,1.148c0.01,0.108,0.138,0.021,0.186,0.073l0.451,0.561
		c-0.083,0.106-0.016,0.238,0.075,0.313c0.204,0.091,0.318-0.167,0.525-0.13c0.293,0.168-0.046,0.361-0.018,0.547
		c0.115,0.006,0.257-0.089,0.349,0.023c0.04,0.171-0.136,0.275-0.202,0.38c0,0.165,0.131,0.129,0.253,0.165
		c0.138-0.005,0.225,0.162,0.184,0.273c0.379,0.396-0.114,0.824,0.069,1.24c0.118,0.273-0.026,0.539-0.195,0.741
		c0.006,0.336-0.295,0.546-0.418,0.825l-0.389,0.074c-0.205,0.205,0.177,0.457-0.025,0.585l0.845,0.016l-0.09-0.091
		c-0.125-0.336-0.094-0.783,0.116-1.078c0.13-0.276,0.157-0.604,0.398-0.836c0.052-0.015,0.154-0.115,0.194,0
		c0.019,0.257-0.003,0.552-0.126,0.783c0.246,0.349,0.213,0.806,0.234,1.236c0.759-0.046,1.493-0.062,2.227-0.053l-0.067-0.146
		c-0.114-1.407-0.405-2.734-0.985-3.933c-0.158,0.007-0.272,0.137-0.451,0.091c-0.063-0.024-0.102-0.083-0.096-0.157
		c-0.301-0.288-0.491-0.666-0.839-0.921c-0.387,0.035-0.563-0.413-0.91-0.455c-0.311-0.131-0.099-0.633-0.547-0.499
		c-0.222-0.092-0.433-0.255-0.477-0.507c0-0.396-0.077-0.822-0.43-1.08c-0.274-0.098-0.396,0.265-0.671,0.202
		c-0.148-0.074-0.077-0.273-0.123-0.403c-0.052-0.109-0.183-0.192-0.158-0.342c0.356-0.474-0.435-0.47-0.259-0.928
		c-0.045-0.336-0.386-0.464-0.558-0.728c-1.177-0.536-2.36-0.899-3.688-1.059C23.407,1.542,23.102,1.611,22.815,1.458z
		 M29.695,1.476c-0.159,0.152-0.297-0.137-0.438,0.038c-0.007,0.082,0.007,0.156,0.053,0.217c0.318,0.115,0.354,0.578,0.766,0.471
		c0.121-0.137-0.074-0.282-0.036-0.456C29.983,1.587,29.85,1.521,29.695,1.476z M16.059,3.516c-0.471,0.33-0.899,0.753-1.388,1.044
		c0.559,0.357,1.024,0.95,1.533,1.417l0.05,0.145c1.297-1.237,2.866-1.958,4.561-2.307c0.402-0.042,0.804-0.176,1.202-0.092
		C21.984,3.004,21.922,2.25,22,1.539C19.793,1.663,17.824,2.332,16.059,3.516z M32.94,2.827c-0.415,0.559-0.986,1.084-1.515,1.627
		l-0.257,0.05c0.163,0.037,0.203,0.228,0.31,0.341c0.561,0.295,0.707,0.891,1.191,1.223c0.272,0.569,0.901,1.011,0.924,1.668
		c0.664,1.455,1.117,2.999,1.159,4.716l-0.069,0.092c0.075,0,0.138-0.032,0.185-0.068l2.191-0.038
		c-0.148-0.212-0.089-0.522-0.125-0.783C36.644,8.27,35.202,5.377,32.94,2.827z M12.051,2.878c-2.168,2.408-3.502,5.157-3.893,8.293
		c-0.082,0.46-0.036,0.929-0.123,1.393c0.765-0.062,1.591-0.062,2.348,0l-0.054-0.294c0.146-2.423,0.92-4.582,2.281-6.512
		c0.343-0.386,0.593-0.873,1.017-1.162c-0.491-0.465-1.007-1.005-1.525-1.512L12.051,2.878z M22.036,4.469L21.908,4.54
		c-1.93,0.139-3.602,0.943-5.069,2.152c0.582,0.405,1.099,1.05,1.618,1.51c0.043-0.054,0.08-0.106,0.118-0.167
		c0.717-0.516,1.462-0.984,2.318-1.204c0.38-0.031,0.748-0.217,1.143-0.123C21.953,5.994,21.953,5.203,22.036,4.469z M22.83,4.481
		l0.081,0.165l-0.017,2.061L23.1,6.669c1.257,0.173,2.406,0.58,3.404,1.39l0.054,0.156c0.342-0.474,0.86-0.885,1.261-1.342
		l0.376-0.22l-0.183-0.076c-0.831-0.697-1.743-1.231-2.733-1.58C24.512,4.725,23.669,4.612,22.83,4.481z M14.118,5.051l-0.017,0.142
		l-0.818,1.044c-1.338,1.846-1.984,3.983-2.173,6.304l2.079-0.037l0.201,0.075c-0.083-0.053-0.06-0.144-0.092-0.221
		c0.168-2.163,0.927-4.093,2.426-5.704C15.146,6.152,14.612,5.623,14.118,5.051z M28.651,7.163l-0.038,0.093
		c-0.699,0.723-1.466,1.479-2.132,2.225c0.046,0.088,0.121,0.171,0.206,0.219c0.034-0.183,0.128-0.341,0.144-0.53
		c0.184-0.251,0.455-0.091,0.69-0.04c0.364-0.084,0.703,0.083,1.077,0.078c0.272,0.134,0.299,0.481,0.553,0.622
		c0.063,0.102,0.013,0.212-0.077,0.285c0.077,0.571,0.347-0.147,0.636-0.012c0.123,0.047,0.272,0.029,0.364,0.156
		c0.046,0.237,0.333,0.191,0.349,0.418c-0.025,0.115-0.146,0.146-0.217,0.206c0.063,0.228-0.239,0.374-0.133,0.616
		c0.439,0.083,0.453-0.428,0.662-0.656c-0.116-0.394-0.199-0.795-0.428-1.144c-0.25-0.055-0.397-0.346-0.655-0.403
		c-0.481-0.191,0.08-0.494,0.018-0.782C29.417,8.028,29.007,7.598,28.651,7.163z M16.292,7.242c-1.047,1.255-1.76,2.638-2.045,4.209
		c-0.084,0.364-0.039,0.784-0.181,1.129c0.267-0.121,0.654-0.075,0.95-0.038c-0.171-0.091-0.028-0.311-0.128-0.432
		c-0.023-0.192-0.054-0.425,0.128-0.548c-0.023-0.312,0.313-0.471,0.342-0.753c0.086-0.318,0.449-0.106,0.622-0.273
		c0.116-0.059,0.016-0.163,0.016-0.25c0.15-0.202,0.386-0.198,0.567-0.31c0.128-0.199,0.296-0.414,0.51-0.533
		c0.46,0.014,0.471-0.622,0.899-0.638C17.381,8.359,16.816,7.754,16.292,7.242z M22.853,7.49C23,7.923,22.871,8.562,22.962,9.063
		l0.553,0.182c0.157-0.264,0.506-0.319,0.66-0.566c0.096-0.083,0.211,0,0.29,0.092c0.022,0.204-0.035,0.408-0.095,0.606
		c-0.201,0.409-0.688,0.466-0.961,0.759c0.175,0.103,0.273-0.084,0.419-0.122c0.211,0.022,0.376,0.206,0.505,0.343
		c0.137,0.06,0.267-0.022,0.387-0.069c0.085-0.63,0.872-0.54,1.107-1.133L25.684,9.21c-0.062-0.085-0.211-0.048-0.205-0.186
		c0.129-0.122,0.296-0.313,0.456-0.363c-0.684-0.425-1.386-0.791-2.16-0.988C23.467,7.603,23.148,7.598,22.853,7.49z M18.767,9.08
		h0.171c0.183,0.179,0.478,0.145,0.613,0.381c0.068,0.137-0.125,0.123-0.118,0.24c0.038,0.028,0.09,0.035,0.118,0.093
		c0.146,0.053,0.115-0.085,0.17-0.147c0.186-0.192,0.217,0.185,0.402,0.185c0.134-0.085,0.316-0.095,0.407,0.055
		c0.121-0.109,0.378-0.006,0.416-0.208c0.234-0.249,0.104-0.635,0.455-0.796c0.121,0.071-0.008,0.183,0.037,0.292
		c0.234,0.1,0.502-0.199,0.687,0.038c-0.17-0.499-0.125-1.11-0.108-1.657C20.793,7.708,19.665,8.125,18.767,9.08z M22.451,10.341
		c-0.122-0.138-0.384-0.056-0.543,0c0.153,0.151,0.091,0.423,0.184,0.614c-0.229,0.379-0.605,0.462-0.963,0.57
		c-0.101,0.119-0.08,0.387-0.314,0.363c-0.075,0.166-0.334,0.261-0.232,0.509c-0.123,0.259-0.062,0.592-0.132,0.873
		c-0.452,0.284-0.323-0.372-0.55-0.507l-0.077,0.129c-0.092,0.023-0.149-0.032-0.213-0.092c-0.068-0.023-0.18-0.046-0.241,0.017
		c-0.099,0.168-0.25,0.304-0.209,0.53c-0.048,0.137-0.273,0.093-0.246,0.236c0.25-0.008,0.525-0.054,0.766-0.105
		c0.174,0.046,0.318-0.084,0.499-0.091c0.059,0.029,0.133,0.091,0.108,0.183h0.057c0.12-0.092,0.178-0.229,0.12-0.366
		c0.018-0.158,0.194-0.158,0.295-0.203c0.103,0.042,0.042,0.141,0.055,0.215c0.342,0.129-0.082,0.381-0.128,0.562
		c-0.09,0.144,0,0.471-0.287,0.425c-0.058-0.016-0.089-0.067-0.078-0.133h-0.033c-0.011,0.125,0.081,0.292,0.203,0.346
		c0.211-0.176,0.222-0.474,0.523-0.513c0.162-0.167-0.068-0.425,0.166-0.561c0.398-0.007,0.821-0.174,1.132,0.143
		c-0.023,0.139-0.079,0.2,0.038,0.311c-0.077,0.177-0.131,0.365-0.272,0.513c0.037,0.099,0.006,0.222-0.075,0.288
		C21.893,15.06,21.364,14.842,21.05,15c0.482,0.363,1.055,0.5,1.677,0.456c0.324-0.016,0.184-0.419,0.354-0.6
		c0.108-0.531,0.589-0.168,0.888-0.313c0.115-0.224,0.226-0.448,0.255-0.706c-0.187-0.122-0.262-0.351-0.203-0.569
		c-0.129-0.171-0.112-0.495-0.394-0.523c-0.045-0.062-0.006-0.137,0.03-0.183c-0.007-0.167,0.161-0.22,0.206-0.352
		c-0.172-0.113-0.13-0.361-0.113-0.508c-0.295,0.083-0.326-0.298-0.542-0.385c-0.058-0.18-0.25-0.206-0.404-0.241
		c-0.364,0.18-0.423-0.272-0.696-0.378c-0.029-0.083-0.089-0.205,0-0.273c0.135-0.115,0.319-0.019,0.479-0.023L22.451,10.341z
		 M15.851,12.212c-0.614,0.2,0.101,0.665-0.051,1.045c-0.085,0.219-0.309,0.016-0.47,0.108l-0.06,0.397
		c-0.091,0.239-0.387,0.065-0.524,0.225c-0.098,0.153,0.012,0.314,0.09,0.434c-0.212,0.482,0.477,0.636,0.472,1.075
		c0.211,0.274-0.03,0.672,0.271,0.916c0.067,0.492-0.066,1.161,0.364,1.545l0.075,0.473c0.092,0.329-0.388,0.244-0.326,0.529
		c0.091-0.043,0.114,0.078,0.118,0.109v-0.016c0.585-0.68,1.26-1.393,1.956-1.993l-0.286-0.289
		c-0.545-0.805-0.972-1.663-1.175-2.607l-0.219-0.112c-0.007,0.245-0.12,0.437-0.106,0.678l-0.076,0.091
		c-0.158-0.009-0.26-0.137-0.392-0.222c-0.032-0.082-0.117-0.218,0.016-0.289c0.072-0.003,0.125,0.018,0.181,0.056
		c0.067-0.083,0.039-0.206,0.076-0.313c0.022-0.184-0.139-0.349-0.024-0.505c0.145-0.022,0.251,0.155,0.313,0.251
		c0.144,0.048,0.257-0.071,0.374-0.127c0-0.124,0.184-0.302-0.012-0.379c0.105-0.293,0.03-0.608-0.019-0.897
		C16.336,12.145,16.059,12.19,15.851,12.212z M30.075,12.474c-0.061,0.028-0.141,0.005-0.219,0.014
		C29.921,12.458,30.004,12.474,30.075,12.474z M29.605,13.217l0.235,0.237c0.235,0.16,0.076,0.501,0.329,0.639
		c0.294,0.154,0.397,0.497,0.531,0.754c0.046-0.069,0.046-0.156,0.067-0.223c0.103-0.416,0.088-0.887,0.218-1.299
		C30.528,13.347,30.004,13.393,29.605,13.217z M34.805,13.324l-0.138-0.09l0.082,0.205c-0.126,2.528-0.968,4.764-2.408,6.746
		c-0.283,0.331-0.547,0.741-0.899,0.976c0.579,0.46,1.215,1.142,1.697,1.665l0.06-0.113c2.324-2.647,3.644-5.719,3.787-9.274
		l0.092-0.183l-0.115,0.051L34.805,13.324z M31.753,13.272c0.047,0.465-0.078,0.912-0.11,1.366l0.256,0.273
		c0.068,0.107,0.046,0.266-0.053,0.35c-0.113,0.067-0.246,0.06-0.354-0.023c-0.319,1.02-0.693,2.02-1.326,2.902
		c-0.254,0.318-0.496,0.762-0.823,0.929l0.694,0.605c0.036-0.037,0.013-0.1,0.02-0.152c0-0.09,0.047-0.198,0.159-0.185
		c0.336-0.004,0.342,0.35,0.535,0.533c-0.039,0.29,0.208,0.517,0.125,0.785c1.921-2.026,2.87-4.5,3.047-7.242l0.104-0.121
		c-0.68,0.066-1.401,0.021-2.104,0.027L31.753,13.272z M14.028,13.294l0.112,0.183c0.016,0.501,0.217,0.98,0.107,1.487
		c0.087-0.143,0.11-0.341,0.296-0.43c0.021-0.137-0.187-0.174-0.16-0.311c0.144-0.286,0.003-0.739,0.377-0.86
		C14.498,13.41,14.256,13.464,14.028,13.294z M10.371,13.324l-0.208,0.078l-2.111-0.016c0.122,2.43,0.767,4.641,1.858,6.67
		c0.539,1.002,1.33,1.904,2.023,2.842l1.509-1.568l0.183-0.074c-0.259-0.182-0.488-0.479-0.707-0.727
		c-0.249-0.069-0.505-0.247-0.632-0.486c-0.081-0.087-0.011-0.242-0.094-0.302l-0.091,0.116c-0.265,0.129-0.363-0.148-0.546-0.257
		c-0.241-0.127-0.126-0.577-0.444-0.494c-0.123-0.007-0.162-0.146-0.236-0.218c-0.297,0.029-0.37-0.3-0.531-0.457
		c-0.029,0.065,0,0.155-0.091,0.201c-0.302,0.072-0.41-0.3-0.61-0.452c-0.059,0.022-0.095,0.082-0.171,0.066
		c-0.183-0.16-0.302-0.385-0.31-0.638c-0.25-0.28-0.139-0.729-0.09-1.07c0.045-0.092,0.174-0.142,0.148-0.256
		c0.069-0.161,0.236-0.174,0.395-0.183c0.063,0.028,0.122,0.091,0.152,0.143c0.099-0.063,0.319,0.011,0.234-0.21
		c0.129-0.113,0.319-0.151,0.494-0.182c0.122,0.152,0.182,0.326,0.343,0.47l-0.108-0.168c-0.184-0.746-0.328-1.504-0.361-2.308
		c0.006-0.047-0.099-0.066-0.043-0.112l0.018,0.022C10.354,13.582,10.338,13.439,10.371,13.324z M13.338,13.324l-0.167,0.078
		c-0.703-0.016-1.442,0.042-2.114-0.056l0.092,0.13l0.165,1.396c0.071,0.54,0.307,1.057,0.292,1.589
		c0.086-0.117,0.031-0.343,0.236-0.366c-0.081-0.167,0.159-0.309,0.024-0.457c0.068-0.368,0.111-0.738,0.434-1.003
		c0.385-0.016,0.413-0.525,0.801-0.548c0.196-0.008,0.321,0.257,0.401,0.352C13.262,14.146,13.275,13.656,13.338,13.324z
		 M17.243,14.261c0.216,0.391,0.329,0.84,0.548,1.235c0.137,0.353,0.446,0.623,0.578,0.966c0.146-0.273,0.434-0.496,0.633-0.745
		c0.018-0.114-0.005-0.215-0.064-0.299c-0.069-0.157-0.01-0.383-0.128-0.521c-0.196,0.067,0.067,0.268-0.015,0.378
		c-0.088,0.056-0.175-0.013-0.182-0.091c-0.177-0.027-0.311-0.18-0.365-0.337c0.145-0.092-0.035-0.129-0.077-0.206
		c-0.074-0.041-0.08-0.032-0.143,0.037c-0.035,0-0.082,0.009-0.116-0.015C17.908,14.229,17.428,14.49,17.243,14.261z M19.626,14.859
		c-0.046,0.186-0.172,0.354-0.309,0.491l0.019,0.015c0.186-0.129,0.311-0.363,0.547-0.379L19.626,14.859z M25.629,15.479
		c0.007,0.117,0.021,0.27,0.119,0.37c0.299-0.047,0.168,0.361,0.446,0.326c0.152-0.047,0.008-0.174,0.055-0.276
		c-0.046-0.226-0.268-0.248-0.425-0.386c-0.015-0.05,0.021-0.085,0.041-0.122C25.749,15.33,25.695,15.396,25.629,15.479z
		 M29.933,15.496c-0.222-0.018-0.486,0.114-0.675-0.037c-0.068-0.063-0.115,0.027-0.105,0.088c-0.077,0.118-0.155,0.264-0.333,0.208
		c-0.138-0.062-0.138-0.208-0.186-0.313c0.01,0.083-0.02,0.16-0.034,0.237c-0.16,0.169-0.212,0.329-0.329,0.511
		c-0.158,0.172-0.413,0.111-0.581,0.253c-0.031,0.367-0.431,0.292-0.661,0.403c-0.014,0.047,0.035,0.057,0.061,0.092
		c0.105,0.03,0.25,0.03,0.329-0.075c0.314,0.083,0.247-0.317,0.428-0.454c0.16-0.024,0.313-0.157,0.479-0.055
		c0.166,0.206,0.204,0.503,0.179,0.77c-0.179,0.182-0.084,0.475-0.219,0.688c0.028,0.25-0.273,0.369-0.231,0.618
		c-0.098,0.11-0.267,0.13-0.421,0.13c-0.595-0.229-1.222-0.378-1.897-0.435c-0.059,0.022-0.097,0.076-0.091,0.142
		c0.272,0.146,0.613,0.156,0.898,0.276c0.261,0.07,0.436,0.389,0.762,0.29c0.269-0.152,0.728,0.09,0.905-0.202
		c-0.027-0.283,0.218-0.483,0.336-0.725l0.089-0.023c0.154,0.157,0.145,0.391,0.215,0.568c0.218-0.229,0.38-0.476,0.574-0.713
		c0.499-0.732,0.927-1.51,1.107-2.347C30.326,15.396,30.121,15.435,29.933,15.496z M20.362,15.496
		c-0.335,0.534-0.954,1.018-1.41,1.51c0.813,0.671,1.723,1.089,2.735,1.26c0.052-0.201-0.033-0.46,0.076-0.634
		c0.074-0.166,0.282-0.159,0.433-0.132c0.091-0.006,0.143-0.119,0.091-0.196c-0.22-0.043-0.125-0.291-0.196-0.425
		c0.006-0.082,0.132-0.063,0.104-0.16c-0.151-0.122,0.074-0.256-0.056-0.388c0.056-0.036,0.091-0.121,0.168-0.121
		c-0.481,0.253-0.992-0.052-1.417-0.243C20.696,15.857,20.406,15.743,20.362,15.496z M24.771,16.825
		c-0.025,0.061-0.103,0.167,0,0.202c0.184-0.188,0.57-0.182,0.586-0.455C25.089,16.538,24.955,16.682,24.771,16.825z M25.629,17.399
		c-0.236,0-0.355,0.182-0.534,0.325c-0.213,0.123-0.316-0.229-0.492-0.143c0.005,0.038,0.047,0.053,0.076,0.067
		c0.046,0.056,0.062,0.164,0,0.218c-0.256,0.234-0.378-0.111-0.619-0.088v0.088c0.008,0.056-0.015,0.139-0.092,0.111
		c-0.151-0.252-0.463-0.163-0.615-0.381c-0.095-0.056-0.187,0.014-0.251,0.076c-0.064,0.111-0.307-0.019-0.249,0.181
		c-0.188,0.067-0.207,0.274-0.348,0.394c-0.233-0.038-0.34,0.229-0.562,0.223c0.026,0.047,0,0.118,0.074,0.13
		c0.135,0.061,0.271,0.074,0.434,0.052c0.233-0.363,0.612-0.063,0.932-0.199c0.199,0.038,0.059,0.253,0.206,0.33
		c0.312-0.1,0.546,0.266,0.796,0.034c-0.017-0.357,0.387-0.326,0.608-0.422c0.34-0.201,0.729-0.474,0.688-0.927L25.629,17.399z
		 M18.303,17.61c-0.452,0.547-0.983,1.118-1.516,1.549c0.235,0.016,0.364,0.273,0.567,0.387c1.135,0.95,2.552,1.406,3.879,1.729
		l-0.363-0.161c-0.272-0.313-0.661-0.677-0.676-1.109c0.272-0.093,0.245-0.396,0.335-0.602c0.225-0.246,0.499-0.374,0.795-0.442
		c-0.761,0.319-1.438-0.25-2.075-0.547C18.921,18.172,18.499,17.975,18.303,17.61z M28.849,19.73l-0.054-0.147
		c-0.066,0.183-0.203,0.295-0.341,0.437c0.009,0.118-0.033,0.301,0.106,0.384c0.307,0.102,0.707,0.296,0.774,0.649
		c-0.124,0.334-0.765,0.646-0.364,1.006c0.126,0.183-0.188,0.249-0.134,0.399l0.113-0.144c0.45-0.357,0.947-0.688,1.347-1.133h0.054
		c-0.093-0.028-0.204,0.062-0.31,0.017c-0.217-0.1-0.252-0.291-0.252-0.51L28.849,19.73z M16.634,20.021l-0.03-0.058l0.03,0.094
		V20.021z M16.876,20.347c-0.101-0.065-0.162-0.124-0.185-0.239L16.876,20.347z M16.931,20.404c0.043,0.184,0.286,0.297,0.22,0.523
		c-0.129,0.203-0.397,0.209-0.607,0.203c-0.431-0.067-0.751,0.256-1.158,0.306c-0.374,0.114-0.502-0.343-0.841-0.306
		c2.104,1.85,4.517,3.002,7.347,3.152l0.213,0.147l-0.088-0.26v-2.004l-0.187,0.077C19.982,22.15,18.368,21.477,16.931,20.404z
		 M30.968,21.827l-0.038-0.183c-0.207,0.418-0.679,0.682-1.036,1.002c-0.496,0.497-1.303,0.603-1.553,1.312
		c-0.266,0.245-0.357,0.624-0.729,0.766c-0.135,0.36-0.521,0.336-0.74,0.604c-0.64,0.571-1.052-0.363-1.626-0.478l-1.162,0.205
		c-0.403,0-0.806,0.145-1.19,0.015c0.051,0.776,0.051,1.608,0,2.387l0.142-0.09c3.668-0.164,6.826-1.552,9.536-4.013L30.968,21.827z
		 M14.103,21.804l-0.023,0.09l-1.561,1.572c2.371,2.051,5.047,3.374,8.099,3.793c0.484,0.085,1.037,0.039,1.506,0.182l-0.108-0.182
		v-2.06l0.075-0.114l-0.238,0.062C18.892,24.939,16.271,23.889,14.103,21.804z M22.778,22.333l0.116,0.168
		c0,0.627,0.076,1.262,0,1.881c0.564-0.194,1.218-0.162,1.823-0.266c-0.121-0.046-0.242-0.073-0.332-0.193
		c-0.355-0.023-0.524-0.396-0.637-0.68c-0.052-0.2,0.087-0.369,0.167-0.549c-0.151-0.309-0.62-0.082-0.902-0.194
		C22.94,22.44,22.886,22.349,22.778,22.333z"/>
	<g>
		<path fill="#0071BC" d="M36.751,0.494c1.122,0.999,1.62,2.287,1.944,3.626l0.185,0.422c-1.625-1.162-3.089-2.726-4.118-4.373
			l-1.261-1.277C34.606-0.641,35.805-0.355,36.751,0.494z"/>
		<path fill="#0071BC" d="M8.502,2.477c-0.742,0.919-1.689,1.528-2.53,2.315C6.424,3.85,6.443,2.731,7.089,1.86
			c0.916-1.601,2.621-2.165,4.133-2.755C10.109,0.084,9.333,1.322,8.502,2.477z"/>
		<path fill="#0071BC" d="M40.707,4.157c0.357,1.59-0.161,3.151,0.167,4.762l-0.017,0.016c-0.872-1.712-2.711-2.515-3.987-3.884
			c-0.733-0.812-1.053-1.801-1.233-2.848c0.724,1.754,2.688,2.145,3.813,3.616c0.375,0.341,0.496,0.812,0.741,1.201l0.039-0.037
			c-0.646-1.38-0.864-2.939-1.315-4.414c-0.227-0.638-0.675-1.268-1.273-1.675C39.116,1.203,40.396,2.743,40.707,4.157z"/>
		<path fill="#0071BC" d="M7.122,1.17C5.617,2.203,5.725,4.056,5.237,5.602C5.085,6.17,4.822,6.692,4.692,7.279L4.73,7.307
			c0.254-0.662,0.689-1.284,1.241-1.824c1.07-0.984,2.654-1.6,3.176-3.061C9.123,4.454,7.426,6.046,5.809,7.188
			c-0.67,0.581-1.317,1.25-1.678,2.002C4.091,8.685,4.206,8.165,4.168,7.618C3.996,5.852,3.867,3.826,5.119,2.514
			C5.661,1.84,6.352,1.368,7.122,1.17z"/>
		<path fill="#0071BC" d="M41.655,4.504c1.34,1.824,1.636,4.726,0.658,6.818c-0.364,0.887-0.621,1.832-0.766,2.81
			c-0.066-0.169-0.084-0.395-0.141-0.584c-0.532-2.044-2.475-3.506-3.266-5.436c-0.251-0.628-0.461-1.286-0.59-1.965
			c0.852,1.572,2.947,2.387,3.524,4.115c0.231,0.441,0.216,0.988,0.359,1.461c0.032,0,0.063-0.023,0.063-0.054
			c-0.255-1.783-0.176-3.654,0.064-5.42c-0.013-0.956-0.106-1.882-0.635-2.617C41.268,3.826,41.418,4.21,41.655,4.504z"/>
		<path fill="#0071BC" d="M3.909,3.933C2.76,5.692,3.717,7.899,3.661,9.902l-0.153,2.041c0.025,0.017,0.025,0.074,0.081,0.051
			c0.063-0.225,0.08-0.469,0.128-0.704c0.27-1.653,1.696-2.819,2.953-3.959c0.266-0.294,0.503-0.6,0.635-0.95
			C7.21,7.205,6.95,8.028,6.609,8.791c-0.968,1.898-2.771,3.459-3.101,5.631C3.351,12.334,1.93,10.78,2.073,8.57
			c-0.047-1.795,0.7-3.261,1.746-4.596C3.852,3.956,3.874,3.925,3.909,3.933z"/>
		<path fill="#0071BC" d="M42.913,16.332c-0.8,1.137-1.758,2.188-2.502,3.34c0.084-0.908,0.197-2.034-0.166-2.9
			c-0.614-1.861-1.15-3.753-1.328-5.795l0.02-0.781c0.464,2.085,2.518,3.521,2.391,5.865c0.047,0.569-0.129,1.047-0.233,1.547
			l0.035,0.036l0.091-0.108c0.306-1.143,0.459-2.355,0.926-3.426c0.677-1.542,1.52-3.099,1.167-4.961
			C44.342,11.349,44.035,14.283,42.913,16.332z"/>
		<path fill="#0071BC" d="M3.327,15.604c0.22,0.768,0.274,1.595,0.582,2.315c0.032,0.015,0.057-0.013,0.078-0.036
			c-0.782-2.187,0.34-4.219,1.47-5.925c0.282-0.461,0.44-0.982,0.578-1.513c0.117,0.989-0.128,2.125-0.273,3.152
			c-0.279,1.308-0.691,2.55-1.046,3.816c-0.236,0.79-0.175,1.687-0.056,2.511l-0.113-0.09c-0.826-1.526-2.466-2.717-2.953-4.391
			C1.19,14.117,0.928,12.571,1.2,11.122c0.126-0.56,0.231-1.137,0.472-1.657C1.205,11.835,2.806,13.548,3.327,15.604z"/>
		<path fill="#0071BC" d="M39.774,19.923c-0.051,1.028-0.385,1.941-0.922,2.757h0.084c0.731-0.954,1.301-1.97,2.158-2.887
			c1.316-1.273,2.667-2.577,2.838-4.352c0.451,2.952-1.213,5.548-3.663,7.219c-1.011,0.66-2.035,1.275-3.013,2.03v-0.09
			c1.493-2.479,0.765-5.873,1.679-8.592l0.344-0.913C39.094,16.788,39.826,18.222,39.774,19.923z"/>
		<path fill="#0071BC" d="M7.152,23.285c0.16,0.561,0.487,1.062,0.696,1.603c-2.259-1.542-5.347-3.011-6.347-5.835
			c-0.424-0.978-0.47-2.183-0.378-3.298c0.179,2.511,2.884,3.844,4.14,5.925c0.293,0.424,0.557,0.896,0.952,1.254
			c-0.065-0.269-0.311-0.5-0.406-0.771c-0.441-0.875-0.604-1.911-0.494-2.974c0.118-1.281,0.663-2.476,0.459-3.826
			C6.877,17.745,6.542,20.71,7.152,23.285z"/>
		<path fill="#0071BC" d="M36.403,25.16c-0.386,0.677-0.941,1.327-1.547,1.861c0.199-0.011,0.37-0.184,0.548-0.298
			c1.626-1.626,3.756-2.078,5.521-3.403c0.706-0.562,1.353-1.3,1.662-2.098c-0.332,2.701-3.02,5.229-5.547,6.035
			c-1.305,0.35-2.705,0.464-3.97,0.896c2.148-1.846,2.03-4.705,3.463-6.879c0.454-0.611,0.833-1.255,1.37-1.842
			C37.025,21.188,37.404,23.458,36.403,25.16z"/>
		<path fill="#0071BC" d="M9.277,22.882c0.752,1.868,1.045,3.979,2.802,5.393c-1.901-0.62-4.131-0.446-5.798-1.617
			c-1.832-1.123-3.46-3.033-3.809-5.127c1.263,2.856,4.425,3.088,6.544,4.828c0.387,0.342,0.796,0.639,1.236,0.843l0.023-0.022
			c-0.482-0.441-1.048-0.941-1.384-1.513c-1.242-1.722-0.815-4.136-1.74-5.992C7.995,20.686,8.769,21.736,9.277,22.882z"/>
		<path fill="#0071BC" d="M31.81,28.441c-0.471,0.308-1.054,0.36-1.533,0.589c0.683,0.012,1.306-0.228,1.985-0.298
			c2.508-0.396,5.379,0.012,7.133-2.123c-0.651,1.488-2.285,2.73-3.774,3.253c-2.561,0.966-5.137-0.214-7.59-0.609l-0.47-0.063
			v-0.019c1.167-0.262,2.31-0.614,3.239-1.457c1.383-1.321,2.599-2.68,4.132-3.723C33.798,25.439,33.677,27.51,31.81,28.441z"/>
		<path fill="#0071BC" d="M14.234,27.751c0.974,0.849,2.14,1.248,3.374,1.499c-0.293,0.104-0.685,0.071-1.004,0.157
			c-2.209,0.544-4.67,1.435-7.019,0.637c-1.529-0.479-3.098-1.689-3.859-3.189c2.013,2.302,5.314,1.534,8.013,2.134
			c0.379,0.051,0.733,0.205,1.135,0.144c-0.316-0.202-0.772-0.18-1.119-0.365c-2.111-0.745-2.426-3.034-3.57-4.575
			C11.657,25.163,12.884,26.482,14.234,27.751z"/>
		<path fill="#0071BC" d="M30.737,30.864c1.642,0.604,3.765,0.44,5.174-0.562c-0.723,0.906-1.712,1.55-2.74,1.914
			c-2.28,0.853-4.658-0.035-6.43-1.389c-0.723-0.453-1.363-1.116-2.297-1.056c-0.332-0.01-0.656,0.009-0.945,0.088
			c1.726,0.81,3.331,1.918,4.804,3.339c-0.25,0.28-0.573,0.547-0.872,0.789c-1.413-1.53-2.987-2.994-4.742-3.853
			c-0.341,0.049-0.667,0.249-0.98,0.419c-1.422,0.903-2.841,2.066-3.9,3.486l-0.917-0.748c1.461-1.476,3.066-2.622,4.833-3.443
			c-1.73-0.548-2.862,0.904-4.173,1.639c-1.538,1.072-3.743,1.576-5.589,0.837c-1.004-0.379-1.965-0.935-2.684-1.839
			c1.456,1.003,3.629,1.108,5.287,0.457c2.223-0.968,4.535-2.188,7.218-1.605c0.416,0.011,0.824,0.425,1.22,0.069
			c1.991-0.513,4.25-0.156,5.968,0.753L30.737,30.864z"/>
	</g>
</g>
<g>
	<path fill="#0071BC" d="M79.647,110.145c-5.337,0-8.602-2.981-8.602-8.83V89.96h4.372v11.242c0,3.235,1.618,4.911,4.287,4.911
		s4.286-1.618,4.286-4.77V89.96h4.372v11.213C88.362,107.191,84.983,110.145,79.647,110.145z"/>
	<path fill="#0071BC" d="M100.573,109.832v-8.488c0-2.044-0.965-3.095-2.61-3.095c-1.647,0-2.697,1.051-2.697,3.095v8.488H90.95
		V94.616h4.315v2.157c0.994-1.277,2.271-2.441,4.457-2.441c3.264,0,5.166,2.158,5.166,5.648v9.852H100.573z"/>
	<path fill="#0071BC" d="M107.304,92.941v-3.834h4.542v3.834H107.304z M107.419,109.832V94.616h4.314v15.216H107.419z"/>
	<path fill="#0071BC" d="M119.514,110.087c-2.64,0-4.429-1.051-4.429-4.571v-7.209h-1.817v-3.69h1.817v-3.89h4.314v3.89h3.577v3.69
		h-3.577v6.5c0,0.993,0.427,1.477,1.392,1.477c0.795,0,1.505-0.199,2.129-0.54v3.463
		C122.011,109.747,120.961,110.087,119.514,110.087z"/>
	<path fill="#0071BC" d="M138.449,103.729h-10.588c0.425,1.959,1.789,2.98,3.719,2.98c1.447,0,2.498-0.454,3.69-1.561l2.47,2.185
		c-1.42,1.76-3.463,2.839-6.217,2.839c-4.571,0-7.949-3.208-7.949-7.863v-0.058c0-4.343,3.094-7.92,7.522-7.92
		c5.082,0,7.409,3.946,7.409,8.261v0.057C138.507,103.075,138.478,103.331,138.449,103.729z M131.097,97.795
		c-1.789,0-2.952,1.277-3.292,3.236h6.5C134.05,99.102,132.914,97.795,131.097,97.795z"/>
	<path fill="#0071BC" d="M151.287,109.832v-2.186c-1.052,1.418-2.5,2.47-4.742,2.47c-3.549,0-6.926-2.783-6.926-7.864v-0.057
		c0-5.082,3.32-7.863,6.926-7.863c2.299,0,3.72,1.05,4.742,2.271v-7.496h4.312v20.724L151.287,109.832L151.287,109.832z
		 M151.341,102.195c0-2.526-1.676-4.201-3.689-4.201c-2.016,0-3.72,1.646-3.72,4.201v0.057c0,2.527,1.704,4.202,3.72,4.202
		s3.689-1.675,3.689-4.202V102.195z"/>
	<path fill="#0071BC" d="M179.537,109.832L169.912,97.2v12.632h-4.312V89.96h4.029l9.312,12.235V89.96h4.315v19.872H179.537z"/>
	<path fill="#0071BC" d="M195.07,109.832v-1.646c-1.051,1.164-2.499,1.932-4.599,1.932c-2.867,0-5.224-1.646-5.224-4.656v-0.057
		c0-3.321,2.525-4.854,6.131-4.854c1.533,0,2.641,0.255,3.72,0.625v-0.256c0-1.788-1.106-2.782-3.267-2.782
		c-1.646,0-2.81,0.312-4.199,0.823l-1.079-3.293c1.675-0.737,3.321-1.222,5.903-1.222c4.713,0,6.785,2.443,6.785,6.559v8.828H195.07
		z M195.155,103.7c-0.737-0.341-1.702-0.568-2.754-0.568c-1.845,0-2.979,0.738-2.979,2.101v0.058c0,1.164,0.966,1.845,2.354,1.845
		c2.017,0,3.379-1.107,3.379-2.668V103.7z"/>
	<path fill="#0071BC" d="M206.542,110.087c-2.642,0-4.43-1.051-4.43-4.571v-7.209h-1.816v-3.69h1.816v-3.89h4.315v3.89h3.577v3.69
		h-3.577v6.5c0,0.993,0.425,1.477,1.391,1.477c0.796,0,1.505-0.199,2.13-0.54v3.463
		C209.041,109.747,207.989,110.087,206.542,110.087z"/>
	<path fill="#0071BC" d="M211.852,92.941v-3.834h4.542v3.834H211.852z M211.964,109.832V94.616h4.315v15.216H211.964z"/>
	<path fill="#0071BC" d="M226.387,110.172c-4.712,0-8.204-3.492-8.204-7.863v-0.058c0-4.372,3.521-7.92,8.261-7.92
		c4.714,0,8.204,3.492,8.204,7.862v0.058C234.648,106.624,231.128,110.172,226.387,110.172z M230.391,102.252
		c0-2.243-1.618-4.201-4.004-4.201c-2.47,0-3.945,1.902-3.945,4.145v0.058c0,2.243,1.618,4.202,4.002,4.202
		c2.472,0,3.947-1.902,3.947-4.145V102.252z"/>
	<path fill="#0071BC" d="M245.98,109.832v-8.488c0-2.044-0.965-3.095-2.611-3.095c-1.646,0-2.697,1.051-2.697,3.095v8.488h-4.313
		V94.616h4.313v2.157c0.994-1.277,2.271-2.441,4.457-2.441c3.266,0,5.166,2.158,5.166,5.648v9.852H245.98z"/>
	<path fill="#0071BC" d="M257.962,110.116c-2.129,0-4.514-0.71-6.528-2.3l1.845-2.838c1.646,1.191,3.379,1.816,4.797,1.816
		c1.25,0,1.817-0.454,1.817-1.135v-0.057c0-0.938-1.476-1.25-3.149-1.761c-2.131-0.625-4.543-1.618-4.543-4.569v-0.058
		c0-3.094,2.498-4.825,5.563-4.825c1.931,0,4.03,0.652,5.678,1.76l-1.647,2.979c-1.504-0.88-3.008-1.419-4.114-1.419
		c-1.052,0-1.591,0.454-1.591,1.051v0.057c0,0.853,1.449,1.25,3.095,1.818c2.13,0.709,4.599,1.73,4.599,4.514v0.057
		C263.783,108.583,261.255,110.116,257.962,110.116z"/>
</g>
<g>
	<path fill="#0071BC" d="M49.205,27.084l2.289-2.742c1.585,1.307,3.245,2.137,5.258,2.137c1.585,0,2.541-0.628,2.541-1.66v-0.05
		c0-0.981-0.604-1.485-3.547-2.239c-3.546-0.905-5.836-1.888-5.836-5.382v-0.053c0-3.194,2.566-5.307,6.164-5.307
		c2.566,0,4.755,0.805,6.541,2.239l-2.013,2.917c-1.56-1.082-3.094-1.736-4.579-1.736c-1.484,0-2.264,0.681-2.264,1.535v0.052
		c0,1.158,0.755,1.534,3.799,2.315c3.572,0.931,5.585,2.213,5.585,5.281v0.053c0,3.496-2.667,5.459-6.464,5.459
		C54.009,29.9,51.318,28.971,49.205,27.084z"/>
	<path fill="#0071BC" d="M64.853,16.166h3.824v1.937c0.931-1.258,2.214-2.188,4.201-2.188c3.145,0,6.138,2.464,6.138,6.969v0.05
		c0,4.504-2.943,6.971-6.138,6.971c-2.038,0-3.296-0.932-4.201-2.014v5.787h-3.824V16.166z M75.192,22.932v-0.049
		c0-2.24-1.51-3.723-3.295-3.723c-1.787,0-3.271,1.484-3.271,3.723v0.049c0,2.241,1.484,3.725,3.271,3.725
		C73.682,26.656,75.192,25.197,75.192,22.932z"/>
	<path fill="#0071BC" d="M79.921,22.982v-0.052c0-3.848,2.742-7.017,6.667-7.017c4.503,0,6.566,3.497,6.566,7.321
		c0,0.301-0.025,0.652-0.05,1.004H83.72c0.377,1.736,1.584,2.642,3.296,2.642c1.283,0,2.213-0.402,3.27-1.384l2.189,1.938
		c-1.258,1.56-3.069,2.517-5.51,2.517C82.915,29.951,79.921,27.107,79.921,22.982z M89.431,21.852
		c-0.227-1.711-1.232-2.869-2.843-2.869c-1.584,0-2.617,1.133-2.917,2.869H89.431z"/>
	<path fill="#0071BC" d="M94.085,22.982v-0.052c0-3.848,2.943-7.017,7.069-7.017c2.541,0,4.125,0.856,5.385,2.262l-2.34,2.516
		c-0.857-0.906-1.713-1.484-3.07-1.484c-1.912,0-3.271,1.687-3.271,3.674v0.049c0,2.064,1.333,3.725,3.421,3.725
		c1.283,0,2.164-0.554,3.094-1.435l2.238,2.265c-1.308,1.435-2.816,2.465-5.51,2.465C97.054,29.951,94.085,26.831,94.085,22.982z"/>
	<path fill="#0071BC" d="M107.921,11.285h4.024v3.396h-4.024V11.285z M108.022,16.166h3.824v13.482h-3.824V16.166z"/>
	<path fill="#0071BC" d="M113.38,25.775v-0.054c0-2.942,2.236-4.301,5.433-4.301c1.358,0,2.34,0.228,3.295,0.554v-0.227
		c0-1.586-0.981-2.465-2.896-2.465c-1.455,0-2.488,0.276-3.721,0.729l-0.955-2.918c1.482-0.652,2.943-1.082,5.233-1.082
		c2.086,0,3.599,0.554,4.552,1.511c1.008,1.004,1.461,2.49,1.461,4.301v7.824h-3.699v-1.459c-0.93,1.03-2.211,1.711-4.074,1.711
		C115.468,29.9,113.38,28.441,113.38,25.775z M122.162,24.895v-0.679c-0.658-0.302-1.512-0.503-2.443-0.503
		c-1.635,0-2.641,0.652-2.641,1.861v0.052c0,1.03,0.855,1.633,2.09,1.633C120.955,27.259,122.162,26.277,122.162,24.895z"/>
	<path fill="#0071BC" d="M127.996,11.285h3.825v18.364h-3.825V11.285z"/>
</g>
<g>
	<path fill="#3FA9F5" d="M132.171,11.3h13.963v3.592h-9.92v3.724h8.729v3.594h-8.729v3.855h10.05v3.592h-14.097L132.171,11.3
		L132.171,11.3z"/>
	<path fill="#3FA9F5" d="M146.611,15.602h4.258l3.172,9.415l3.201-9.415h4.18l-5.582,14.162h-3.647L146.611,15.602z"/>
	<path fill="#3FA9F5" d="M160.944,22.708v-0.052c0-4.012,2.884-7.317,7.011-7.317c4.73,0,6.9,3.646,6.9,7.634
		c0,0.314-0.025,0.682-0.053,1.049h-9.864c0.396,1.807,1.664,2.752,3.464,2.752c1.35,0,2.328-0.42,3.438-1.442l2.303,2.021
		c-1.323,1.625-3.227,2.622-5.792,2.622C164.091,29.973,160.944,27.009,160.944,22.708z M170.941,21.527
		c-0.236-1.783-1.295-2.987-2.986-2.987c-1.668,0-2.75,1.177-3.067,2.987H170.941z"/>
	<path fill="#3FA9F5" d="M176.521,15.602h4.02v1.993c0.926-1.18,2.117-2.255,4.152-2.255c3.042,0,4.812,1.993,4.812,5.22v9.101
		h-4.02v-7.84c0-1.889-0.9-2.859-2.436-2.859c-1.532,0-2.512,0.971-2.512,2.859v7.84h-4.02V15.602H176.521z"/>
	<path fill="#3FA9F5" d="M192.335,25.672V19.01h-1.692v-3.407h1.692v-3.594h4.021v3.593h3.33v3.408h-3.33v6.006
		c0,0.917,0.396,1.363,1.294,1.363c0.739,0,1.4-0.184,1.98-0.496v3.195c-0.844,0.5-1.821,0.816-3.172,0.816
		C194.001,29.896,192.335,28.923,192.335,25.672z"/>
	<path fill="#3FA9F5" d="M200.218,27.796l1.719-2.622c1.534,1.1,3.148,1.678,4.469,1.678c1.164,0,1.695-0.419,1.695-1.048v-0.053
		c0-0.866-1.378-1.155-2.936-1.625c-1.986-0.578-4.233-1.496-4.233-4.224V19.85c0-2.859,2.325-4.457,5.185-4.457
		c1.799,0,3.756,0.603,5.289,1.625l-1.531,2.754c-1.403-0.812-2.805-1.31-3.836-1.31c-0.979,0-1.481,0.419-1.481,0.968v0.053
		c0,0.787,1.351,1.154,2.883,1.678c1.981,0.656,4.284,1.602,4.284,4.17v0.054c0,3.121-2.355,4.535-5.422,4.535
		C204.317,29.92,202.096,29.265,200.218,27.796z"/>
</g>
<g>
	<path fill="#00558D" d="M53.711,9.87c-2.253,0-3.63-1.258-3.63-3.726V1.353h1.845v4.744c0,1.365,0.683,2.072,1.81,2.072
		c1.125,0,1.809-0.683,1.809-2.013V1.353h1.844v4.731C57.388,8.624,55.962,9.87,53.711,9.87z"/>
	<path fill="#00558D" d="M62.568,9.738V6.156c0-0.862-0.407-1.306-1.103-1.306c-0.694,0-1.138,0.443-1.138,1.306v3.582h-1.821V3.316
		h1.821v0.911c0.419-0.54,0.958-1.03,1.881-1.03c1.377,0,2.18,0.91,2.18,2.383v4.157H62.568z"/>
	<path fill="#00558D" d="M65.435,2.61V0.993h1.917V2.61H65.435z M65.483,9.738V3.316h1.821v6.421H65.483z"/>
	<path fill="#00558D" d="M70.61,9.846c-1.114,0-1.868-0.443-1.868-1.929V4.875h-0.767V3.316h0.767V1.676h1.821v1.641h1.509v1.558
		h-1.509v2.743c0,0.42,0.18,0.624,0.587,0.624c0.336,0,0.635-0.084,0.898-0.229v1.462C71.666,9.702,71.222,9.846,70.61,9.846z"/>
	<path fill="#00558D" d="M78.627,7.162h-4.468c0.179,0.827,0.754,1.258,1.569,1.258c0.611,0,1.054-0.191,1.557-0.659l1.043,0.922
		c-0.599,0.743-1.461,1.199-2.624,1.199c-1.929,0-3.354-1.354-3.354-3.318V6.54c0-1.833,1.306-3.342,3.174-3.342
		c2.144,0,3.126,1.665,3.126,3.486v0.024C78.651,6.887,78.639,6.994,78.627,7.162z M75.524,4.659c-0.755,0-1.246,0.539-1.39,1.366
		h2.744C76.77,5.209,76.291,4.659,75.524,4.659z"/>
	<path fill="#00558D" d="M84.069,9.738V8.815c-0.442,0.599-1.054,1.042-2,1.042c-1.497,0-2.923-1.175-2.923-3.318V6.516
		c0-2.145,1.402-3.318,2.923-3.318c0.971,0,1.57,0.443,2,0.958V0.993h1.82v8.745H84.069z M84.093,6.516
		c0-1.066-0.707-1.773-1.557-1.773c-0.851,0-1.57,0.695-1.57,1.773V6.54c0,1.066,0.719,1.772,1.57,1.772
		c0.85,0,1.557-0.707,1.557-1.772V6.516z"/>
	<path fill="#00558D" d="M96.042,9.738l-4.061-5.331v5.331H90.16V1.353h1.701l3.93,5.163V1.353h1.821v8.385H96.042z"/>
	<path fill="#00558D" d="M102.623,9.738V9.043c-0.443,0.491-1.055,0.815-1.94,0.815c-1.21,0-2.205-0.695-2.205-1.965V7.87
		c0-1.402,1.066-2.049,2.587-2.049c0.647,0,1.114,0.108,1.569,0.264V5.977c0-0.755-0.467-1.174-1.377-1.174
		c-0.695,0-1.187,0.132-1.773,0.348l-0.455-1.39c0.707-0.311,1.401-0.515,2.492-0.515c1.989,0,2.863,1.031,2.863,2.768v3.725
		H102.623z M102.659,7.15c-0.311-0.144-0.718-0.24-1.163-0.24c-0.778,0-1.257,0.312-1.257,0.887v0.023
		c0,0.491,0.407,0.779,0.994,0.779c0.852,0,1.426-0.467,1.426-1.126V7.15z"/>
	<path fill="#00558D" d="M107.491,9.846c-1.114,0-1.869-0.443-1.869-1.929V4.875h-0.767V3.316h0.767V1.676h1.821v1.641h1.509v1.558
		h-1.509v2.743c0,0.42,0.179,0.624,0.586,0.624c0.335,0,0.635-0.084,0.899-0.229v1.462C108.545,9.702,108.102,9.846,107.491,9.846z"
		/>
	<path fill="#00558D" d="M109.757,2.61V0.993h1.916V2.61H109.757z M109.805,9.738V3.316h1.821v6.421H109.805z"/>
	<path fill="#00558D" d="M115.916,9.882c-1.989,0-3.462-1.473-3.462-3.318V6.54c0-1.845,1.485-3.342,3.485-3.342
		c1.989,0,3.462,1.473,3.462,3.318V6.54C119.402,8.384,117.916,9.882,115.916,9.882z M117.604,6.54c0-0.947-0.682-1.773-1.688-1.773
		c-1.042,0-1.665,0.802-1.665,1.749V6.54c0,0.946,0.683,1.772,1.688,1.772c1.042,0,1.665-0.802,1.665-1.749V6.54z"/>
	<path fill="#00558D" d="M124.209,9.738V6.156c0-0.862-0.407-1.306-1.102-1.306s-1.138,0.443-1.138,1.306v3.582h-1.821V3.316h1.821
		v0.911c0.419-0.54,0.958-1.03,1.881-1.03c1.378,0,2.18,0.91,2.18,2.383v4.157H124.209z"/>
	<path fill="#00558D" d="M129.292,9.858c-0.898,0-1.904-0.3-2.755-0.971l0.778-1.198c0.695,0.503,1.425,0.767,2.024,0.767
		c0.527,0,0.767-0.191,0.767-0.479V7.953c0-0.395-0.623-0.527-1.33-0.742c-0.898-0.264-1.917-0.684-1.917-1.929V5.258
		c0-1.306,1.054-2.037,2.348-2.037c0.814,0,1.701,0.276,2.396,0.743l-0.695,1.257c-0.635-0.372-1.27-0.599-1.737-0.599
		c-0.443,0-0.671,0.192-0.671,0.444V5.09c0,0.359,0.611,0.527,1.306,0.767c0.898,0.299,1.94,0.731,1.94,1.905v0.024
		C131.748,9.211,130.681,9.858,129.292,9.858z"/>
</g>
<g>
	<path fill="#14527E" d="M41.045-54.355c1.797,3.466,2.309,8.234,1.136,12.147c-1.182,4.626-5.061,9.298-9.598,11.2
		c-5.092,2.496-12.331,1.872-16.877-1.385c-6.318-4.325-8.9-11.784-6.994-19.141c1.162-4.376,4.648-8.79,8.902-10.819
		c2.397-1.179,5.007-1.813,7.861-1.866C31.988-64.211,38.206-60.383,41.045-54.355z M25.814-63.373
		c0.105,0.68,0.08,1.614,0.026,2.383c0-0.077,0.038-0.147,0.081-0.208c0.122-0.069,0.229,0.033,0.284,0.123
		c0.01,0.121,0.057,0.33-0.048,0.396c0.105,0.017,0.157-0.059,0.252-0.059c1.975,0.144,3.813,0.726,5.448,1.656v-0.043
		c0.337-0.163,0.768-0.377,1.118-0.082c0.415-0.156,0.495,0.355,0.831,0.413c0.403,0.245,0.859,0.692,0.911,1.168
		c0.082,0.155,0.321,0.264,0.353,0.43c0.279-0.583,0.829-0.999,1.311-1.508l0.295-0.123c-2.612-2.487-5.715-3.863-9.169-4.336
		C26.958-63.26,26.349-63.207,25.814-63.373z M24.853-63.284c-3.476,0.137-6.557,1.319-9.3,3.292
		c-0.523,0.358-0.99,0.912-1.524,1.219h0.077c0.683,0.506,1.329,1.222,1.904,1.85l0.044-0.128c2.524-2.296,5.461-3.559,8.834-3.715
		l-0.082-0.204l-0.024-2.071L24.853-63.284z M27.817-61.981l-1.242,0.534c-0.105-0.043-0.304-0.093-0.371,0.046
		c-0.055,0.04,0,0.104,0.018,0.146c0.457,0.584,1.247,0.258,1.816,0.144c0.414,0.175,0.81-0.032,1.121-0.29v-0.062
		C28.869-61.875,28.316-61.937,27.817-61.981z M25.798-59.848l0.089,0.165c-0.018,0.804,0.034,1.66-0.047,2.411
		c0.336-0.113,0.67,0.024,0.999,0.035c1.694,0.276,3.29,0.822,4.649,1.863c-0.165-0.174-0.364-0.372-0.401-0.62
		c0.03-0.037,0.062-0.047,0.107-0.037c0.012-0.266-0.272-0.403-0.312-0.646c0.04-0.049,0.103-0.102,0.19-0.075
		c0.292,0.275,0.542,0.577,0.76,0.89c0.186-0.077,0.346,0.041,0.481,0.143c0.251,0.148,0.097,0.472,0.282,0.64
		c0.036,0.509,0.662,0.796,0.628,1.306c0.011,0.123,0.157,0.023,0.211,0.083l0.513,0.637c-0.095,0.121-0.018,0.271,0.085,0.356
		c0.231,0.104,0.362-0.19,0.597-0.148c0.333,0.191-0.052,0.411-0.021,0.622c0.131,0.007,0.292-0.102,0.396,0.026
		c0.045,0.194-0.154,0.313-0.229,0.432c0,0.188,0.149,0.147,0.288,0.188c0.156-0.006,0.256,0.185,0.208,0.311
		c0.431,0.45-0.129,0.938,0.079,1.41c0.134,0.311-0.03,0.613-0.222,0.843c0.007,0.382-0.336,0.621-0.476,0.938l-0.442,0.083
		c-0.233,0.233,0.202,0.52-0.028,0.666l0.961,0.018l-0.102-0.103c-0.142-0.382-0.106-0.891,0.132-1.226
		c0.148-0.314,0.179-0.687,0.453-0.951c0.059-0.018,0.175-0.131,0.221,0c0.021,0.292-0.004,0.628-0.144,0.891
		c0.28,0.397,0.242,0.916,0.266,1.406c0.863-0.052,1.698-0.071,2.533-0.06l-0.076-0.167c-0.129-1.6-0.46-3.109-1.121-4.472
		c-0.179,0.008-0.31,0.155-0.513,0.103c-0.072-0.027-0.116-0.095-0.109-0.179c-0.343-0.327-0.559-0.757-0.954-1.047
		c-0.44,0.04-0.641-0.469-1.035-0.518c-0.354-0.149-0.112-0.72-0.622-0.567c-0.253-0.104-0.493-0.29-0.542-0.577
		c0-0.45-0.087-0.935-0.489-1.228c-0.312-0.111-0.45,0.301-0.764,0.23c-0.168-0.084-0.087-0.311-0.14-0.459
		c-0.059-0.124-0.208-0.218-0.179-0.389c0.405-0.539-0.495-0.534-0.294-1.055c-0.051-0.382-0.439-0.527-0.634-0.827
		c-1.339-0.609-2.684-1.022-4.194-1.204C26.472-59.752,26.125-59.674,25.798-59.848z M33.622-59.828
		c-0.181,0.173-0.337-0.155-0.498,0.043c-0.008,0.093,0.008,0.177,0.06,0.247c0.362,0.13,0.402,0.658,0.871,0.535
		c0.137-0.155-0.084-0.32-0.041-0.519C33.95-59.701,33.798-59.776,33.622-59.828z M18.114-57.507
		c-0.536,0.375-1.022,0.856-1.579,1.188c0.636,0.406,1.165,1.08,1.743,1.612l0.057,0.165c1.476-1.407,3.259-2.227,5.187-2.624
		c0.457-0.048,0.914-0.2,1.367-0.105c-0.037-0.818-0.106-1.676-0.019-2.485C22.361-59.615,20.122-58.854,18.114-57.507z
		 M37.312-58.291c-0.471,0.636-1.122,1.233-1.723,1.851l-0.292,0.057c0.185,0.042,0.231,0.259,0.352,0.388
		c0.638,0.336,0.804,1.013,1.354,1.391c0.31,0.647,1.024,1.15,1.051,1.897c0.754,1.655,1.27,3.411,1.317,5.363l-0.078,0.104
		c0.085,0,0.157-0.037,0.21-0.077l2.492-0.043c-0.168-0.241-0.101-0.594-0.142-0.89C41.525-52.101,39.885-55.391,37.312-58.291z
		 M13.556-58.232c-2.465,2.738-3.982,5.864-4.427,9.432c-0.093,0.523-0.041,1.056-0.14,1.584c0.87-0.071,1.809-0.071,2.67,0
		l-0.061-0.335c0.167-2.756,1.046-5.211,2.594-7.406c0.391-0.439,0.674-0.993,1.157-1.321c-0.558-0.529-1.146-1.144-1.735-1.719
		L13.556-58.232z M24.912-56.424l-0.146,0.081c-2.194,0.158-4.097,1.072-5.765,2.447c0.662,0.46,1.25,1.194,1.84,1.717
		c0.049-0.062,0.091-0.121,0.134-0.19c0.815-0.586,1.663-1.119,2.636-1.369c0.432-0.036,0.851-0.247,1.3-0.14
		C24.817-54.69,24.817-55.589,24.912-56.424z M25.814-56.41l0.092,0.188l-0.019,2.344l0.234-0.043
		c1.429,0.197,2.736,0.659,3.872,1.581l0.061,0.178c0.389-0.539,0.978-1.006,1.434-1.526l0.428-0.25l-0.208-0.087
		c-0.944-0.793-1.982-1.4-3.108-1.796C27.728-56.132,26.77-56.261,25.814-56.41z M15.907-55.762l-0.019,0.162l-0.931,1.188
		c-1.522,2.1-2.256,4.529-2.471,7.169l2.364-0.042L15.08-47.2c-0.095-0.061-0.068-0.164-0.104-0.251
		c0.191-2.46,1.054-4.655,2.759-6.487C17.077-54.509,16.469-55.111,15.907-55.762z M32.436-53.36l-0.043,0.106
		c-0.795,0.822-1.667,1.682-2.424,2.53c0.053,0.101,0.137,0.194,0.234,0.249c0.038-0.208,0.146-0.388,0.164-0.603
		c0.209-0.286,0.518-0.103,0.785-0.045c0.415-0.096,0.799,0.094,1.225,0.088c0.31,0.153,0.34,0.547,0.629,0.707
		c0.071,0.115,0.014,0.241-0.088,0.324c0.088,0.649,0.395-0.168,0.723-0.014c0.139,0.054,0.31,0.034,0.414,0.177
		c0.052,0.27,0.379,0.217,0.397,0.476c-0.029,0.13-0.166,0.167-0.247,0.234c0.072,0.259-0.272,0.425-0.151,0.7
		c0.5,0.094,0.515-0.487,0.752-0.747c-0.132-0.447-0.227-0.904-0.486-1.301c-0.285-0.063-0.452-0.394-0.745-0.458
		c-0.547-0.217,0.091-0.561,0.021-0.889C33.306-52.376,32.84-52.866,32.436-53.36z M18.379-53.271c-1.19,1.427-2.001,3-2.326,4.788
		c-0.096,0.414-0.044,0.892-0.205,1.284c0.303-0.138,0.743-0.085,1.081-0.043c-0.195-0.103-0.032-0.354-0.146-0.491
		c-0.026-0.218-0.061-0.483,0.146-0.623c-0.026-0.355,0.356-0.535,0.389-0.856c0.098-0.362,0.51-0.12,0.707-0.311
		c0.132-0.067,0.018-0.185,0.018-0.284c0.17-0.23,0.439-0.225,0.645-0.352c0.146-0.227,0.337-0.47,0.58-0.605
		c0.523,0.016,0.536-0.707,1.022-0.726C19.618-52,18.976-52.688,18.379-53.271z M25.841-52.988c0.168,0.493,0.021,1.219,0.124,1.789
		l0.629,0.207c0.178-0.3,0.575-0.363,0.75-0.644c0.109-0.095,0.241,0,0.33,0.104c0.025,0.231-0.04,0.464-0.108,0.689
		c-0.229,0.465-0.782,0.53-1.093,0.864c0.199,0.116,0.311-0.096,0.477-0.139c0.24,0.025,0.428,0.234,0.575,0.39
		c0.155,0.068,0.304-0.025,0.44-0.079c0.097-0.716,0.991-0.614,1.259-1.289l-0.163,0.064c-0.07-0.097-0.24-0.055-0.232-0.211
		c0.146-0.138,0.337-0.356,0.519-0.413c-0.777-0.483-1.576-0.899-2.457-1.123C26.54-52.859,26.177-52.866,25.841-52.988z
		 M21.194-51.18h0.194c0.208,0.204,0.543,0.164,0.698,0.434c0.077,0.155-0.143,0.14-0.135,0.272c0.043,0.032,0.103,0.04,0.135,0.106
		c0.165,0.061,0.13-0.097,0.193-0.168c0.211-0.218,0.247,0.21,0.458,0.21c0.153-0.097,0.359-0.108,0.463,0.062
		c0.137-0.124,0.43-0.007,0.473-0.236c0.266-0.283,0.118-0.723,0.518-0.906c0.138,0.081-0.01,0.208,0.042,0.332
		c0.267,0.114,0.571-0.227,0.781,0.043c-0.194-0.567-0.142-1.262-0.123-1.884C23.499-52.74,22.216-52.266,21.194-51.18z
		 M25.384-49.746c-0.138-0.156-0.437-0.063-0.618,0c0.174,0.172,0.104,0.481,0.209,0.698c-0.26,0.432-0.688,0.526-1.096,0.648
		c-0.115,0.136-0.091,0.44-0.357,0.413c-0.085,0.189-0.38,0.297-0.264,0.579c-0.14,0.294-0.07,0.673-0.15,0.993
		c-0.514,0.322-0.367-0.423-0.626-0.577l-0.087,0.147c-0.104,0.026-0.17-0.037-0.242-0.104c-0.077-0.026-0.205-0.052-0.274,0.019
		c-0.112,0.191-0.284,0.346-0.238,0.603c-0.055,0.156-0.311,0.106-0.28,0.269c0.285-0.01,0.597-0.062,0.871-0.12
		c0.198,0.052,0.362-0.096,0.567-0.103c0.066,0.033,0.151,0.103,0.123,0.208h0.064c0.137-0.104,0.203-0.26,0.137-0.417
		c0.02-0.179,0.22-0.179,0.336-0.23c0.117,0.048,0.047,0.161,0.063,0.245c0.389,0.147-0.093,0.434-0.146,0.64
		c-0.102,0.164,0,0.536-0.326,0.483c-0.065-0.018-0.101-0.077-0.089-0.151h-0.037c-0.013,0.142,0.091,0.332,0.23,0.393
		c0.24-0.201,0.252-0.539,0.595-0.583c0.184-0.19-0.078-0.484,0.188-0.638c0.453-0.008,0.934-0.198,1.288,0.163
		c-0.027,0.158-0.09,0.228,0.042,0.354c-0.088,0.201-0.149,0.415-0.31,0.583c0.042,0.113,0.007,0.252-0.085,0.328
		c-0.123,0.527-0.725,0.28-1.082,0.459c0.548,0.413,1.2,0.568,1.907,0.519c0.368-0.019,0.209-0.477,0.403-0.682
		c0.123-0.604,0.67-0.191,1.01-0.356c0.13-0.254,0.256-0.509,0.29-0.802c-0.212-0.139-0.298-0.399-0.231-0.647
		c-0.147-0.195-0.127-0.562-0.448-0.595c-0.051-0.071-0.007-0.156,0.034-0.208c-0.008-0.189,0.183-0.25,0.233-0.4
		c-0.195-0.128-0.148-0.411-0.128-0.577c-0.336,0.094-0.371-0.339-0.617-0.438c-0.066-0.204-0.285-0.233-0.459-0.274
		c-0.415,0.204-0.481-0.31-0.792-0.43c-0.033-0.095-0.101-0.232,0-0.311c0.153-0.13,0.363-0.021,0.545-0.026L25.384-49.746z
		 M17.878-47.617c-0.698,0.228,0.115,0.756-0.058,1.188c-0.097,0.25-0.352,0.018-0.534,0.124l-0.068,0.452
		c-0.103,0.271-0.44,0.074-0.596,0.255c-0.111,0.174,0.014,0.357,0.102,0.494c-0.242,0.548,0.542,0.723,0.537,1.223
		c0.24,0.312-0.035,0.764,0.309,1.041c0.076,0.56-0.075,1.321,0.414,1.758l0.086,0.538c0.104,0.374-0.442,0.277-0.371,0.602
		c0.104-0.049,0.129,0.089,0.134,0.125v-0.018c0.666-0.773,1.434-1.584,2.224-2.266l-0.325-0.329
		c-0.62-0.916-1.105-1.891-1.336-2.965l-0.249-0.127c-0.008,0.279-0.137,0.497-0.121,0.771l-0.086,0.103
		c-0.18-0.01-0.296-0.155-0.446-0.252c-0.037-0.093-0.132-0.248,0.018-0.329c0.082-0.003,0.143,0.021,0.206,0.063
		c0.076-0.094,0.044-0.233,0.086-0.356c0.025-0.208-0.158-0.396-0.027-0.574c0.165-0.025,0.286,0.177,0.356,0.286
		c0.164,0.055,0.292-0.081,0.425-0.145c0-0.141,0.209-0.343-0.013-0.431c0.12-0.334,0.035-0.692-0.021-1.021
		C18.43-47.695,18.114-47.643,17.878-47.617z M34.055-47.32c-0.069,0.032-0.161,0.006-0.249,0.016
		C33.879-47.337,33.974-47.32,34.055-47.32z M33.52-46.475l0.267,0.27c0.268,0.182,0.086,0.569,0.374,0.726
		c0.335,0.175,0.452,0.565,0.604,0.857c0.052-0.079,0.052-0.177,0.077-0.253c0.116-0.472,0.101-1.008,0.248-1.478
		C34.569-46.328,33.974-46.275,33.52-46.475z M39.434-46.354l-0.157-0.102l0.093,0.232c-0.144,2.875-1.101,5.417-2.739,7.672
		c-0.322,0.376-0.622,0.843-1.023,1.109c0.659,0.523,1.382,1.298,1.93,1.894l0.068-0.129c2.643-3.011,4.144-6.504,4.307-10.547
		l0.104-0.208l-0.13,0.058L39.434-46.354z M35.963-46.412c0.053,0.528-0.089,1.037-0.125,1.554l0.291,0.311
		c0.077,0.122,0.052,0.302-0.061,0.398c-0.128,0.077-0.28,0.068-0.402-0.027c-0.363,1.16-0.789,2.297-1.508,3.3
		c-0.289,0.362-0.563,0.866-0.936,1.056l0.789,0.688c0.041-0.042,0.015-0.113,0.022-0.173c0-0.103,0.054-0.226,0.181-0.21
		c0.382-0.004,0.389,0.397,0.608,0.606c-0.044,0.33,0.236,0.587,0.143,0.893c2.185-2.304,3.264-5.117,3.466-8.235l0.118-0.138
		c-0.773,0.075-1.594,0.024-2.393,0.031L35.963-46.412z M15.805-46.387l0.127,0.208c0.018,0.57,0.247,1.115,0.123,1.691
		c0.099-0.163,0.125-0.388,0.337-0.489c0.024-0.155-0.212-0.198-0.182-0.354c0.164-0.325,0.003-0.841,0.429-0.979
		C16.339-46.255,16.064-46.194,15.805-46.387z M11.646-46.354l-0.236,0.088l-2.4-0.019c0.138,2.764,0.873,5.278,2.114,7.586
		c0.612,1.14,1.512,2.166,2.301,3.232l1.716-1.784l0.208-0.084c-0.295-0.207-0.555-0.544-0.804-0.827
		c-0.283-0.079-0.574-0.281-0.719-0.553c-0.092-0.099-0.013-0.275-0.106-0.343l-0.103,0.132c-0.302,0.147-0.414-0.168-0.621-0.292
		c-0.274-0.144-0.143-0.656-0.505-0.562c-0.139-0.008-0.184-0.167-0.268-0.248c-0.338,0.033-0.42-0.341-0.604-0.52
		c-0.034,0.074,0,0.176-0.104,0.229c-0.343,0.082-0.466-0.341-0.693-0.514c-0.067,0.025-0.108,0.093-0.194,0.076
		c-0.208-0.182-0.343-0.438-0.353-0.726c-0.284-0.318-0.158-0.828-0.102-1.217c0.051-0.105,0.198-0.162,0.169-0.291
		c0.078-0.184,0.269-0.198,0.449-0.208c0.072,0.032,0.139,0.104,0.173,0.163c0.112-0.072,0.363,0.012,0.266-0.239
		c0.147-0.128,0.363-0.172,0.562-0.207c0.139,0.173,0.207,0.371,0.391,0.535l-0.124-0.191c-0.208-0.849-0.373-1.71-0.411-2.625
		c0.007-0.053-0.113-0.075-0.049-0.127l0.021,0.025C11.626-46.061,11.608-46.222,11.646-46.354z M15.021-46.354l-0.19,0.088
		c-0.8-0.019-1.64,0.048-2.404-0.063l0.104,0.148l0.188,1.588c0.081,0.614,0.349,1.202,0.333,1.808
		c0.098-0.133,0.036-0.39,0.268-0.416c-0.091-0.19,0.181-0.352,0.027-0.52c0.077-0.418,0.126-0.84,0.493-1.141
		c0.438-0.019,0.47-0.598,0.911-0.624c0.223-0.01,0.365,0.292,0.456,0.4C14.933-45.418,14.948-45.976,15.021-46.354z M19.461-45.287
		c0.245,0.444,0.374,0.955,0.623,1.404c0.155,0.401,0.507,0.708,0.657,1.098c0.166-0.311,0.494-0.563,0.72-0.847
		c0.02-0.129-0.006-0.245-0.073-0.34c-0.079-0.178-0.012-0.436-0.146-0.593c-0.223,0.076,0.076,0.305-0.017,0.43
		c-0.1,0.064-0.199-0.014-0.207-0.103c-0.202-0.031-0.354-0.205-0.416-0.384c0.165-0.105-0.04-0.147-0.087-0.234
		c-0.084-0.046-0.091-0.036-0.163,0.042c-0.04,0-0.093,0.01-0.132-0.018C20.218-45.323,19.672-45.027,19.461-45.287z M22.171-44.607
		c-0.052,0.211-0.196,0.403-0.351,0.559l0.021,0.017c0.211-0.146,0.353-0.413,0.622-0.432L22.171-44.607z M28.998-43.903
		c0.008,0.133,0.024,0.307,0.135,0.421c0.34-0.054,0.191,0.41,0.507,0.37c0.172-0.053,0.009-0.198,0.062-0.313
		c-0.052-0.257-0.304-0.282-0.483-0.439c-0.017-0.057,0.023-0.097,0.046-0.138C29.135-44.072,29.074-43.998,28.998-43.903z
		 M33.893-43.883c-0.252-0.02-0.553,0.129-0.768-0.042c-0.077-0.072-0.13,0.031-0.12,0.101c-0.088,0.134-0.176,0.3-0.379,0.237
		c-0.157-0.07-0.157-0.237-0.211-0.356c0.011,0.095-0.022,0.181-0.039,0.27c-0.182,0.192-0.241,0.374-0.374,0.582
		c-0.18,0.196-0.469,0.126-0.661,0.288c-0.035,0.417-0.49,0.332-0.751,0.458c-0.016,0.054,0.04,0.064,0.069,0.104
		c0.12,0.034,0.284,0.034,0.374-0.085c0.358,0.095,0.28-0.361,0.487-0.516c0.181-0.027,0.356-0.179,0.544-0.063
		c0.189,0.234,0.231,0.572,0.203,0.876c-0.203,0.207-0.095,0.54-0.249,0.782c0.032,0.284-0.311,0.419-0.263,0.703
		c-0.112,0.125-0.304,0.147-0.479,0.147c-0.677-0.26-1.39-0.43-2.157-0.494c-0.067,0.025-0.11,0.086-0.103,0.161
		c0.31,0.167,0.697,0.178,1.021,0.314c0.296,0.08,0.495,0.442,0.866,0.33c0.306-0.173,0.828,0.102,1.03-0.23
		c-0.031-0.322,0.248-0.55,0.382-0.825l0.101-0.026c0.175,0.178,0.165,0.445,0.244,0.646c0.249-0.261,0.432-0.541,0.653-0.811
		c0.567-0.833,1.054-1.717,1.259-2.669C34.339-43.998,34.107-43.952,33.893-43.883z M23.008-43.883
		c-0.381,0.607-1.084,1.157-1.604,1.717c0.925,0.763,1.959,1.239,3.11,1.433c0.059-0.229-0.037-0.523,0.086-0.721
		c0.084-0.188,0.32-0.181,0.493-0.15c0.104-0.007,0.162-0.135,0.104-0.223c-0.25-0.049-0.142-0.331-0.224-0.483
		c0.007-0.093,0.151-0.072,0.119-0.183c-0.172-0.139,0.083-0.291-0.063-0.44c0.063-0.042,0.104-0.138,0.191-0.138
		c-0.547,0.288-1.127-0.059-1.612-0.276C23.388-43.473,23.058-43.602,23.008-43.883z M28.022-42.372
		c-0.029,0.069-0.117,0.189,0,0.23c0.209-0.214,0.648-0.207,0.667-0.518C28.384-42.699,28.232-42.535,28.022-42.372z M28.998-41.718
		c-0.269,0-0.404,0.207-0.607,0.369c-0.242,0.14-0.36-0.26-0.559-0.163c0.006,0.042,0.054,0.061,0.086,0.077
		c0.052,0.063,0.071,0.186,0,0.248c-0.291,0.267-0.43-0.126-0.704-0.101v0.101c0.009,0.063-0.017,0.158-0.104,0.126
		c-0.171-0.287-0.526-0.185-0.699-0.434c-0.108-0.063-0.212,0.016-0.286,0.086c-0.073,0.126-0.35-0.021-0.283,0.206
		c-0.214,0.076-0.235,0.312-0.396,0.448c-0.265-0.043-0.387,0.261-0.639,0.253c0.03,0.053,0,0.135,0.084,0.148
		c0.153,0.069,0.309,0.084,0.494,0.059c0.265-0.413,0.696-0.072,1.06-0.227c0.226,0.043,0.067,0.288,0.234,0.375
		c0.354-0.113,0.621,0.302,0.906,0.039c-0.019-0.407,0.44-0.371,0.691-0.48c0.387-0.229,0.828-0.539,0.782-1.054L28.998-41.718z
		 M20.667-41.479c-0.514,0.623-1.119,1.271-1.725,1.762c0.268,0.018,0.415,0.311,0.645,0.44c1.291,1.081,2.902,1.599,4.412,1.966
		l-0.413-0.183c-0.309-0.356-0.751-0.77-0.769-1.262c0.31-0.105,0.278-0.451,0.381-0.684c0.256-0.28,0.567-0.425,0.904-0.503
		c-0.865,0.363-1.635-0.284-2.359-0.622C21.37-40.84,20.89-41.063,20.667-41.479z M32.66-39.067l-0.062-0.167
		c-0.075,0.208-0.23,0.335-0.388,0.496c0.011,0.134-0.037,0.342,0.121,0.437c0.349,0.116,0.804,0.336,0.881,0.739
		c-0.141,0.38-0.87,0.734-0.415,1.144c0.144,0.208-0.214,0.284-0.153,0.455l0.128-0.164c0.512-0.406,1.077-0.783,1.532-1.288h0.061
		c-0.106-0.032-0.231,0.071-0.352,0.019c-0.247-0.113-0.287-0.331-0.287-0.58L32.66-39.067z M18.768-38.736l-0.034-0.065
		l0.034,0.106V-38.736z M19.043-38.367c-0.114-0.074-0.184-0.141-0.21-0.272L19.043-38.367z M19.106-38.301
		c0.049,0.209,0.325,0.338,0.25,0.596c-0.147,0.231-0.452,0.237-0.691,0.231c-0.49-0.077-0.854,0.291-1.316,0.348
		c-0.425,0.13-0.571-0.39-0.957-0.348c2.393,2.104,5.137,3.414,8.356,3.585l0.242,0.167l-0.1-0.295v-2.279l-0.212,0.088
		C22.576-36.315,20.74-37.082,19.106-38.301z M35.07-36.683l-0.043-0.208c-0.235,0.476-0.772,0.775-1.178,1.14
		c-0.563,0.565-1.481,0.685-1.767,1.493c-0.302,0.279-0.406,0.709-0.83,0.871c-0.153,0.41-0.592,0.382-0.842,0.687
		c-0.728,0.649-1.196-0.413-1.849-0.543l-1.321,0.233c-0.459,0-0.917,0.165-1.354,0.017c0.058,0.883,0.058,1.829,0,2.714
		l0.162-0.102c4.172-0.187,7.763-1.765,10.845-4.563L35.07-36.683z M15.89-36.709l-0.026,0.102l-1.774,1.788
		c2.696,2.333,5.739,3.837,9.21,4.313c0.551,0.097,1.18,0.044,1.713,0.207l-0.123-0.207v-2.342l0.086-0.13l-0.271,0.07
		C21.336-33.144,18.356-34.338,15.89-36.709z M25.756-36.107l0.131,0.191c0,0.713,0.087,1.435,0,2.139
		c0.642-0.221,1.385-0.185,2.074-0.302c-0.138-0.052-0.275-0.083-0.378-0.22c-0.404-0.027-0.596-0.45-0.724-0.773
		c-0.059-0.228,0.099-0.42,0.191-0.625c-0.172-0.351-0.706-0.093-1.026-0.221C25.94-35.985,25.878-36.09,25.756-36.107z"/>
	<g>
		<path fill="#14527E" d="M41.647-60.944c1.276,1.136,1.842,2.601,2.211,4.124l0.21,0.48c-1.848-1.321-3.513-3.1-4.683-4.973
			l-1.434-1.452C39.208-62.235,40.571-61.911,41.647-60.944z"/>
		<path fill="#14527E" d="M9.521-58.689c-0.844,1.045-1.921,1.738-2.877,2.633c0.513-1.072,0.535-2.345,1.27-3.335
			c1.042-1.821,2.981-2.461,4.701-3.133C11.348-61.411,10.466-60.003,9.521-58.689z"/>
		<path fill="#14527E" d="M46.146-56.778c0.406,1.809-0.184,3.584,0.19,5.416l-0.019,0.018c-0.991-1.947-3.083-2.86-4.534-4.417
			c-0.833-0.924-1.198-2.048-1.402-3.239c0.823,1.995,3.057,2.439,4.337,4.112c0.426,0.388,0.564,0.924,0.843,1.366l0.044-0.042
			c-0.735-1.569-0.983-3.343-1.496-5.02c-0.257-0.726-0.767-1.442-1.448-1.905C44.336-60.139,45.792-58.386,46.146-56.778z"/>
		<path fill="#14527E" d="M7.951-60.175c-1.712,1.174-1.588,3.282-2.143,5.04c-0.173,0.646-0.473,1.24-0.62,1.908l0.043,0.031
			c0.29-0.753,0.784-1.459,1.412-2.074c1.217-1.12,3.018-1.82,3.612-3.481c-0.028,2.311-1.958,4.122-3.796,5.419
			c-0.762,0.66-1.498,1.421-1.908,2.277c-0.046-0.575,0.085-1.166,0.042-1.788c-0.196-2.009-0.343-4.312,1.081-5.804
			C6.289-59.413,7.075-59.951,7.951-60.175z"/>
		<path fill="#14527E" d="M47.224-56.384c1.524,2.074,1.86,5.374,0.748,7.753c-0.414,1.009-0.706,2.083-0.871,3.196
			c-0.076-0.192-0.096-0.449-0.161-0.664c-0.604-2.325-2.814-3.987-3.714-6.182c-0.286-0.715-0.524-1.463-0.671-2.235
			c0.969,1.788,3.352,2.714,4.008,4.68c0.263,0.501,0.246,1.124,0.408,1.662c0.036,0,0.072-0.026,0.072-0.062
			c-0.29-2.028-0.2-4.156,0.073-6.164c-0.015-1.087-0.121-2.141-0.722-2.977C46.784-57.155,46.955-56.718,47.224-56.384z"/>
		<path fill="#14527E" d="M4.297-57.033c-1.307,2-0.218,4.511-0.282,6.789L3.84-47.924c0.029,0.019,0.029,0.084,0.092,0.058
			c0.072-0.255,0.091-0.533,0.146-0.8c0.307-1.88,1.929-3.206,3.358-4.502c0.302-0.334,0.572-0.682,0.723-1.08
			c-0.108,0.936-0.404,1.873-0.792,2.74c-1.101,2.159-3.152,3.934-3.527,6.404c-0.179-2.374-1.794-4.142-1.632-6.655
			c-0.054-2.042,0.796-3.708,1.985-5.228C4.231-57.007,4.257-57.042,4.297-57.033z"/>
		<path fill="#14527E" d="M48.654-42.933c-0.91,1.293-2,2.488-2.846,3.799c0.096-1.033,0.225-2.313-0.188-3.299
			c-0.698-2.116-1.309-4.269-1.51-6.59l0.023-0.888c0.528,2.371,2.864,4.004,2.719,6.67c0.053,0.647-0.147,1.191-0.265,1.76
			l0.04,0.041l0.103-0.123c0.348-1.3,0.522-2.679,1.053-3.896c0.771-1.754,1.729-3.524,1.327-5.643
			C50.28-48.599,49.93-45.262,48.654-42.933z"/>
		<path fill="#14527E" d="M3.635-43.76c0.25,0.874,0.312,1.814,0.662,2.633c0.036,0.017,0.064-0.015,0.088-0.041
			c-0.889-2.487,0.387-4.798,1.672-6.738c0.321-0.525,0.5-1.117,0.657-1.72c0.133,1.125-0.146,2.416-0.311,3.585
			c-0.317,1.488-0.786,2.9-1.189,4.34c-0.268,0.898-0.199,1.918-0.063,2.856l-0.128-0.102c-0.939-1.736-2.805-3.09-3.359-4.994
			c-0.458-1.51-0.757-3.268-0.448-4.917c0.144-0.636,0.262-1.293,0.536-1.884C1.222-48.047,3.042-46.099,3.635-43.76z"/>
		<path fill="#14527E" d="M45.085-38.849c-0.059,1.169-0.438,2.208-1.049,3.135h0.096c0.832-1.085,1.48-2.24,2.455-3.283
			c1.497-1.448,3.032-2.931,3.228-4.949c0.512,3.357-1.38,6.31-4.166,8.21c-1.15,0.75-2.314,1.45-3.426,2.309v-0.102
			c1.698-2.819,0.87-6.679,1.91-9.771l0.392-1.038C44.311-42.414,45.144-40.783,45.085-38.849z"/>
		<path fill="#14527E" d="M7.985-35.025c0.182,0.638,0.554,1.208,0.792,1.823c-2.569-1.754-6.081-3.424-7.219-6.636
			c-0.482-1.112-0.534-2.483-0.43-3.751c0.204,2.856,3.28,4.372,4.708,6.739c0.333,0.482,0.634,1.019,1.083,1.426
			c-0.074-0.305-0.354-0.568-0.462-0.877c-0.502-0.995-0.686-2.174-0.562-3.382C6.03-41.14,6.65-42.5,6.418-44.035
			C7.672-41.326,7.291-37.954,7.985-35.025z"/>
		<path fill="#14527E" d="M41.251-32.893c-0.439,0.77-1.07,1.51-1.759,2.117c0.227-0.012,0.42-0.209,0.623-0.339
			c1.85-1.849,4.272-2.363,6.278-3.871c0.802-0.639,1.538-1.478,1.89-2.385c-0.377,3.072-3.435,5.947-6.308,6.863
			c-1.484,0.397-3.077,0.528-4.515,1.019c2.443-2.099,2.309-5.351,3.938-7.823c0.517-0.695,0.948-1.427,1.558-2.095
			C41.959-37.41,42.389-34.828,41.251-32.893z"/>
		<path fill="#14527E" d="M10.402-35.483c0.856,2.125,1.188,4.524,3.187,6.133c-2.162-0.705-4.698-0.508-6.594-1.839
			c-2.083-1.277-3.935-3.449-4.332-5.831c1.437,3.249,5.033,3.512,7.443,5.491c0.44,0.389,0.906,0.727,1.405,0.958l0.026-0.025
			c-0.549-0.502-1.192-1.071-1.574-1.72c-1.412-1.958-0.927-4.704-1.979-6.815C8.943-37.981,9.824-36.786,10.402-35.483z"/>
		<path fill="#14527E" d="M36.028-29.161c-0.536,0.35-1.198,0.41-1.743,0.669c0.776,0.014,1.485-0.259,2.258-0.338
			c2.853-0.451,6.118,0.013,8.112-2.415c-0.741,1.692-2.598,3.105-4.292,3.699c-2.913,1.099-5.842-0.243-8.632-0.693l-0.535-0.072
			v-0.021c1.327-0.298,2.627-0.699,3.684-1.657c1.572-1.502,2.956-3.047,4.699-4.233C38.289-32.575,38.151-30.22,36.028-29.161z"/>
		<path fill="#14527E" d="M16.039-29.946c1.108,0.965,2.433,1.419,3.836,1.705c-0.333,0.119-0.778,0.081-1.142,0.179
			c-2.513,0.619-5.311,1.632-7.982,0.724c-1.739-0.544-3.523-1.921-4.389-3.627c2.289,2.618,6.043,1.745,9.113,2.427
			c0.431,0.058,0.834,0.233,1.291,0.163c-0.36-0.23-0.878-0.205-1.272-0.416c-2.401-0.847-2.759-3.451-4.061-5.203
			C13.108-32.889,14.504-31.389,16.039-29.946z"/>
		<path fill="#14527E" d="M34.807-26.405c1.867,0.688,4.281,0.501,5.884-0.639c-0.822,1.031-1.947,1.763-3.116,2.177
			c-2.593,0.97-5.297-0.04-7.312-1.579c-0.823-0.516-1.55-1.27-2.613-1.201c-0.377-0.011-0.747,0.01-1.075,0.1
			c1.963,0.92,3.789,2.181,5.463,3.797c-0.285,0.319-0.651,0.622-0.991,0.897c-1.607-1.74-3.397-3.405-5.393-4.381
			c-0.388,0.056-0.759,0.283-1.115,0.477c-1.617,1.027-3.23,2.35-4.436,3.965l-1.042-0.851c1.662-1.678,3.487-2.982,5.496-3.916
			c-1.968-0.623-3.255,1.028-4.747,1.863c-1.749,1.22-4.257,1.792-6.356,0.952c-1.142-0.431-2.235-1.063-3.052-2.091
			c1.656,1.141,4.127,1.26,6.012,0.52c2.528-1.101,5.158-2.488,8.208-1.826c0.473,0.012,0.938,0.483,1.387,0.079
			c2.264-0.583,4.833-0.178,6.788,0.856L34.807-26.405z"/>
	</g>
</g>
<g>
	<path fill="#0071BC" d="M55.402-29.75l2.289-2.742c1.585,1.307,3.245,2.137,5.258,2.137c1.585,0,2.541-0.628,2.541-1.66v-0.05
		c0-0.981-0.604-1.485-3.547-2.239c-3.546-0.905-5.836-1.888-5.836-5.382v-0.053c0-3.194,2.566-5.307,6.164-5.307
		c2.566,0,4.755,0.805,6.541,2.239l-2.013,2.917c-1.56-1.082-3.094-1.736-4.579-1.736c-1.484,0-2.264,0.681-2.264,1.535v0.052
		c0,1.158,0.755,1.534,3.799,2.315c3.572,0.931,5.585,2.213,5.585,5.281v0.053c0,3.496-2.667,5.459-6.464,5.459
		C60.206-26.933,57.515-27.863,55.402-29.75z"/>
	<path fill="#0071BC" d="M71.05-40.667h3.824v1.937c0.931-1.258,2.214-2.188,4.201-2.188c3.145,0,6.138,2.464,6.138,6.969v0.05
		c0,4.504-2.943,6.971-6.138,6.971c-2.038,0-3.296-0.932-4.201-2.014v5.787H71.05V-40.667z M81.389-33.902v-0.049
		c0-2.24-1.51-3.723-3.295-3.723c-1.787,0-3.271,1.484-3.271,3.723v0.049c0,2.241,1.484,3.725,3.271,3.725
		C79.879-30.177,81.389-31.636,81.389-33.902z"/>
	<path fill="#0071BC" d="M86.118-33.851v-0.052c0-3.848,2.742-7.017,6.667-7.017c4.503,0,6.566,3.497,6.566,7.321
		c0,0.301-0.025,0.652-0.05,1.004h-9.384c0.377,1.736,1.584,2.642,3.296,2.642c1.283,0,2.213-0.402,3.27-1.384l2.189,1.938
		c-1.258,1.56-3.069,2.517-5.51,2.517C89.112-26.882,86.118-29.726,86.118-33.851z M95.628-34.982
		c-0.227-1.711-1.232-2.869-2.843-2.869c-1.584,0-2.617,1.133-2.917,2.869H95.628z"/>
	<path fill="#0071BC" d="M100.282-33.851v-0.052c0-3.848,2.943-7.017,7.069-7.017c2.541,0,4.125,0.856,5.385,2.262l-2.34,2.516
		c-0.857-0.906-1.713-1.484-3.07-1.484c-1.912,0-3.271,1.687-3.271,3.674v0.049c0,2.064,1.333,3.725,3.421,3.725
		c1.283,0,2.164-0.554,3.094-1.435l2.238,2.265c-1.308,1.435-2.816,2.465-5.51,2.465C103.251-26.882,100.282-30.002,100.282-33.851z
		"/>
	<path fill="#0071BC" d="M114.119-45.549h4.024v3.396h-4.024V-45.549z M114.219-40.667h3.824v13.482h-3.824V-40.667z"/>
	<path fill="#0071BC" d="M119.578-31.058v-0.054c0-2.942,2.236-4.301,5.433-4.301c1.358,0,2.34,0.228,3.295,0.554v-0.227
		c0-1.586-0.981-2.465-2.896-2.465c-1.455,0-2.488,0.276-3.721,0.729l-0.955-2.918c1.482-0.652,2.943-1.082,5.233-1.082
		c2.086,0,3.599,0.554,4.552,1.511c1.008,1.004,1.461,2.49,1.461,4.301v7.824h-3.699v-1.459c-0.93,1.03-2.211,1.711-4.074,1.711
		C121.666-26.933,119.578-28.392,119.578-31.058z M128.359-31.939v-0.679c-0.658-0.302-1.512-0.503-2.443-0.503
		c-1.635,0-2.641,0.652-2.641,1.861v0.052c0,1.03,0.855,1.633,2.09,1.633C127.152-29.575,128.359-30.556,128.359-31.939z"/>
	<path fill="#0071BC" d="M134.193-45.549h3.825v18.364h-3.825V-45.549z"/>
</g>
<g>
	<path fill="#3FA9F5" d="M145.623-45.534h13.963v3.592h-9.92v3.724h8.729v3.594h-8.729v3.855h10.05v3.592h-14.097L145.623-45.534
		L145.623-45.534z"/>
	<path fill="#3FA9F5" d="M160.062-41.232h4.258l3.172,9.415l3.201-9.415h4.18l-5.582,14.162h-3.647L160.062-41.232z"/>
	<path fill="#3FA9F5" d="M174.395-34.125v-0.052c0-4.012,2.884-7.317,7.011-7.317c4.73,0,6.9,3.646,6.9,7.634
		c0,0.314-0.025,0.682-0.053,1.049h-9.864c0.396,1.807,1.664,2.752,3.464,2.752c1.35,0,2.328-0.42,3.438-1.442l2.303,2.021
		c-1.323,1.625-3.227,2.622-5.792,2.622C177.542-26.861,174.395-29.825,174.395-34.125z M184.392-35.306
		c-0.236-1.783-1.295-2.987-2.986-2.987c-1.668,0-2.75,1.177-3.067,2.987H184.392z"/>
	<path fill="#3FA9F5" d="M189.972-41.232h4.02v1.993c0.926-1.18,2.117-2.255,4.152-2.255c3.042,0,4.812,1.993,4.812,5.22v9.101
		h-4.02v-7.84c0-1.889-0.9-2.859-2.436-2.859c-1.532,0-2.512,0.971-2.512,2.859v7.84h-4.02v-14.059H189.972z"/>
	<path fill="#3FA9F5" d="M205.787-31.162v-6.662h-1.692v-3.407h1.692v-3.594h4.021v3.593h3.33v3.408h-3.33v6.006
		c0,0.917,0.396,1.363,1.294,1.363c0.739,0,1.4-0.184,1.98-0.496v3.195c-0.844,0.5-1.821,0.816-3.172,0.816
		C207.453-26.937,205.787-27.911,205.787-31.162z"/>
	<path fill="#3FA9F5" d="M213.669-29.038l1.719-2.622c1.534,1.1,3.148,1.678,4.469,1.678c1.164,0,1.695-0.419,1.695-1.048v-0.053
		c0-0.866-1.378-1.155-2.936-1.625c-1.986-0.578-4.233-1.496-4.233-4.224v-0.053c0-2.859,2.325-4.457,5.185-4.457
		c1.799,0,3.756,0.603,5.289,1.625l-1.531,2.754c-1.403-0.812-2.805-1.31-3.836-1.31c-0.979,0-1.481,0.419-1.481,0.968v0.053
		c0,0.787,1.351,1.154,2.883,1.678c1.981,0.656,4.284,1.602,4.284,4.17v0.054c0,3.121-2.355,4.535-5.422,4.535
		C217.768-26.914,215.547-27.569,213.669-29.038z"/>
</g>
<g>
	<path fill="#14527E" d="M63.345-46.857c-4.385,0-7.067-2.449-7.067-7.253v-9.329h3.592v9.236c0,2.659,1.329,4.035,3.521,4.035
		c2.193,0,3.522-1.33,3.522-3.918v-9.352h3.591v9.212C70.505-49.282,67.729-46.857,63.345-46.857z"/>
	<path fill="#14527E" d="M80.59-47.113v-6.974c0-1.679-0.793-2.542-2.147-2.542c-1.351,0-2.214,0.863-2.214,2.542v6.974h-3.545
		v-12.501h3.545v1.772c0.816-1.05,1.866-2.005,3.662-2.005c2.682,0,4.244,1.772,4.244,4.641v8.093H80.59z"/>
	<path fill="#14527E" d="M86.171-60.991v-3.148h3.731v3.148H86.171z M86.264-47.113v-12.501h3.545v12.501H86.264z"/>
	<path fill="#14527E" d="M96.249-46.904c-2.168,0-3.638-0.863-3.638-3.756v-5.922h-1.493v-3.033h1.493v-3.195h3.545v3.195h2.938
		v3.033h-2.938v5.34c0,0.816,0.35,1.213,1.143,1.213c0.653,0,1.236-0.163,1.75-0.443v2.846
		C98.302-47.183,97.438-46.904,96.249-46.904z"/>
	<path fill="#14527E" d="M111.855-52.128h-8.698c0.35,1.609,1.469,2.449,3.055,2.449c1.19,0,2.052-0.374,3.032-1.283l2.029,1.795
		c-1.166,1.445-2.846,2.333-5.108,2.333c-3.754,0-6.529-2.636-6.529-6.461v-0.046c0-3.568,2.542-6.506,6.181-6.506
		c4.174,0,6.086,3.241,6.086,6.787v0.047C111.902-52.665,111.878-52.455,111.855-52.128z M105.816-57.002
		c-1.47,0-2.427,1.049-2.707,2.659h5.341C108.241-55.93,107.308-57.002,105.816-57.002z"/>
	<path fill="#14527E" d="M122.452-47.113v-1.796c-0.863,1.167-2.054,2.029-3.896,2.029c-2.915,0-5.691-2.287-5.691-6.461v-0.046
		c0-4.175,2.73-6.46,5.691-6.46c1.889,0,3.055,0.864,3.896,1.866v-6.158h3.544v17.026H122.452z M122.498-53.387
		c0-2.076-1.375-3.452-3.032-3.452c-1.655,0-3.056,1.353-3.056,3.452v0.046c0,2.076,1.4,3.451,3.056,3.451
		c1.657,0,3.032-1.375,3.032-3.451V-53.387z"/>
	<path fill="#14527E" d="M145.762-47.113l-7.907-10.379v10.379h-3.545v-16.326h3.312l7.651,10.052v-10.052h3.544v16.326H145.762z"/>
	<path fill="#14527E" d="M158.575-47.113v-1.354c-0.862,0.957-2.054,1.587-3.776,1.587c-2.356,0-4.294-1.353-4.294-3.826v-0.047
		c0-2.729,2.077-3.988,5.039-3.988c1.26,0,2.169,0.209,3.055,0.513v-0.209c0-1.469-0.91-2.286-2.683-2.286
		c-1.353,0-2.309,0.257-3.451,0.678l-0.887-2.705c1.376-0.607,2.729-1.004,4.852-1.004c3.871,0,5.574,2.007,5.574,5.388v7.253
		H158.575z M158.645-52.151c-0.605-0.28-1.398-0.466-2.264-0.466c-1.516,0-2.448,0.606-2.448,1.725v0.047
		c0,0.955,0.793,1.516,1.937,1.516c1.656,0,2.775-0.909,2.775-2.193V-52.151z"/>
	<path fill="#14527E" d="M168.051-46.904c-2.169,0-3.638-0.863-3.638-3.756v-5.922h-1.494v-3.033h1.494v-3.195h3.545v3.195h2.938
		v3.033h-2.938v5.34c0,0.816,0.348,1.213,1.141,1.213c0.654,0,1.236-0.163,1.751-0.443v2.846
		C170.104-47.183,169.24-46.904,168.051-46.904z"/>
	<path fill="#14527E" d="M172.464-60.991v-3.148h3.731v3.148H172.464z M172.557-47.113v-12.501h3.545v12.501H172.557z"/>
	<path fill="#14527E" d="M184.455-46.833c-3.872,0-6.74-2.869-6.74-6.461v-0.046c0-3.592,2.892-6.506,6.786-6.506
		c3.872,0,6.741,2.869,6.741,6.46v0.046C191.242-49.749,188.348-46.833,184.455-46.833z M187.742-53.341
		c0-1.842-1.328-3.452-3.287-3.452c-2.028,0-3.243,1.562-3.243,3.405v0.046c0,1.842,1.331,3.451,3.289,3.451
		c2.029,0,3.241-1.563,3.241-3.405V-53.341z"/>
	<path fill="#14527E" d="M200.603-47.113v-6.974c0-1.679-0.793-2.542-2.147-2.542c-1.353,0-2.214,0.863-2.214,2.542v6.974h-3.548
		v-12.501h3.548v1.772c0.814-1.05,1.865-2.005,3.66-2.005c2.684,0,4.245,1.772,4.245,4.641v8.093H200.603z"/>
	<path fill="#14527E" d="M210.498-46.88c-1.75,0-3.708-0.583-5.365-1.89l1.518-2.332c1.352,0.979,2.774,1.493,3.939,1.493
		c1.027,0,1.494-0.373,1.494-0.934v-0.047c0-0.769-1.214-1.026-2.591-1.446c-1.747-0.512-3.73-1.329-3.73-3.754v-0.046
		c0-2.542,2.053-3.965,4.571-3.965c1.586,0,3.312,0.537,4.666,1.446l-1.354,2.449c-1.238-0.724-2.475-1.166-3.383-1.166
		c-0.861,0-1.305,0.373-1.305,0.863v0.046c0,0.7,1.188,1.025,2.54,1.493c1.75,0.583,3.779,1.423,3.779,3.708v0.047
		C215.278-48.14,213.201-46.88,210.498-46.88z"/>
</g>
</svg>
