<?xml version="1.0" encoding="utf-8"?>
<!-- Generator: Adobe Illustrator 16.0.0, SVG Export Plug-In . SVG Version: 6.00 Build 0)  -->
<!DOCTYPE svg PUBLIC "-//W3C//DTD SVG 1.1//EN" "http://www.w3.org/Graphics/SVG/1.1/DTD/svg11.dtd">
<svg version="1.1" id="Layer_1" xmlns="http://www.w3.org/2000/svg" xmlns:xlink="http://www.w3.org/1999/xlink" x="0px" y="0px"
	 width="240.333px" height="33.945px" viewBox="3.167 0 240.333 33.945" enable-background="new 3.167 0 240.333 33.945"
	 xml:space="preserve">
<g>
	<path fill="#0071BC" d="M48.955,26.086l2.73-3.27c1.89,1.559,3.87,2.549,6.27,2.549c1.89,0,3.03-0.75,3.03-1.98v-0.059
		c0-1.17-0.72-1.771-4.23-2.67c-4.229-1.081-6.959-2.251-6.959-6.42v-0.062c0-3.81,3.06-6.329,7.35-6.329c3.06,0,5.67,0.96,7.8,2.67
		l-2.4,3.479c-1.86-1.29-3.69-2.07-5.46-2.07s-2.7,0.812-2.7,1.83v0.061c0,1.381,0.9,1.83,4.53,2.761
		c4.26,1.109,6.66,2.639,6.66,6.299v0.062c0,4.17-3.18,6.51-7.709,6.51C54.684,29.445,51.475,28.336,48.955,26.086z"/>
	<path fill="#0071BC" d="M67.615,13.066h4.56v2.31c1.11-1.5,2.64-2.609,5.01-2.609c3.75,0,7.32,2.939,7.32,8.311v0.059
		c0,5.371-3.51,8.312-7.32,8.312c-2.43,0-3.93-1.109-5.01-2.4v6.9h-4.56V13.066z M79.944,21.135v-0.059c0-2.671-1.8-4.44-3.93-4.44
		c-2.13,0-3.9,1.771-3.9,4.44v0.059c0,2.671,1.77,4.441,3.9,4.441C78.144,25.576,79.944,23.836,79.944,21.135z"/>
	<path fill="#0071BC" d="M85.584,21.195v-0.062c0-4.589,3.27-8.368,7.95-8.368c5.37,0,7.83,4.17,7.83,8.729
		c0,0.359-0.03,0.779-0.06,1.199h-11.19c0.45,2.07,1.89,3.149,3.93,3.149c1.53,0,2.64-0.479,3.9-1.649l2.61,2.311
		c-1.5,1.859-3.66,3-6.57,3C89.154,29.506,85.584,26.115,85.584,21.195z M96.924,19.846c-0.27-2.04-1.47-3.421-3.39-3.421
		c-1.89,0-3.12,1.351-3.479,3.421H96.924z"/>
	<path fill="#0071BC" d="M102.474,21.195v-0.062c0-4.589,3.51-8.368,8.43-8.368c3.03,0,4.92,1.021,6.42,2.699l-2.79,3
		c-1.02-1.08-2.04-1.771-3.66-1.771c-2.28,0-3.9,2.011-3.9,4.381v0.059c0,2.462,1.59,4.441,4.08,4.441c1.53,0,2.58-0.66,3.689-1.711
		l2.67,2.699c-1.56,1.711-3.36,2.94-6.57,2.94C106.014,29.506,102.474,25.785,102.474,21.195z"/>
	<path fill="#0071BC" d="M118.974,7.246h4.8v4.05h-4.8V7.246z M119.094,13.066h4.56v16.078h-4.56V13.066z"/>
	<path fill="#0071BC" d="M125.483,24.525v-0.062c0-3.51,2.67-5.129,6.479-5.129c1.62,0,2.79,0.271,3.931,0.66v-0.271
		c0-1.891-1.17-2.939-3.451-2.939c-1.739,0-2.969,0.33-4.439,0.869l-1.14-3.479c1.77-0.779,3.51-1.29,6.24-1.29
		c2.49,0,4.291,0.66,5.431,1.801c1.2,1.199,1.739,2.97,1.739,5.13v9.329h-4.41v-1.738c-1.109,1.229-2.639,2.039-4.859,2.039
		C127.973,29.445,125.483,27.705,125.483,24.525z M135.953,23.475v-0.81c-0.78-0.36-1.801-0.6-2.91-0.6
		c-1.95,0-3.15,0.779-3.15,2.219v0.062c0,1.229,1.021,1.948,2.49,1.948C134.514,26.295,135.953,25.125,135.953,23.475z"/>
	<path fill="#0071BC" d="M142.913,7.246h4.56v21.898h-4.56V7.246z"/>
</g>
<g>
	<path fill="#29ABE2" d="M147.742,7.264h16.65v4.283h-11.826v4.44h10.408v4.284h-10.408v4.598h11.983v4.284h-16.809L147.742,7.264
		L147.742,7.264z"/>
	<path fill="#29ABE2" d="M164.961,12.393h5.078l3.784,11.228l3.815-11.228h4.983l-6.654,16.888h-4.352L164.961,12.393z"/>
	<path fill="#29ABE2" d="M182.055,20.868v-0.062c0-4.784,3.438-8.726,8.357-8.726c5.645,0,8.23,4.347,8.23,9.103
		c0,0.375-0.031,0.812-0.062,1.25h-11.764c0.473,2.157,1.986,3.284,4.131,3.284c1.609,0,2.775-0.501,4.1-1.721l2.745,2.409
		c-1.577,1.938-3.849,3.127-6.907,3.127C185.809,29.531,182.055,25.997,182.055,20.868z M193.977,19.46
		c-0.285-2.126-1.545-3.564-3.563-3.564c-1.987,0-3.28,1.405-3.658,3.564H193.977z"/>
	<path fill="#29ABE2" d="M200.631,12.393h4.792v2.376c1.104-1.407,2.524-2.689,4.952-2.689c3.627,0,5.738,2.377,5.738,6.224v10.852
		h-4.793v-9.35c0-2.252-1.071-3.409-2.901-3.409c-1.828,0-2.996,1.157-2.996,3.409v9.35h-4.792V12.393L200.631,12.393z"/>
	<path fill="#29ABE2" d="M219.488,24.402v-7.943h-2.018v-4.064h2.018V8.108h4.795v4.285h3.974v4.064h-3.974v7.162
		c0,1.093,0.473,1.625,1.544,1.625c0.883,0,1.672-0.218,2.364-0.592v3.812c-1.008,0.595-2.174,0.973-3.782,0.973
		C221.477,29.438,219.488,28.279,219.488,24.402z"/>
	<path fill="#29ABE2" d="M228.889,26.935l2.049-3.127c1.83,1.312,3.754,2.001,5.33,2.001c1.389,0,2.02-0.5,2.02-1.25v-0.063
		c0-1.033-1.641-1.377-3.501-1.938c-2.366-0.688-5.046-1.783-5.046-5.036V17.46c0-3.409,2.773-5.315,6.181-5.315
		c2.146,0,4.479,0.719,6.308,1.938l-1.828,3.284c-1.672-0.969-3.344-1.562-4.572-1.562c-1.168,0-1.768,0.5-1.768,1.155v0.063
		c0,0.938,1.608,1.376,3.438,2.001c2.364,0.782,5.108,1.908,5.108,4.972v0.063c0,3.722-2.808,5.409-6.465,5.409
		C233.775,29.468,231.127,28.687,228.889,26.935z"/>
</g>
<g>
	<path fill="#0071BC" d="M36.995,8.083c1.473,2.84,1.892,6.747,0.931,9.954c-0.968,3.789-4.147,7.618-7.865,9.179
		c-4.173,2.044-10.104,1.533-13.83-1.136c-5.177-3.544-7.293-9.656-5.731-15.686c0.952-3.586,3.808-7.203,7.295-8.865
		C19.759,0.562,21.898,0.043,24.238,0C29.574,0.007,34.67,3.143,36.995,8.083z M24.516,0.694c0.087,0.558,0.065,1.323,0.021,1.953
		c0-0.063,0.031-0.12,0.066-0.171c0.1-0.056,0.187,0.028,0.232,0.101c0.009,0.099,0.047,0.269-0.039,0.324
		c0.086,0.015,0.129-0.048,0.206-0.048c1.619,0.118,3.125,0.595,4.465,1.357V4.176c0.276-0.134,0.629-0.311,0.916-0.068
		c0.339-0.128,0.405,0.29,0.681,0.338c0.33,0.201,0.705,0.567,0.746,0.957c0.068,0.128,0.263,0.218,0.289,0.353
		c0.228-0.479,0.679-0.819,1.075-1.237l0.241-0.1c-2.141-2.037-4.683-3.165-7.514-3.553C25.452,0.787,24.954,0.829,24.516,0.694z
		 M23.728,0.766c-2.848,0.113-5.373,1.081-7.62,2.698c-0.43,0.294-0.812,0.747-1.25,0.999h0.063c0.56,0.415,1.089,1.001,1.561,1.515
		l0.035-0.104c2.069-1.882,4.476-2.917,7.24-3.045l-0.068-0.168L23.67,0.964L23.728,0.766z M26.157,1.834L25.14,2.272
		c-0.087-0.036-0.249-0.077-0.304,0.037c-0.045,0.033,0,0.085,0.014,0.119c0.374,0.48,1.023,0.211,1.489,0.119
		c0.339,0.143,0.664-0.027,0.919-0.238V2.259C27.018,1.921,26.565,1.87,26.157,1.834z M24.502,3.583l0.073,0.134
		c-0.014,0.658,0.028,1.36-0.039,1.976c0.275-0.093,0.55,0.021,0.819,0.028c1.388,0.227,2.696,0.674,3.811,1.527
		c-0.136-0.143-0.299-0.305-0.33-0.509c0.025-0.029,0.051-0.037,0.088-0.029c0.01-0.218-0.223-0.33-0.256-0.529
		c0.033-0.041,0.085-0.083,0.156-0.062c0.24,0.226,0.444,0.474,0.623,0.729c0.152-0.063,0.283,0.035,0.393,0.118
		c0.206,0.121,0.08,0.386,0.232,0.525c0.029,0.417,0.542,0.652,0.515,1.069c0.009,0.101,0.128,0.019,0.173,0.069l0.42,0.522
		c-0.077,0.1-0.014,0.222,0.07,0.292c0.19,0.084,0.297-0.156,0.49-0.121c0.273,0.156-0.043,0.336-0.017,0.51
		c0.107,0.006,0.24-0.083,0.326,0.021c0.036,0.159-0.127,0.257-0.188,0.354c0,0.154,0.122,0.12,0.235,0.154
		c0.129-0.005,0.21,0.151,0.172,0.255c0.352,0.368-0.106,0.768,0.064,1.155c0.111,0.254-0.025,0.502-0.182,0.691
		c0.006,0.312-0.275,0.508-0.39,0.768l-0.363,0.069c-0.19,0.19,0.165,0.425-0.024,0.545l0.788,0.014l-0.083-0.084
		c-0.116-0.312-0.088-0.729,0.108-1.004c0.121-0.258,0.146-0.562,0.371-0.778c0.049-0.015,0.144-0.107,0.182,0
		c0.017,0.239-0.004,0.515-0.119,0.729c0.23,0.326,0.2,0.75,0.219,1.153c0.708-0.043,1.392-0.059,2.075-0.05l-0.062-0.136
		c-0.106-1.311-0.377-2.549-0.919-3.665c-0.146,0.006-0.254,0.128-0.42,0.085c-0.059-0.022-0.094-0.079-0.089-0.146
		c-0.281-0.268-0.458-0.621-0.782-0.859c-0.361,0.033-0.525-0.384-0.847-0.424c-0.289-0.122-0.092-0.59-0.51-0.464
		c-0.207-0.086-0.404-0.239-0.444-0.474c0-0.369-0.072-0.767-0.401-1.006c-0.256-0.091-0.369,0.247-0.626,0.189
		c-0.138-0.07-0.072-0.255-0.114-0.376c-0.051-0.104-0.172-0.18-0.149-0.322c0.332-0.441-0.405-0.436-0.242-0.864
		c-0.042-0.312-0.36-0.433-0.52-0.678c-1.096-0.499-2.197-0.838-3.436-0.986C25.053,3.66,24.77,3.724,24.502,3.583z M30.913,3.598
		c-0.147,0.142-0.276-0.128-0.407,0.035c-0.008,0.076,0.006,0.146,0.049,0.203c0.296,0.107,0.33,0.538,0.713,0.438
		c0.112-0.128-0.07-0.262-0.033-0.425C31.182,3.702,31.058,3.64,30.913,3.598z M18.206,5.5c-0.438,0.306-0.838,0.701-1.293,0.973
		c0.521,0.332,0.954,0.885,1.429,1.322l0.047,0.134c1.208-1.153,2.67-1.824,4.25-2.15c0.375-0.038,0.749-0.164,1.12-0.086
		c-0.03-0.671-0.087-1.373-0.016-2.037C21.685,3.773,19.851,4.396,18.206,5.5z M33.937,4.858c-0.386,0.521-0.919,1.01-1.412,1.516
		l-0.24,0.047c0.152,0.034,0.189,0.212,0.288,0.318c0.523,0.275,0.659,0.83,1.11,1.14c0.254,0.53,0.839,0.942,0.86,1.554
		c0.619,1.356,1.041,2.795,1.081,4.395l-0.063,0.085c0.07,0,0.129-0.029,0.173-0.063l2.042-0.035
		c-0.138-0.198-0.082-0.486-0.116-0.729C37.389,9.93,36.046,7.234,33.937,4.858z M14.47,4.906c-2.02,2.243-3.263,4.806-3.627,7.729
		c-0.077,0.427-0.034,0.865-0.115,1.297c0.713-0.057,1.482-0.057,2.188,0l-0.05-0.274c0.137-2.258,0.857-4.271,2.125-6.067
		c0.32-0.361,0.553-0.814,0.948-1.083C15.482,6.075,15,5.571,14.517,5.098L14.47,4.906z M23.777,6.387l-0.121,0.067
		c-1.798,0.13-3.356,0.879-4.724,2.005c0.543,0.377,1.024,0.979,1.508,1.408c0.039-0.052,0.074-0.099,0.109-0.156
		c0.669-0.481,1.363-0.918,2.161-1.121c0.354-0.03,0.696-0.202,1.066-0.116C23.698,7.809,23.698,7.072,23.777,6.387z M24.516,6.399
		l0.075,0.154l-0.015,1.92l0.192-0.035c1.171,0.162,2.242,0.54,3.172,1.296l0.05,0.146c0.319-0.442,0.801-0.826,1.176-1.251
		l0.35-0.205l-0.171-0.072c-0.773-0.649-1.623-1.146-2.546-1.471C26.083,6.627,25.299,6.521,24.516,6.399z M16.397,6.93
		l-0.015,0.133L15.62,8.036c-1.248,1.721-1.849,3.711-2.026,5.876l1.938-0.035l0.187,0.07c-0.078-0.05-0.056-0.135-0.086-0.206
		c0.157-2.016,0.863-3.814,2.261-5.315C17.356,7.957,16.857,7.464,16.397,6.93z M29.94,8.898l-0.034,0.087
		c-0.651,0.674-1.366,1.378-1.987,2.073c0.042,0.083,0.112,0.16,0.192,0.204c0.031-0.17,0.12-0.317,0.134-0.494
		c0.171-0.234,0.424-0.085,0.643-0.036c0.34-0.078,0.655,0.077,1.004,0.072c0.254,0.125,0.279,0.449,0.515,0.58
		c0.059,0.094,0.013,0.197-0.071,0.266c0.071,0.532,0.323-0.138,0.592-0.012c0.114,0.044,0.254,0.028,0.339,0.146
		c0.043,0.221,0.311,0.178,0.326,0.39c-0.024,0.107-0.136,0.136-0.202,0.192c0.059,0.212-0.223,0.349-0.124,0.574
		c0.41,0.077,0.422-0.398,0.617-0.611c-0.108-0.367-0.186-0.741-0.398-1.067c-0.234-0.05-0.371-0.322-0.611-0.375
		c-0.449-0.177,0.074-0.459,0.017-0.728C30.654,9.705,30.273,9.303,29.94,8.898z M18.423,8.971c-0.975,1.17-1.64,2.458-1.906,3.922
		c-0.078,0.34-0.035,0.732-0.168,1.054c0.249-0.113,0.61-0.07,0.886-0.035c-0.161-0.085-0.027-0.29-0.12-0.402
		c-0.021-0.179-0.05-0.396,0.12-0.511c-0.021-0.291,0.291-0.439,0.319-0.702c0.08-0.296,0.418-0.099,0.579-0.255
		c0.108-0.055,0.015-0.153,0.015-0.232c0.139-0.188,0.36-0.184,0.528-0.289c0.119-0.185,0.276-0.385,0.475-0.496
		c0.429,0.013,0.439-0.579,0.838-0.594C19.438,10.013,18.912,9.45,18.423,8.971z M24.537,9.203c0.138,0.403,0.017,0.999,0.101,1.466
		l0.516,0.169c0.146-0.246,0.471-0.297,0.614-0.528c0.089-0.078,0.197,0,0.27,0.086c0.021,0.189-0.032,0.38-0.088,0.565
		c-0.188,0.381-0.642,0.433-0.897,0.707c0.164,0.095,0.256-0.078,0.391-0.114c0.197,0.021,0.351,0.192,0.471,0.32
		c0.128,0.055,0.248-0.021,0.361-0.065c0.079-0.588,0.813-0.504,1.032-1.056l-0.134,0.053c-0.058-0.079-0.197-0.045-0.191-0.173
		c0.12-0.113,0.276-0.291,0.426-0.338c-0.638-0.397-1.292-0.738-2.013-0.921C25.11,9.308,24.812,9.303,24.537,9.203z M20.73,10.684
		h0.158c0.17,0.167,0.446,0.135,0.572,0.357c0.063,0.128-0.117,0.114-0.111,0.222c0.035,0.027,0.084,0.033,0.111,0.087
		c0.135,0.05,0.107-0.08,0.157-0.137c0.174-0.179,0.204,0.172,0.375,0.172c0.125-0.081,0.294-0.089,0.379,0.05
		c0.113-0.101,0.353-0.006,0.388-0.194c0.218-0.232,0.097-0.592,0.423-0.742c0.114,0.066-0.006,0.171,0.036,0.271
		c0.217,0.094,0.467-0.185,0.639,0.036c-0.159-0.464-0.116-1.035-0.1-1.544C22.617,9.407,21.567,9.795,20.73,10.684z M24.163,11.859
		c-0.113-0.129-0.358-0.052-0.507,0c0.143,0.141,0.085,0.395,0.172,0.572c-0.213,0.354-0.564,0.432-0.898,0.532
		c-0.094,0.111-0.074,0.36-0.292,0.338c-0.07,0.155-0.311,0.244-0.216,0.475c-0.114,0.24-0.057,0.552-0.123,0.814
		c-0.421,0.263-0.301-0.347-0.513-0.474l-0.071,0.12c-0.086,0.021-0.14-0.03-0.199-0.086c-0.064-0.021-0.167-0.043-0.224,0.015
		c-0.093,0.157-0.233,0.283-0.196,0.494c-0.044,0.128-0.254,0.087-0.229,0.22c0.234-0.008,0.489-0.051,0.714-0.099
		c0.162,0.043,0.296-0.078,0.464-0.085c0.055,0.028,0.125,0.085,0.101,0.171h0.053c0.113-0.086,0.166-0.213,0.113-0.341
		c0.016-0.147,0.18-0.147,0.275-0.188c0.095,0.04,0.038,0.131,0.051,0.201c0.319,0.12-0.076,0.354-0.119,0.523
		c-0.083,0.135,0,0.44-0.268,0.398c-0.053-0.016-0.082-0.064-0.073-0.124h-0.032c-0.01,0.116,0.076,0.271,0.189,0.322
		c0.197-0.164,0.207-0.441,0.487-0.479c0.15-0.156-0.063-0.396,0.155-0.522c0.371-0.006,0.765-0.162,1.055,0.134
		c-0.021,0.129-0.073,0.186,0.036,0.289c-0.073,0.165-0.122,0.341-0.254,0.477c0.034,0.093,0.005,0.207-0.071,0.269
		c-0.101,0.433-0.594,0.229-0.886,0.377c0.449,0.339,0.984,0.466,1.563,0.425c0.301-0.016,0.171-0.391,0.33-0.559
		c0.101-0.496,0.55-0.157,0.827-0.292c0.108-0.209,0.21-0.418,0.238-0.657c-0.174-0.114-0.245-0.327-0.19-0.53
		c-0.12-0.161-0.104-0.461-0.366-0.488c-0.042-0.058-0.007-0.128,0.027-0.171c-0.006-0.155,0.15-0.205,0.191-0.328
		c-0.16-0.104-0.121-0.336-0.105-0.472c-0.275,0.077-0.304-0.279-0.506-0.359c-0.053-0.167-0.232-0.192-0.376-0.224
		c-0.34,0.167-0.394-0.254-0.649-0.353c-0.027-0.077-0.082-0.19,0-0.254c0.126-0.107,0.297-0.017,0.446-0.021L24.163,11.859z
		 M18.012,13.604c-0.572,0.187,0.095,0.62-0.048,0.975c-0.079,0.204-0.287,0.014-0.438,0.1L17.47,15.05
		c-0.084,0.222-0.361,0.059-0.488,0.209c-0.091,0.142,0.011,0.292,0.084,0.404c-0.198,0.45,0.444,0.593,0.44,1.003
		c0.197,0.256-0.029,0.626,0.253,0.852c0.062,0.459-0.061,1.083,0.339,1.441l0.071,0.439c0.085,0.307-0.362,0.229-0.304,0.494
		c0.085-0.039,0.106,0.073,0.111,0.102V19.98c0.545-0.634,1.174-1.299,1.823-1.857l-0.268-0.27c-0.507-0.75-0.904-1.55-1.094-2.43
		l-0.205-0.104c-0.007,0.229-0.112,0.406-0.099,0.632l-0.07,0.084c-0.148-0.008-0.242-0.127-0.365-0.207
		c-0.031-0.076-0.109-0.203,0.014-0.269c0.067-0.004,0.117,0.016,0.168,0.052c0.062-0.078,0.035-0.191,0.071-0.292
		c0.021-0.172-0.129-0.325-0.023-0.472c0.136-0.019,0.235,0.146,0.292,0.235c0.134,0.045,0.24-0.067,0.349-0.118
		c0-0.117,0.172-0.282-0.012-0.354c0.099-0.272,0.029-0.566-0.016-0.836C18.465,13.541,18.206,13.584,18.012,13.604z M31.268,13.847
		c-0.057,0.028-0.132,0.006-0.203,0.014C31.124,13.833,31.202,13.847,31.268,13.847z M30.83,14.541l0.219,0.22
		c0.219,0.148,0.07,0.467,0.307,0.595c0.274,0.144,0.37,0.464,0.494,0.702c0.043-0.064,0.043-0.144,0.063-0.207
		c0.096-0.387,0.082-0.826,0.203-1.211C31.69,14.661,31.202,14.704,30.83,14.541z M35.676,14.639l-0.129-0.083l0.076,0.191
		c-0.118,2.355-0.902,4.438-2.244,6.287c-0.263,0.309-0.509,0.691-0.838,0.909c0.539,0.428,1.133,1.063,1.581,1.551l0.056-0.105
		c2.166-2.467,3.396-5.331,3.529-8.642l0.086-0.17l-0.107,0.048L35.676,14.639z M32.831,14.592c0.045,0.433-0.072,0.85-0.101,1.273
		l0.239,0.254c0.062,0.1,0.042,0.247-0.05,0.326c-0.105,0.063-0.23,0.056-0.33-0.021c-0.297,0.949-0.646,1.88-1.235,2.704
		c-0.237,0.297-0.462,0.709-0.767,0.865l0.646,0.563c0.033-0.035,0.012-0.092,0.018-0.141c0-0.084,0.044-0.184,0.148-0.171
		c0.312-0.005,0.319,0.325,0.498,0.496c-0.035,0.271,0.195,0.481,0.117,0.731c1.79-1.887,2.675-4.192,2.84-6.748l0.097-0.113
		c-0.633,0.063-1.305,0.021-1.961,0.026L32.831,14.592z M16.314,14.612l0.104,0.17c0.013,0.467,0.202,0.913,0.1,1.387
		c0.081-0.134,0.102-0.318,0.276-0.401c0.019-0.127-0.174-0.162-0.149-0.29c0.135-0.266,0.003-0.688,0.352-0.801
		C16.751,14.72,16.526,14.77,16.314,14.612z M12.905,14.639l-0.193,0.073l-1.967-0.016c0.113,2.266,0.715,4.325,1.732,6.218
		c0.501,0.932,1.239,1.773,1.886,2.647l1.406-1.461l0.17-0.07c-0.242-0.169-0.454-0.445-0.659-0.678
		c-0.232-0.064-0.471-0.229-0.589-0.452c-0.076-0.082-0.01-0.225-0.088-0.282l-0.085,0.108c-0.246,0.122-0.338-0.136-0.508-0.238
		c-0.225-0.12-0.118-0.539-0.414-0.461c-0.114-0.006-0.151-0.137-0.22-0.204c-0.276,0.028-0.345-0.278-0.494-0.427
		c-0.028,0.063,0,0.147-0.085,0.189c-0.282,0.066-0.383-0.281-0.569-0.422c-0.055,0.02-0.089,0.076-0.159,0.062
		c-0.17-0.148-0.282-0.359-0.29-0.594c-0.232-0.262-0.129-0.679-0.083-0.999c0.041-0.086,0.163-0.132,0.139-0.239
		c0.064-0.149,0.22-0.162,0.368-0.17c0.059,0.027,0.113,0.085,0.142,0.134c0.091-0.058,0.297,0.01,0.218-0.196
		c0.12-0.105,0.298-0.141,0.459-0.169c0.114,0.142,0.169,0.304,0.321,0.438l-0.101-0.157c-0.171-0.695-0.306-1.402-0.337-2.151
		c0.006-0.044-0.092-0.062-0.04-0.105l0.017,0.02C12.888,14.881,12.875,14.748,12.905,14.639z M15.67,14.639l-0.156,0.073
		c-0.655-0.016-1.343,0.04-1.97-0.052l0.086,0.121l0.154,1.302c0.066,0.503,0.287,0.984,0.272,1.481
		c0.081-0.109,0.03-0.32,0.221-0.341c-0.075-0.156,0.148-0.288,0.023-0.426c0.062-0.342,0.103-0.688,0.403-0.935
		c0.359-0.016,0.386-0.489,0.747-0.511c0.183-0.008,0.299,0.24,0.373,0.327C15.599,15.406,15.612,14.95,15.67,14.639z M19.31,15.513
		c0.201,0.366,0.306,0.783,0.511,1.151c0.127,0.328,0.415,0.58,0.538,0.9c0.135-0.256,0.404-0.462,0.59-0.694
		c0.016-0.106-0.005-0.2-0.06-0.279c-0.064-0.146-0.009-0.357-0.119-0.486c-0.183,0.063,0.062,0.25-0.014,0.354
		c-0.081,0.052-0.163-0.013-0.169-0.085c-0.165-0.026-0.289-0.168-0.341-0.315c0.135-0.086-0.032-0.12-0.071-0.191
		c-0.069-0.037-0.075-0.029-0.134,0.035c-0.033,0-0.076,0.008-0.109-0.015C19.93,15.483,19.482,15.726,19.31,15.513z M21.53,16.071
		c-0.042,0.174-0.16,0.33-0.288,0.458l0.018,0.015c0.173-0.12,0.29-0.339,0.51-0.354L21.53,16.071z M27.124,16.648
		c0.008,0.11,0.021,0.252,0.112,0.345c0.279-0.044,0.156,0.337,0.415,0.304c0.142-0.044,0.008-0.162,0.052-0.257
		c-0.043-0.211-0.249-0.232-0.396-0.36c-0.013-0.046,0.019-0.079,0.038-0.113C27.236,16.51,27.187,16.57,27.124,16.648z
		 M31.135,16.665c-0.207-0.017-0.453,0.105-0.629-0.035c-0.063-0.06-0.108,0.025-0.099,0.083c-0.071,0.109-0.144,0.245-0.31,0.193
		c-0.128-0.057-0.128-0.193-0.173-0.292c0.009,0.077-0.018,0.149-0.032,0.222c-0.148,0.157-0.197,0.305-0.306,0.475
		c-0.147,0.161-0.385,0.105-0.542,0.238c-0.028,0.341-0.401,0.271-0.616,0.375c-0.012,0.044,0.033,0.052,0.057,0.086
		c0.098,0.027,0.232,0.027,0.306-0.07c0.293,0.077,0.23-0.296,0.4-0.423c0.149-0.022,0.291-0.147,0.446-0.051
		c0.154,0.19,0.189,0.468,0.166,0.716c-0.166,0.169-0.079,0.444-0.204,0.642c0.027,0.234-0.255,0.344-0.216,0.575
		c-0.091,0.105-0.249,0.123-0.393,0.123c-0.555-0.215-1.139-0.352-1.768-0.406c-0.055,0.021-0.091,0.07-0.085,0.133
		c0.254,0.137,0.571,0.145,0.837,0.257c0.243,0.065,0.406,0.363,0.71,0.271c0.25-0.143,0.678,0.083,0.844-0.188
		c-0.026-0.263,0.202-0.452,0.312-0.676l0.083-0.022c0.144,0.146,0.136,0.365,0.201,0.53c0.203-0.215,0.354-0.445,0.534-0.665
		c0.465-0.683,0.864-1.408,1.031-2.188C31.502,16.57,31.311,16.607,31.135,16.665z M22.216,16.665
		c-0.312,0.497-0.889,0.947-1.314,1.407c0.757,0.625,1.606,1.015,2.548,1.175c0.049-0.189-0.03-0.43,0.072-0.592
		c0.069-0.153,0.262-0.148,0.404-0.123c0.085-0.006,0.133-0.11,0.085-0.183c-0.206-0.04-0.116-0.271-0.183-0.396
		c0.006-0.074,0.123-0.058,0.098-0.15c-0.142-0.112,0.068-0.238-0.052-0.36c0.052-0.034,0.084-0.113,0.157-0.113
		c-0.448,0.235-0.924-0.049-1.321-0.227C22.527,17,22.257,16.895,22.216,16.665z M26.325,17.903c-0.023,0.057-0.096,0.154,0,0.189
		c0.171-0.176,0.531-0.17,0.546-0.426C26.622,17.635,26.496,17.769,26.325,17.903z M27.124,18.437c-0.22,0-0.331,0.169-0.497,0.303
		c-0.198,0.114-0.295-0.213-0.458-0.134c0.006,0.036,0.044,0.05,0.07,0.062c0.042,0.052,0.058,0.153,0,0.204
		c-0.239,0.219-0.353-0.104-0.577-0.082v0.082c0.007,0.051-0.014,0.13-0.086,0.102c-0.141-0.234-0.431-0.151-0.573-0.354
		c-0.089-0.052-0.175,0.014-0.235,0.07c-0.059,0.104-0.287-0.016-0.231,0.168c-0.175,0.064-0.193,0.256-0.324,0.368
		c-0.218-0.035-0.317,0.213-0.523,0.206c0.024,0.045,0,0.112,0.068,0.122c0.126,0.057,0.253,0.07,0.405,0.049
		c0.217-0.34,0.57-0.059,0.868-0.185c0.186,0.034,0.056,0.234,0.192,0.307c0.29-0.094,0.508,0.246,0.742,0.032
		c-0.015-0.334,0.36-0.305,0.566-0.393c0.317-0.188,0.679-0.442,0.642-0.864L27.124,18.437z M20.297,18.634
		c-0.421,0.509-0.916,1.042-1.413,1.443c0.219,0.015,0.339,0.256,0.528,0.36c1.058,0.886,2.379,1.311,3.616,1.612l-0.339-0.151
		c-0.253-0.292-0.616-0.631-0.631-1.034c0.254-0.087,0.228-0.369,0.313-0.561c0.21-0.228,0.465-0.348,0.741-0.412
		c-0.71,0.299-1.341-0.232-1.934-0.509C20.874,19.157,20.48,18.974,20.297,18.634z M30.125,20.609l-0.052-0.137
		c-0.061,0.17-0.188,0.275-0.317,0.407c0.009,0.11-0.031,0.28,0.098,0.357c0.286,0.095,0.658,0.276,0.722,0.606
		c-0.116,0.312-0.712,0.601-0.339,0.938c0.117,0.17-0.176,0.232-0.125,0.372l0.105-0.134c0.419-0.333,0.882-0.642,1.255-1.055h0.051
		c-0.087-0.028-0.19,0.057-0.289,0.015c-0.202-0.092-0.236-0.271-0.236-0.475L30.125,20.609z M18.742,20.881l-0.028-0.053
		l0.028,0.087V20.881z M18.968,21.184c-0.094-0.059-0.152-0.115-0.173-0.221L18.968,21.184z M19.019,21.238
		c0.04,0.171,0.266,0.276,0.205,0.488c-0.12,0.189-0.37,0.196-0.566,0.189c-0.402-0.062-0.7,0.24-1.08,0.285
		c-0.347,0.107-0.468-0.319-0.783-0.285c1.961,1.724,4.209,2.797,6.847,2.938l0.199,0.138l-0.082-0.243v-1.867l-0.174,0.072
		C21.863,22.866,20.358,22.237,19.019,21.238z M32.099,22.564l-0.035-0.171c-0.193,0.39-0.633,0.635-0.965,0.934
		c-0.462,0.462-1.214,0.561-1.448,1.224c-0.247,0.227-0.332,0.58-0.68,0.712c-0.125,0.336-0.485,0.314-0.69,0.562
		c-0.596,0.532-0.979-0.338-1.515-0.445l-1.082,0.191c-0.376,0-0.752,0.136-1.109,0.015c0.048,0.723,0.048,1.5,0,2.224l0.133-0.085
		c3.419-0.152,6.361-1.444,8.887-3.738L32.099,22.564z M16.383,22.543l-0.022,0.083l-1.455,1.465
		c2.209,1.911,4.704,3.145,7.547,3.535c0.452,0.078,0.967,0.036,1.404,0.169l-0.1-0.169v-1.919l0.07-0.108l-0.221,0.058
		C20.846,25.465,18.405,24.486,16.383,22.543z M24.468,23.036l0.108,0.156c0,0.584,0.072,1.176,0,1.753
		c0.526-0.182,1.135-0.151,1.699-0.247c-0.113-0.042-0.225-0.068-0.31-0.181c-0.331-0.022-0.488-0.368-0.593-0.632
		c-0.048-0.188,0.081-0.345,0.156-0.513c-0.141-0.287-0.579-0.076-0.84-0.182C24.618,23.135,24.568,23.051,24.468,23.036z"/>
	<g>
		<path fill="#0071BC" d="M37.489,2.683c1.045,0.93,1.51,2.132,1.813,3.379l0.171,0.394c-1.513-1.082-2.878-2.54-3.837-4.075
			L34.46,1.191C35.49,1.627,36.607,1.891,37.489,2.683z"/>
		<path fill="#0071BC" d="M11.164,4.531C10.473,5.388,9.59,5.956,8.806,6.689c0.421-0.879,0.438-1.922,1.04-2.732
			c0.853-1.492,2.442-2.017,3.852-2.568C12.661,2.302,11.939,3.455,11.164,4.531z"/>
		<path fill="#0071BC" d="M41.175,6.097c0.333,1.483-0.15,2.937,0.156,4.438l-0.015,0.015C40.504,8.955,38.789,8.206,37.6,6.93
			c-0.683-0.757-0.981-1.678-1.149-2.654c0.675,1.635,2.506,1.999,3.554,3.37c0.349,0.318,0.463,0.758,0.691,1.119l0.035-0.035
			c-0.602-1.285-0.805-2.738-1.225-4.112c-0.211-0.595-0.629-1.182-1.186-1.561C39.692,3.344,40.886,4.779,41.175,6.097z"/>
		<path fill="#0071BC" d="M9.878,3.314c-1.404,0.961-1.302,2.689-1.757,4.13C7.979,7.972,7.734,8.46,7.614,9.007l0.035,0.026
			c0.237-0.617,0.642-1.196,1.157-1.699c0.996-0.919,2.472-1.492,2.958-2.854c-0.022,1.894-1.603,3.378-3.109,4.441
			c-0.625,0.542-1.229,1.165-1.564,1.866C7.053,10.315,7.16,9.832,7.125,9.322C6.964,7.676,6.844,5.789,8.011,4.566
			C8.515,3.938,9.16,3.498,9.878,3.314z"/>
		<path fill="#0071BC" d="M42.06,6.421c1.248,1.699,1.524,4.403,0.613,6.353c-0.34,0.826-0.579,1.707-0.714,2.619
			c-0.062-0.158-0.078-0.368-0.132-0.544c-0.495-1.905-2.307-3.266-3.044-5.065c-0.234-0.586-0.43-1.198-0.549-1.831
			c0.793,1.464,2.746,2.224,3.284,3.835c0.215,0.411,0.202,0.921,0.334,1.36c0.03,0,0.059-0.021,0.059-0.05
			c-0.237-1.662-0.164-3.405,0.06-5.05c-0.012-0.891-0.099-1.754-0.591-2.439C41.698,5.789,41.839,6.146,42.06,6.421z"/>
		<path fill="#0071BC" d="M6.884,5.888c-1.072,1.639-0.18,3.697-0.231,5.562L6.51,13.353c0.023,0.015,0.023,0.069,0.075,0.048
			c0.059-0.21,0.074-0.437,0.119-0.656c0.252-1.54,1.581-2.626,2.752-3.689c0.247-0.274,0.469-0.559,0.592-0.884
			c-0.089,0.766-0.331,1.534-0.649,2.244c-0.902,1.769-2.583,3.223-2.889,5.247c-0.146-1.944-1.471-3.393-1.337-5.453
			C5.129,8.537,5.825,7.171,6.8,5.926C6.829,5.91,6.851,5.882,6.884,5.888z"/>
		<path fill="#0071BC" d="M43.231,17.443c-0.745,1.059-1.638,2.039-2.332,3.113c0.08-0.847,0.185-1.896-0.154-2.703
			c-0.573-1.734-1.072-3.497-1.238-5.401l0.019-0.728c0.433,1.944,2.346,3.282,2.228,5.466c0.044,0.53-0.12,0.978-0.217,1.442
			l0.033,0.035l0.084-0.101c0.284-1.065,0.428-2.195,0.862-3.192c0.631-1.438,1.416-2.888,1.088-4.623
			C44.563,12.8,44.277,15.533,43.231,17.443z"/>
		<path fill="#0071BC" d="M6.341,16.764c0.205,0.716,0.256,1.487,0.543,2.159c0.029,0.014,0.052-0.012,0.072-0.034
			c-0.729-2.039,0.317-3.932,1.369-5.521c0.264-0.431,0.411-0.915,0.539-1.41c0.109,0.922-0.12,1.979-0.255,2.938
			c-0.26,1.219-0.644,2.376-0.974,3.556c-0.221,0.735-0.163,1.573-0.052,2.341l-0.105-0.084c-0.77-1.423-2.299-2.532-2.752-4.092
			c-0.376-1.238-0.621-2.678-0.367-4.028c0.117-0.522,0.215-1.059,0.44-1.544C4.364,13.253,5.855,14.848,6.341,16.764z"/>
		<path fill="#0071BC" d="M40.306,20.79c-0.048,0.958-0.358,1.809-0.859,2.57h0.079c0.682-0.89,1.213-1.837,2.01-2.689
			c1.226-1.188,2.485-2.404,2.646-4.057c0.42,2.752-1.13,5.17-3.414,6.728c-0.942,0.615-1.896,1.188-2.807,1.891v-0.085
			c1.391-2.309,0.713-5.472,1.565-8.007l0.321-0.85C39.673,17.868,40.354,19.205,40.306,20.79z"/>
		<path fill="#0071BC" d="M9.906,23.924c0.149,0.521,0.454,0.99,0.648,1.494c-2.105-1.438-4.982-2.806-5.914-5.438
			c-0.395-0.91-0.438-2.035-0.352-3.074c0.167,2.341,2.688,3.583,3.858,5.522c0.273,0.396,0.519,0.835,0.886,1.17
			c-0.06-0.251-0.29-0.465-0.377-0.719c-0.413-0.817-0.563-1.782-0.461-2.771c0.11-1.194,0.618-2.308,0.429-3.566
			C9.649,18.76,9.336,21.523,9.906,23.924z"/>
		<path fill="#0071BC" d="M37.165,25.671c-0.36,0.631-0.877,1.237-1.441,1.735c0.185-0.011,0.345-0.172,0.511-0.277
			c1.516-1.516,3.5-1.939,5.145-3.172c0.657-0.524,1.259-1.211,1.548-1.956c-0.31,2.518-2.814,4.875-5.169,5.625
			c-1.217,0.325-2.521,0.432-3.7,0.835c2.002-1.722,1.891-4.384,3.226-6.41c0.423-0.57,0.777-1.17,1.277-1.718
			C37.745,21.968,38.097,24.085,37.165,25.671z"/>
		<path fill="#0071BC" d="M11.886,23.547c0.702,1.741,0.974,3.708,2.612,5.025c-1.772-0.578-3.85-0.416-5.404-1.507
			c-1.708-1.049-3.224-2.826-3.55-4.777c1.177,2.662,4.125,2.878,6.099,4.499c0.361,0.318,0.742,0.596,1.152,0.784l0.021-0.021
			c-0.45-0.411-0.976-0.877-1.29-1.409c-1.157-1.604-0.759-3.854-1.621-5.585C10.691,21.5,11.413,22.479,11.886,23.547z"/>
		<path fill="#0071BC" d="M32.885,28.728c-0.439,0.286-0.982,0.335-1.428,0.548c0.636,0.012,1.217-0.213,1.85-0.277
			c2.338-0.371,5.014,0.01,6.647-1.979c-0.607,1.386-2.13,2.544-3.517,3.032c-2.387,0.9-4.787-0.201-7.074-0.568l-0.438-0.059
			v-0.017c1.087-0.244,2.153-0.571,3.019-1.357c1.288-1.232,2.422-2.499,3.851-3.471C34.737,25.931,34.625,27.86,32.885,28.728z"/>
		<path fill="#0071BC" d="M16.506,28.085c0.907,0.791,1.994,1.162,3.144,1.396c-0.273,0.098-0.639,0.068-0.936,0.146
			c-2.059,0.507-4.352,1.337-6.542,0.594c-1.425-0.446-2.887-1.574-3.596-2.973c1.875,2.146,4.952,1.431,7.468,1.99
			c0.353,0.047,0.683,0.19,1.057,0.134c-0.295-0.189-0.719-0.168-1.043-0.341c-1.967-0.693-2.261-2.827-3.326-4.264
			C14.103,25.674,15.247,26.903,16.506,28.085z"/>
		<path fill="#0071BC" d="M31.885,30.986c1.53,0.565,3.508,0.41,4.821-0.524c-0.674,0.845-1.595,1.445-2.553,1.784
			c-2.125,0.794-4.341-0.033-5.993-1.295c-0.673-0.422-1.269-1.039-2.14-0.982c-0.31-0.009-0.611,0.007-0.881,0.082
			c1.609,0.753,3.105,1.787,4.477,3.111c-0.233,0.262-0.533,0.509-0.812,0.734c-1.317-1.426-2.784-2.79-4.419-3.59
			c-0.318,0.045-0.622,0.232-0.914,0.391c-1.325,0.84-2.647,1.925-3.635,3.248l-0.854-0.697c1.362-1.375,2.858-2.444,4.504-3.209
			c-1.613-0.511-2.667,0.843-3.89,1.527c-1.433,0.999-3.488,1.469-5.208,0.779c-0.936-0.352-1.832-0.871-2.501-1.713
			c1.356,0.934,3.382,1.033,4.926,0.425c2.072-0.901,4.227-2.038,6.726-1.496c0.388,0.01,0.768,0.397,1.137,0.066
			c1.855-0.479,3.96-0.146,5.562,0.701L31.885,30.986z"/>
	</g>
</g>
</svg>
